<?xml version="1.0" encoding="UTF-8"?><svg id="artwork" xmlns="http://www.w3.org/2000/svg" viewBox="0 0 1000 1000"><path d="M937.0996,398.9788v-127.5961c0-12.9702,1.7872-27.3764.149-40.2078-.3725-2.9124-1.9675-18.7256-3.5389-19.9261-3.1841-2.4349-5.4353.0237-8.7718,1.314-6.712,2.6008-11.5725,3.6964-18.7984,3.6371-14.6229-.1185-29.2525.0102-43.8762.0102-7.5705,0-15.7734,1.043-23.2288.0677-7.3859-.9685-13.5629-2.3011-21.2925-2.7871-7.5341-.4707-17.189-2.1928-24.436-4.3618-10.1654-3.0445-20.3105-3.6913-30.4792-6.4411-7.4223-2.0099-14.1589-5.4895-21.6515-7.4316-5.4328-1.4088-7.3961-2.0319-11.768-5.3727-8.5145-6.5054-16.3635-12.8551-25.6933-18.1956-7.7974-4.4651-14.9116-8.9556-22.8317-13.0261-7.1734-3.6862-13.6865-6.2328-19.9142-11.4548-7.3758-6.1837-15.6608-11.2448-23.0908-17.3337-8.3172-6.8187-17.3134-13.1921-26.0751-19.4503-7.5028-5.3574-19.5824-23.3024-28.8927-18.5783-3.146,1.595-5.9501,9.4822-8.4281,12.276-1.7288,1.9489-3.8394,3.6964-5.6995,5.5403-10.8723,10.7758-21.4475,21.1046-34.7301,28.9748-8.004,4.7411-15.4881,9.0961-22.808,14.3418-5.9958,4.2975-13.1447,7.4638-19.5104,11.5073-8.2749,5.2575-20.0192,11.6529-29.5776,13.8203-20.7786,4.714-42.1431,8.5339-63.0894,12.6451-23.5124,4.6158-45.831,14.6076-69.8488,16.6277-14.5018,1.2174-28.0054,5.9738-42.6105,5.8214-14.9581-.1558-29.9205-.0779-44.8794-.0677-1.7864.0034-13.8363-1.4647-15.8657-.2032-3.5973,2.2351-1.6772,1.551-2.5441,5.7553-1.2318,5.9788.0567,13.9913.0567,20.2021v152.7441c0,28.7648-2.8582,56.9167-2.8777,85.6104-.0237,34.2272-.5046,67.5807,6.3293,101.322,3.8039,18.7815,12.4386,35.6038,13.8727,54.9627.9211,12.4487,1.5493,25.7881,3.3848,38.0523,2.2503,15.0428,6.5672,31.3064,14.3375,44.4697,6.8356,11.5801,16.7064,20.7524,26.0404,30.2193,7.9151,8.026,17.2313,14.1166,25.1938,22.1815,12.872,13.0414,24.436,25.9219,40.7725,34.6387,15.3459,8.1902,30.624,13.8727,46.4626,19.0558,1.5925,1.1531,3.207,2.3062,4.9815,3.4051,6.3404,3.9216,12.8602,4.924,19.2903,9.1604,9.9004,6.5224,19.4858,11.3888,29.6352,17.3236,9.8098,5.7367,17.8426,8.8895,28.7225,12.0847,9.5084,2.7939,19.1633,9.2316,27.9902,13.6679,18.6333,9.367,37.5113,19.1811,55.6645,29.1898,6.9939,3.8555,5.2821.7653,11.7977-3.2324,4.4109-2.7058,9.621-2.5568,14.1242-4.863,5.0763-2.6025,8.5196-5.2677,14.0251-7.2725,4.946-1.7999,10.5853-3.4017,15.3171-5.6893,10.2805-4.9697,19.5239-10.0206,30.1618-14.3807,13.0321-5.3405,25.7839-11.8087,38.7702-17.2677,56.4223-23.7071,116.7534-47.8443,163.586-88.6413,9.9529-8.6694,15.5524-20.5424,22.8952-31.1658,2.5433-3.6794,6.2633-5.9501,8.716-9.6989,2.2275-3.4034,3.5016-7.7669,5.4582-11.3617,8.4213-15.4746,16.2678-31.1371,21.0064-48.2083,6.3437-22.8537,11.7824-46.1121,15.9148-69.5212,2.0903-11.8375,3.6422-22.8673,3.4415-34.9502-.2311-13.9252,4.1137-26.059,6.6121-39.5745,3.7023-20.0345,2.0988-40.9714,2.0988-61.3124v-61.055ZM355.7591,800.43c2.8853.0745,5.6148,1.2445,8.3028,2.6753l-8.3028-2.6753ZM580.0563,872.7027c11.7113,3.0715,23.31,6.6578,34.7157,11.1873l-34.7157-11.1873ZM774.0242,391.1611c-2.3655,3.6252-4.841,6.751-7.6374,9.9817-10.2738,11.873-18.9745,25.8254-27.3315,39.0428-4.2729,6.756-10.3686,12.127-15.3179,18.3785-8.4865,10.7233-16.9502,21.599-25.1777,32.5221-7.7034,10.2255-15.1308,20.4696-22.4363,30.9847-7.4596,10.7352-12.7247,22.5438-19.8617,33.4653-11.4937,17.5843-23.9475,34.0139-36.5529,50.8109-7.5138,10.0122-14.7058,20.3189-22.3034,30.2617-6.6341,8.6813-15.3569,16.0655-23.0611,23.7765-5.7096,5.7164-11.4404,11.4125-17.117,17.1627-2.3536,2.3841-9.7421,11.3532-13.5807,11.3651-3.8487.0102-4.3356-3.9656-7.4935-5.3642-2.5636-1.1345-5.7613-.1202-8.517-1.1446-3.8606-1.4359-6.6096-4.5955-10.2865-6.4309-2.4086-1.2022-4.9434-2.0217-7.2903-3.4017-9.6532-5.6774-17.1128-12.5656-25.6577-19.5705-12.149-9.9597-26.4281-17.6673-38.9387-27.2866-12.3827-9.5228-24.7789-18.9474-36.9195-28.7987-10.7242-8.7033-22.7022-15.4102-34.1688-23.0044-6.5613-4.3449-10.5489-7.3927-7.6162-15.356,9.6676-26.2537,23.4938-50.3622,40.5134-72.7096,4.736-6.2193,8.0598-12.2184,11.8019-19.0287,2.3434-4.267,5.8231-9.8259,11.1839-10.2661,4.4625-.3674,10.4693,3.5981,14.6364,5.056,16.6014,5.8044,32.2808,15.2815,46.0884,25.9693,6.861,5.3117,12.5232,11.7579,18.6689,17.8417,8.7795,8.6914,19.2776,13.2124,30.2947,18.6087l-7.6746-5.7553c3.9639-.7874,10.1222-16.6852,11.9932-21.0132,5.7782-13.3563,12.9542-27.2731,22.3788-38.3418,12.58-14.7736,18.5673-33.3451,28.6082-49.7678,4.7436-7.7584,7.1785-16.5176,11.829-24.298,6.2108-10.3897,14.484-19.5519,21.2316-29.6081,5.1593-7.6873,11.2406-14.6466,15.2875-23.0772,1.8507-3.8555,3.5118-7.6687,5.6859-11.3752,1.4359-2.4501,3.5363-7.8092,6.2489-9.1858,3.3442-1.7,11.2609,1.2513,14.7033,2.3604,8.9073,2.8751,17.8967,9.2925,25.6357,14.4569,6.7163,4.4803,15.2375,6.8678,22.8317,9.3569,9.7742,3.2036,19.1692,8.959,28.107,14.0438,13.3902,7.6196,22.3779,21.4111,36.8805,26.7668-1.2234,3.654-7.3207,8.9742-9.6684,12.5723Z" style="fill:currentColor; stroke-width:0px;"/><path d="M957.9062,398.9788v-70.8959c0-23.3192-.6309-46.7384.4027-70.0375.4262-9.6087.6571-19.0887-.4649-28.6582-.8633-7.3624-1.2608-15.0893-3.3665-22.2271-2.4848-8.4226-8.878-14.8167-17.4812-16.978-4.6869-1.1774-9.6659-.9546-14.1874.6925,2.1506-.7834-6.786,2.4459-7.1681,3.1955,2.8835-1.1972,3.2734-1.4004,1.1699-.6098-.6125.2179-1.2294.4224-1.8506.6135-2.0991.6598-4.5207.7962-6.5462,1.5571,4.025-1.512,3.7453-.3475,1.8111-.3434-1.3596.0028-2.7236.0999-4.0854.1058-6.2284.0269-12.4587-.0559-18.6875-.0459-11.5444.0185-23.101-.123-34.6361.3666-2.688.1141-5.3804.2206-8.0713.158-.9548-.0222-1.9262-.1214-2.882-.1238-4.9503-.0122,4.7568.8146-.1933.0622-6.7132-1.0204-13.4241-2.1381-20.1827-2.8163-2.4786-.2487-4.9705-.4327-7.4542-.6235-3.5578-.2732,1.2199.1084,1.6114.2617-1.1344-.4441-2.8147-.4217-4.0232-.6308-5.1195-.8858-10.059-2.2386-15.0703-3.5786-10.8975-2.914-22.2807-3.5819-32.9788-7.2994-4.7215-1.6406-9.3086-3.6602-14.0879-5.1363-2.082-.643-4.2132-1.1104-6.293-1.7585-2.8308-.8821-1.7178-1.8795,1.3538.7028-.878-.7382-2.1474-1.224-3.1063-1.8936-8.9464-6.247-17.1062-13.3913-26.5611-18.9311-9.5777-5.6118-19.084-11.2779-29.0564-16.1691-2.1834-1.0709-4.3676-2.1452-6.4866-3.3405-1.0276-.5797-5.2414-2.4872-5.6539-3.618l2.0005,1.5152c-.7378-.618-1.4839-1.2258-2.2382-1.8236-1.7615-1.4065-3.5581-2.7729-5.3473-4.144-2.4857-1.9048-5.0155-3.7463-7.5625-5.5681-2.1545-1.541-4.3176-3.0704-6.4486-4.644-.2958-.2184-3.8946-3.2251-1.3418-.989,2.6149,2.2905-1.1359-.9679-1.3452-1.1363-5.8092-4.6763-11.748-9.1998-17.7711-13.5969-2.0906-1.5262-4.1922-3.0374-6.2965-4.5448-1.0475-.7504-2.0963-1.4989-3.1448-2.2478-2.269-1.6205-2.4528-3.3845,1.1711,1.0166-2.2962-2.7887-5.5222-5.2766-8.0861-7.846-6.777-6.7914-14.7586-13.9798-24.4772-15.9042-7.2827-1.4421-14.4874-.6123-20.9703,3.1822-6.0288,3.5286-9.5902,9.711-12.8875,15.6064-.3222.5761-.6893,1.1457-.9908,1.7303-1.6947,3.2858,4.3963-4.3192.9317-1.2183-1.6391,1.4671-3.2252,3.05-4.8062,4.5812-4.0813,3.953-8.0749,7.987-12.2644,11.8281-1.728,1.5843-3.4785,3.1444-5.2622,4.6657-.8915.7604-1.7912,1.5107-2.6993,2.2513-1.2756,1.0402-2.6997,3.2693.3384-.2029-1.5739,1.7987-4.3781,3.1988-6.3682,4.5095-2.6831,1.7671-5.4617,3.375-8.2237,5.0139-17.7669,10.5424-34.6147,22.8876-53.2861,31.8751-.8263.3978-1.6611.7753-2.4922,1.1631-4.3423,2.0261,4.4514-1.5236-.0055-.0275-2.0063.6734-3.9737,1.4029-6.0244,1.9369-5.924,1.5424-11.9944,2.672-17.9885,3.9041-11.2972,2.3221-22.6301,4.4654-33.9565,6.639-11.0005,2.1111-21.8675,4.3745-32.642,7.4617-10.5571,3.025-21.036,6.3773-31.7684,8.7468-2.4328.5371-4.8761,1.0281-7.3316,1.4502-1.4786.2541-5.5661,1.8117-.393.1388-.8208.2654-2.1848.2513-2.9852.3324-7.2994.7398-14.5507,1.6992-21.762,3.0552-4.7265.8887-9.9576,1.2189-14.5363,2.622,5.0878-1.5591,1.3231-.1839-.3442-.0349-1.2364.1105-2.4737.1936-3.7137.2473-3.3843.1465-6.7778.0365-10.164.015-11.7542-.0746-23.5087-.0314-35.263-.0175-5.939.007-11.8797-1.0554-17.8107-.5637-6.9999.5803-13.1452,2.9425-18.1079,8.1134-4.0116,4.1799-6.4691,9.941-6.2638,15.7894.0128.3634-.0431.8277.0069,1.1674.5998-4.0782.6941-4.8962.283-2.4541-.3289,2.263-.6278,4.5297-.8967,6.8004-.3917,4.6031.0652,9.2006.2999,13.7992.3145,6.1612.1242,12.3685.1242,18.5363,0,23.8326,0,47.6651,0,71.4977s.2254,47.6123-.0255,71.4108c-.2451,23.2527-2.1793,46.4443-2.7139,69.6879-1.0643,46.2763-1.4264,94.5452,12.7827,139.0444,1.4671,4.5944,2.9594,9.1827,4.2528,13.83.7773,2.793,1.4918,5.6051,2.0839,8.4436.1983.9508.3866,1.9046.5583,2.8606.1733.9607.3312,1.924.4739,2.8897-.4003-3.1019-.4709-3.48-.212-1.1341.6338,11.188,1.3925,22.4461,2.7147,33.5752,2.7066,22.7818,7.7311,46.5847,21.0777,65.7558,6.7716,9.7268,14.8414,18.2045,23.1745,26.5708,7.5654,7.5956,15.9938,14.0149,23.9454,21.1684,7.613,6.8489,14.3395,14.6401,21.8474,21.6101,8.3088,7.7136,17.3989,14.931,27.3987,20.3312,11.0049,5.9429,22.6459,10.8195,34.3465,15.2043,4.9409,1.8516,9.9332,3.5466,14.9303,5.2384,2.5258.8551-3.7197-2.6465-.3917.3359,1.0683.9573,2.5808,1.7332,3.8294,2.4294,3.6131,2.0147,7.5571,3.5133,11.3772,5.0487,1.0867.4368,2.9598.8093,3.871,1.5367-.2597-.2073-4.4243-2.2785-1.095-.3753,2.4039,1.3742,4.7391,2.7959,7.0847,4.2728,4.81,3.0285,9.753,5.8342,14.7091,8.6144,10.2788,5.7662,20.2746,11.5671,31.2383,15.979,4.4117,1.7753,8.9122,3.2524,13.4608,4.6342,1.1033.3352,2.1931.7319,3.2978,1.0564,4.5906,1.3485-4.1499-2.1035.2262.0389,2.6025,1.2741,5.1892,2.5435,7.7393,3.9235,9.6904,5.2443,19.4688,10.2648,29.2682,15.3041,10.2681,5.2803,20.4888,10.6538,30.6401,16.1557,5.4795,2.9699,11.1631,6.8116,17.2439,8.3046,9.2266,2.2654,17.5514-1.0388,24.204-7.4104,2.7135-2.5989-4.639,2.7906-.4326.3633,2.8517-1.6456-1.1533.6467-1.2136.4129-.0134-.0521,7.2096-1.9226,7.8502-2.1321,6.0074-1.9654,11.0248-5.3607,16.5577-8.2182l1.1548-.582c1.9889-.9186,1.5989-.7582-1.17.4814-.0058-.0606,2.7267-.9577,2.5234-.8875,2.6072-.9,5.237-1.7374,7.8187-2.71,6.2539-2.356,12.2098-5.2734,18.1745-8.2578,4.9297-2.4665,9.8527-4.9496,14.867-7.2414.9257-.4231,1.8571-.833,2.7853-1.2505,4.8181-2.1672-4.1914,1.7025.7568-.3207,4.0832-1.6695,8.142-3.4159,12.1756-5.2035,5.2791-2.3397,10.5107-4.7842,15.7591-7.1914,2.3837-1.0933,4.7696-2.182,7.1651-3.2493,1.1951-.5325,2.3923-1.0602,3.5923-1.5816,5.0831-2.2084-2.4021.9837,1.1602-.5059,38.9729-16.2969,78.365-32.2785,114.9376-53.5973,18.7643-10.938,36.6656-23.4121,53.1948-37.5174,8.5534-7.2991,15.0802-16.4639,21.0304-25.9396,1.1858-1.8883,2.3548-3.7872,3.5503-5.6694.7169-1.1288,1.4384-2.2547,2.1774-3.3692l.7427-1.1111c1.2734-1.8307.9894-1.4821-.8522,1.0461,1.4944-.6956,3.487-3.4133,4.5848-4.5844,2.6513-2.8285,5.1639-5.9592,6.9722-9.4072,2.2517-4.2936,4.0196-8.8026,6.3149-13.0915,2.5322-4.7318,5.0004-9.499,7.3232-14.3375,5.1973-10.8259,9.9375-22.0011,13.2867-33.5485,6.4589-22.2686,11.6173-45.0123,15.7581-67.8203,2.2392-12.3338,4.2933-24.8346,4.6955-37.3834.0911-2.8414.0026-5.6806.055-8.5216.0233-1.2612.0795-2.5199.1706-3.7782.1148-1.5856,1.3783-5.6112-.0882-.3761,1.4356-5.1247,2.0275-10.643,3.2394-15.8534,2.8359-12.1923,4.8396-24.5116,5.4489-37.0317.5495-11.2901.1548-22.597-.0052-33.8914-.3243-22.8951-.0617-45.8105-.0617-68.7078,0-10.8835-9.5701-21.3099-20.8066-20.8066-11.273.5049-20.8066,9.1421-20.8066,20.8066,0,27.525-.0677,55.0454.2931,82.5678.0875,6.6772.0959,13.3598-.2262,20.0314-.1479,3.0631-.3626,6.124-.6724,9.1752-.0772.7605-.1822,1.52-.2511,2.2811-.217,2.3962.2038-1.66.2475-1.7417-.6954,1.3019-.6088,3.7943-.8888,5.2704-2.6548,13.9955-6.9409,27.683-7.2058,42.0544-.1228,6.6583-.1512,13.2369-.8704,19.8702-.0847.7816-.6686,5.5723-.2774,2.4812s-.2793,1.7205-.4027,2.5022c-.5682,3.598-1.2011,7.1856-1.8561,10.7686-2.4725,13.5255-5.3693,26.9721-8.6207,40.3313-3.0919,12.7041-6.1154,25.5813-10.69,37.8483-.5959,1.5979-1.2549,3.1708-1.8583,4.7652-.8258,2.1822.6694-1.5556.6942-1.6002-.3469.6243-.5849,1.3541-.8727,2.0086-1.2742,2.8968-2.612,5.7651-3.996,8.611-2.7786,5.7134-5.848,11.262-8.779,16.8951-1.2709,2.4426-2.2518,5.0085-3.4024,7.5067-.5161,1.1205-1.278,2.1993-1.7351,3.3309-.7106,1.759,1.0356-1.464,1.3286-1.5919-.584.255-1.3262,1.4132-1.791,1.8788-5.0463,5.0559-9.1649,10.6192-12.962,16.6509-1.4252,2.264-2.8245,4.5442-4.2639,6.7992-1.6026,2.5106-3.9855,5.0528-5.2504,7.7232-.005.0105,2.6905-3.2706,1.2118-1.5763-.4382.5021-.8443,1.035-1.2789,1.5409-.8733,1.0165-1.778,2.008-2.7168,2.9645-2.2461,2.2886-4.7276,4.3428-7.1854,6.3978-2.1324,1.7829-4.3,3.5206-6.4736,5.2527-3.048,2.4288,2.9315-2.1938-.1869.1446-1.4826,1.1118-2.9636,2.2251-4.4603,3.318-4.8696,3.5558-9.8411,6.972-14.8936,10.2623-9.9527,6.4814-20.2198,12.4721-30.6795,18.0955-21.4053,11.508-43.5966,21.4732-65.9355,31.0124-2.5609,1.0936-5.1253,2.1789-7.6891,3.2658-2.1482.9107,1.8034-.7606,1.7708-.747-.8542.354-1.7047.718-2.557,1.0765-1.4891.6263-2.9786,1.2517-4.4682,1.8767-6.7657,2.8388-13.5416,5.6544-20.2934,8.5263-6.271,2.6674-12.4576,5.5227-18.647,8.3729-2.8609,1.3175-5.7228,2.6331-8.5962,3.9233-1.434.6439-2.8705,1.2822-4.3112,1.9111-.5282.2306-1.5904.9316-2.1605.9361l2.0828-.8764c-.7232.2979-1.4458.597-2.168.8973-7.0433,2.9333-13.9715,6.0356-20.8065,9.4241-2.927,1.4511-5.8419,2.9265-8.7678,4.3798-1.3768.6839-2.7529,1.3703-4.1388,2.0358-.5482.2632-1.4222.5177-1.8988.8972.7944-.6326,3.8776-1.5018,1.1962-.5639-6.834,2.3906-13.8167,4.5555-20.2673,7.8932-2.464,1.2749-4.8112,2.762-7.2419,4.097-.4094.2248-1.567.6085-1.8282.9773.1919-.2709,3.848-1.1778,1.8058-.8509-1.5155.2426-3.0988.8096-4.5909,1.1975-4.11,1.0685-8.3693,2.5957-11.9383,4.9092-2.672,1.7321-6.7235,4.0462-8.565,6.8358l3.8173-2.2073c2.3814-2.2023,5.1625-2.9632,8.3432-2.2828,1.3951-.0233,5.974-.5496,7.4968,1.1741-.8118-.9189-2.9263-1.5827-4.016-2.1801-3.2007-1.7546-6.4092-3.4952-9.6242-5.2236-12.0242-6.4645-24.1401-12.7576-36.315-18.9333-12.1651-6.1706-23.8874-13.4464-36.7117-18.2085-5.5376-2.0563-11.2498-3.6577-16.8054-5.691-2.0912-.7654,1.9806.8543,1.975.847-.2487-.3262-2.1682-.9748-2.3817-1.0743-1.2082-.5631-2.406-1.1497-3.5927-1.7568-2.778-1.4212-5.4689-2.9913-8.1713-4.549-5.5633-3.2067-11.2097-6.2668-16.7652-9.4872-5.5652-3.2259-10.8216-7.1513-16.6959-9.7906-2.4899-1.1187-5.0226-2.1577-7.5539-3.1807-.7173-.2899-4.9145-2.0429-2.0261-.7625,3.0238,1.3404-1.9136-.964-2.6359-1.3689-1.5366-.8612-2.998-1.8502-4.4403-2.8589-6.1433-4.2963-14.7125-5.9726-21.7503-8.5555-2.831-1.039-5.6483-2.1148-8.4475-3.2366-.7016-.2812-5.0938-2.0499-2.4182-.9759,2.7327,1.0969-.3454-.1674-1.0102-.4615-.9336-.4131-1.8645-.8319-2.7926-1.2571-5.913-2.7085-11.8142-5.5787-17.3271-9.042-2.3385-1.4691-4.5608-3.0811-6.8025-4.69-1.8524-1.3294,1.5207,1.1739,1.5143,1.1663-.4052-.4806-1.0963-.8867-1.5827-1.2884-1.2225-1.0096-2.4266-2.0413-3.6141-3.0919-4.4383-3.9265-8.6421-8.1083-12.7962-12.3314-4.3238-4.3955-8.5305-8.9161-13.1652-12.9906-4.7397-4.1667-9.7657-7.9941-14.5049-12.1614-4.6847-4.1194-9.0136-8.6548-13.3811-13.1055-2.0015-2.0396-3.9839-4.0991-5.9084-6.2118-1.1211-1.2308-2.2232-2.4789-3.2995-3.7491-.4611-.5442-.9112-1.0972-1.3702-1.643-1.8038-2.1452.3055-.1577.6171.8403-.7293-2.3357-3.4975-4.9746-4.7773-7.1393-1.6239-2.7466-3.0254-5.5976-4.3723-8.4868-1.6481-3.5352,1.3096,3.5373-.0346-.1463-.4785-1.3112-.9796-2.6126-1.4345-3.9325-1.065-3.09-2.0023-6.2243-2.8335-9.385-1.5215-5.7855-2.6198-11.6456-3.5651-17.5488-.6468-4.039.3995,3.682-.0512-.4301-.1663-1.5168-.3434-3.032-.4963-4.5503-.3348-3.3248-.6106-6.6554-.8623-9.9874-1.0806-14.3021-1.7429-28.5499-5.5551-42.4621-3.3356-12.1732-7.9599-23.9596-10.4477-36.3636-.6217-3.0996-1.1772-6.2128-1.6822-9.3335-.1694-1.0467-.1164-4.5497-.8257-5.438.0438.0548.5122,4.0853.2209,1.6491-.1238-1.0353-.2595-2.0692-.3814-3.1047-.7893-6.706-1.3589-13.4364-1.767-20.176-.8168-13.4891-.9843-27.007-1.0079-40.5176-.0474-27.2101,1.3676-54.2557,2.4129-81.4328,1.0758-27.9692.4771-56.0306.4771-84.0163,0-27.8949,0-55.7899,0-83.6848,0-6.0964-.2849-12.1195-.5217-18.205-.054-1.3867-.092-2.7774-.055-4.165.0177-.6647.0963-1.335.1028-1.9984.0272-2.7848-.6982,4.3171-.2392,1.8698.4435-2.3648.7203-4.7989.9076-7.197.2512-3.2171.34,1.373-.5852,3.613l-5.3509,9.1813c1.2044-1.5151-3.2825,2.382-2.9266,2.1408,2.8986-1.9647-3.419,1.2983-3.3764,1.2845-5.6947,1.8481-5.0815.4816-1.7913.5061,2.494.0186,4.9865.2229,7.4711.4229,6.6252.5334,13.2964.273,19.9397.2643,9.0831-.0119,18.1655.0095,27.2483.075,9.8288.0709,19.5642-1.437,29.2034-3.2618,4.1235-.7806,8.238-1.6119,12.3838-2.2684.8122-.1286,4.0109-.318.9234-.1554-3.1195.1642.1636.026.9541-.0509,2.245-.2183,4.4813-.4474,6.7191-.7325,9.8072-1.2492,19.3751-3.1743,28.907-5.7913,16.577-4.5513,32.8161-9.4515,49.7219-12.7061,17.4743-3.3641,34.9912-6.5741,52.3484-10.5119,16.4616-3.7346,30.1787-13.2405,44.7119-21.2326,7.21-3.965,13.7893-8.7623,20.7562-13.1142,7.0875-4.4273,14.4996-8.3563,21.2791-13.26,7.5334-5.4489,14.6641-11.3997,21.4118-17.7902,6.39-6.0519,13.5143-12.047,18.5912-19.2733,1.6138-2.297,3.0324-4.8915,4.2947-7.3945.4133-.8196,1.967-2.7673-.2534.0432-2.949,3.7328,2.0947-1.29-2.0224,1.9291-2.1856,1.7089-4.3655,2.6561-7.1169,3.0027-2.2888.207-2.7226.2909-1.3014.2515l-4.0351-.5518c.5077.0583,1.0306.2834,1.5184.4389-6.2431-1.9896-3.9491-1.8729-2.663-1.033.8302.5422,4.9444,3.4425,1.7725,1.0248-3.2304-2.4624.7617.8072,1.3596,1.3618,1.1508,1.0674,2.2674,2.1708,3.376,3.2818,5.0726,5.0834,10.0792,9.5795,15.9649,13.7845,3.5781,2.5564,7.1541,5.1161,10.6949,7.724,1.6687,1.229,3.3145,2.4881,4.9794,3.722,2.363,1.7512-2.8196-2.2505-.531-.4136,1.0029.8049,2.018,1.5947,3.0192,2.402,7.4128,5.9774,15.1288,11.4931,22.8197,17.0973,3.0347,2.2113-.5174-.2226-.7745-.6161.3547.543,1.6571,1.3572,2.2382,1.8236,2.6406,2.1189,5.2884,4.2727,8.098,6.1669,3.1265,2.1078,6.4824,3.8236,9.8595,5.4874,15.1825,7.4802,30.3539,15.941,43.9432,26.0644,7.2098,5.371,13.5039,10.9634,22.0786,14.0761,3.3498,1.216,6.8567,1.923,10.2315,3.0715,3.8289,1.3031,7.5565,2.88,11.3685,4.2293,8.1991,2.9021,16.7659,4.0498,25.2719,5.6686,7.8999,1.5034,15.5197,4.0756,23.4515,5.4446,5.0827.8772,10.2187,1.5995,15.3583,2.032,1.8567.1562,3.7156.261,5.5701.447l.729.0734c1.8861.2264,1.9083.2178.0668-.0259-1.8248-.2549-1.8194-.2517.0162.0096l1.3737.2059c9.4976,1.4372,18.7797,2.8751,28.4072,2.4888,18.0045-.7223,36.0442-.3024,54.06-.3527,10.3551-.0289,19.8948-2.3025,29.2999-6.4778.4087-.1814,1.9315-.6657,2.3304-1.092l-2.8576,1.1356-18.8541-8.3951c-2.9365-4.0641-2.0053-5.468-1.2485-2.1802.5314,2.3084.8182,4.662,1.1821,6.9996-1.2815-8.2316-.0394-.0032.2035,2.0826.306,2.6274.6186,5.2497.7663,7.8926.4764,8.5267-.1272,17.0646-.4609,25.5845-.7068,18.0462-.2076,36.1889-.2076,54.2475v82.1751c0,10.8835,9.5701,21.3099,20.8066,20.8066,11.273-.5049,20.8066-9.1421,20.8066-20.8066Z" style="fill:currentColor; stroke-width:0px;"/><path d="M355.7591,821.2366c.4388.0142.8746.0505,1.3099.1076l-5.5312-.7432c1.4681.2098,2.8765.6612,4.2406,1.2351l-4.9703-2.0975c.938.4014,1.8512.8546,2.7523,1.3326,5.3442-12.6764,10.6885-25.3528,16.0327-38.0292-2.4204-.7799-4.8407-1.5598-7.2611-2.3396-.3473-.1119-.6945-.2238-1.0418-.3357-2.7656-.8671-5.5312-.991-8.2968-.3716-2.769.1256-5.3476.9486-7.7359,2.4691-2.4247,1.3075-4.3706,3.0938-5.8377,5.3589-1.8391,2.0096-3.0804,4.3681-3.7242,7.0758l-.7432,5.5312c.0117,3.7558.9586,7.2562,2.8407,10.5015l3.2534,4.211c2.5961,2.5787,5.6565,4.3623,9.1813,5.3509,2.4204.7799,4.8407,1.5598,7.2611,2.3396.3473.1119.6945.2238,1.0418.3357,2.7656.8671,5.5312.991,8.2968.3716,2.769-.1256,5.3476-.9486,7.7359-2.4691l4.211-3.2534c2.029-1.8846,3.463-4.1166,4.3021-6.6961.9411-1.6226,1.4145-3.3729,1.4204-5.2507.6194-2.7656.4955-5.5312-.3716-8.2968l-2.0975-4.9703c-1.8497-3.1265-4.3379-5.6147-7.4644-7.4644-2.9014-1.5391-5.9527-2.8651-9.0477-3.9436-.6945-.242-1.4032-.4439-2.1246-.588-2.5072-.5008-5.0719-.9019-7.6319-.9845-2.8646-.1081-5.5368.4893-8.0163,1.792-2.5795.8391-4.8115,2.2732-6.6961,4.3021-2.029,1.8846-3.463,4.1166-4.3021,6.6961-1.3027,2.4796-1.9,5.1517-1.792,8.0163l.7432,5.5312c.9886,3.5247,2.7722,6.5852,5.3509,9.1813l4.211,3.2534c3.2452,1.8821,6.7457,2.829,10.5015,2.8407Z" style="fill:currentColor; stroke-width:0px;"/><path d="M574.5251,892.7661c9.1401,2.4,18.2029,5.1081,27.0969,8.3073,2.5549.919,5.0948,1.8792,7.6188,2.88,3.6875-13.3756,7.375-26.7511,11.0624-40.1267-3.9142-1.2614-7.8284-2.5227-11.7426-3.7841-6.2337-2.0088-12.4674-4.0177-18.7011-6.0265-1.424-.4589-2.8481-.9178-4.2721-1.3767-2.7656-.8671-5.5312-.991-8.2968-.3716-2.769.1256-5.3476.9486-7.7359,2.4691-2.4247,1.3075-4.3706,3.0938-5.8377,5.3589-1.8391,2.0096-3.0804,4.3681-3.7242,7.0758l-.7432,5.5312c.0117,3.7558.9586,7.2562,2.8407,10.5015l3.2534,4.211c2.5961,2.5787,5.6565,4.3623,9.1813,5.3509,3.9142,1.2614,7.8284,2.5227,11.7426,3.7841l18.7011,6.0265c1.424.4589,2.8481.9178,4.2721,1.3767,2.7656.8671,5.5312.991,8.2968.3716,2.769-.1256,5.3476-.9486,7.7359-2.4691,2.4247-1.3075,4.3706-3.0938,5.8377-5.3589,1.8391-2.0096,3.0804-4.3681,3.7242-7.0758l.7432-5.5312c-.0117-3.7558-.9586-7.2562-2.8407-10.5015l-3.2534-4.211c-2.5961-2.5787-5.6565-4.3623-9.1813-5.3509-8.8124-3.4944-17.8232-6.4654-26.9386-9.0623-2.5846-.7363-5.1778-1.4425-7.7771-2.125-2.7656-.8671-5.5312-.991-8.2968-.3716-2.769.1256-5.3476.9486-7.7359,2.4691-2.4247,1.3075-4.3706,3.0938-5.8377,5.3589-1.8391,2.0096-3.0804,4.3681-3.7242,7.0758l-.7432,5.5312c.0117,3.7558.9586,7.2562,2.8407,10.5015l3.2534,4.211c2.5961,2.5787,5.6565,4.3623,9.1813,5.3509Z" style="fill:currentColor; stroke-width:0px;"/><path d="M756.0583,380.6596c-1.2261,1.8589-2.5205,3.6644-3.8807,5.4274l3.2534-4.211c-2.9949,3.8174-6.2496,7.4181-9.2327,11.2472-3.9757,5.1031-7.8601,10.2536-11.5168,15.5902-2.7257,3.978-5.3587,8.0186-7.9563,12.0811-2.6645,4.1672-5.1477,8.5-8.1293,12.451l3.2534-4.211c-4.4204,5.7105-9.6186,10.7581-14.0971,16.4268-5.9464,7.5267-11.8341,15.0988-17.6884,22.6974-9.7999,12.7199-19.3933,25.5965-28.6335,38.7297-4.3351,6.1616-8.3463,12.4403-12.0277,19.0155-3.6692,6.5533-7.215,13.1773-11.3281,19.4687-8.6311,13.2019-17.9589,25.9326-27.3988,38.563-10.6136,14.2007-20.8485,28.7164-31.6815,42.7485l3.2534-4.211c-7.9197,10.0569-17.8685,18.4591-26.9008,27.4843-4.4794,4.4759-9.0733,8.8697-13.4103,13.4841-2.797,2.9759-5.4638,6.0819-8.6723,8.6345l4.211-3.2534c-.8898.6799-1.7999,1.3029-2.8227,1.7657l4.9703-2.0975c-.4061.1581-.7963.2763-1.2273.343l5.5312-.7432c-.2776.0257-.5552.0218-.833-.0117l5.5312.7432c-.5134-.0835-.9217-.1937-1.4012-.3922l4.9703,2.0975c-.2705-.1314-.5255-.2881-.765-.4701l4.211,3.2534c-.8403-.6885-1.4777-1.5226-2.1816-2.3401-1.7198-1.9973-3.8913-3.7021-6.14-5.0283-5.6514-3.3331-11.4346-3.4092-17.7171-3.9097l5.5312.7432c-.9202-.1267-1.7368-.3431-2.5987-.6897l4.9703,2.0975c-2.3719-1.0935-4.3707-2.7036-6.4849-4.2088-2.247-1.5998-4.6567-2.6451-7.1711-3.7461-5.2488-2.2982-9.9794-5.8275-14.4972-9.309l4.211,3.2534c-5.7108-4.4448-11.0972-9.2855-16.7866-13.7554-6.7554-5.3074-13.7168-10.2248-20.8892-14.9451-5.8989-3.8821-11.8349-7.7176-17.5183-11.9138-6.3103-4.6591-12.4739-9.5329-18.6815-14.3278l4.211,3.2534c-11.239-8.6882-22.0662-18.0563-33.7285-26.1691-9.4818-6.596-19.8497-12.022-29.0539-18.9994l4.211,3.2534c-1.1397-.8947-2.2042-1.8447-3.1103-2.9791l3.2534,4.211c-.4284-.5856-.788-1.1813-1.093-1.8389l2.0975,4.9703c-.2721-.6821-.4524-1.3531-.5643-2.0778l.7432,5.5312c-.0794-.8121-.0629-1.5915.0239-2.4016l-.7432,5.5312c.756-4.9408,3.3181-9.8741,5.2427-14.453l-2.0975,4.9703c5.1796-12.2249,11.2684-24.0463,18.1704-35.3877,3.3971-5.5821,6.9848-11.0477,10.741-16.3945,3.8673-5.505,8.1455-10.7328,11.7797-16.397,3.7081-5.7794,6.4419-12.309,10.6034-17.7734l-3.2534,4.211c.8488-1.0593,1.749-2.0199,2.7929-2.8894l-4.211,3.2534c.7491-.5703,1.5116-1.0466,2.3617-1.4493l-4.9703,2.0975c.7013-.2819,1.386-.483,2.1289-.6225l-5.5312.7432c.7365-.0863,1.4297-.0939,2.1684-.0311l-5.5312-.7432c1.8242.2554,3.5348.8538,5.2319,1.5524l-4.9703-2.0975c3.952,1.6963,7.7636,3.6177,11.7809,5.1879,2.8414,1.1106,5.7169,2.1083,8.5338,3.2866l-4.9703-2.0975c13.8437,5.8791,26.6574,13.8889,38.5474,23.0605l-4.211-3.2534c8.4981,6.6536,15.0526,15.3785,23.4708,22.0812,5.047,4.0185,10.1575,7.6624,15.8323,10.7228,4.5463,2.4518,9.2323,4.6324,13.8714,6.8999,5.0789,2.4824,10.4287,3.6407,16.0327,2.0975,4.8263-1.3291,10.0565-5.0608,12.4347-9.5619,2.5513-4.8288,3.8301-10.6786,2.0975-16.0327l-2.0975-4.9703c-1.8497-3.1265-4.3379-5.6147-7.4644-7.4644-2.5582-1.9184-5.1164-3.8369-7.6746-5.7553-1.6568,12.6764-3.3135,25.3528-4.9703,38.0292,15.2266-3.9174,20.859-22.0853,26.2244-34.8388l-2.0975,4.9703c5.3073-12.5509,11.6302-24.8742,19.9632-35.7027l-3.2534,4.211c4.4615-5.7113,9.2081-11.1824,13.1179-17.3054,2.9852-4.6749,5.6041-9.5712,8.1081-14.5168,2.514-4.9652,4.9136-9.9878,7.4673-14.933,2.6578-5.1469,5.846-10.0141,8.4233-15.1939,2.5631-5.1513,4.5467-10.5684,7.1289-15.7107,2.717-5.4107,6.2288-10.394,9.8296-15.2451,6.997-9.4265,13.9126-18.8788,20.7768-28.4026,3.8062-5.2809,6.9978-10.7171,9.7752-16.6004,1.3678-2.8974,2.876-5.692,4.393-8.5102,1.2009-2.2309,2.2306-4.5383,3.7591-6.5755l-3.2534,4.211c.42-.5131.8521-.976,1.3572-1.4062l-4.211,3.2534c.3504-.2515.6691-.4443,1.0622-.6192l-4.9703,2.0975c.3922-.1318.7578-.2193,1.1659-.2895l-5.5312.7432c1.1401-.1239,2.2446-.0513,3.3795.0968l-5.5312-.7432c4.4702.6975,8.9765,2.2416,13.1618,3.9381l-4.9703-2.0975c4.6034,1.9429,8.9266,4.4487,13.1306,7.1364,3.958,2.5304,7.7349,5.4238,11.8388,7.7136,9.745,5.4372,20.6094,7.7049,30.8044,11.9693l-4.9703-2.0975c5.452,2.3382,10.6594,5.173,15.8091,8.1075,4.5938,2.6177,9.2016,5.1514,13.4111,8.3689l-4.211-3.2534c5.1435,3.9965,9.797,8.5618,14.795,12.7304,3.5822,2.9878,7.2591,5.9315,11.1782,8.4711,4.1388,2.6819,8.6964,4.5961,13.2977,6.3407l-14.5321-25.5946-.1383.3708,2.0975-4.9703c-.5276,1.191-1.2595,2.2429-2.0459,3.2762l3.2534-4.211c-3.5192,4.4637-7.5324,8.3933-10.7376,13.1363-2.9068,4.3014-3.4386,11.1626-2.0975,16.0327,1.3291,4.8263,5.0608,10.0565,9.5619,12.4347,4.8288,2.5513,10.6786,3.8301,16.0327,2.0975,5.3497-1.7312,9.2732-4.8837,12.4347-9.5619.26-.3847.5286-.757.8082-1.1277l-3.2534,4.211c1.7044-2.1705,3.6301-4.1519,5.4152-6.2542,4.1297-4.8634,6.5863-8.4456,8.7959-14.3717,1.7148-4.5991.5169-11.9776-2.0975-16.0327l-3.2534-4.211c-2.5961-2.5787-5.6565-4.3623-9.1813-5.3509-.5918-.2244-1.1769-.4577-1.7607-.702l4.9703,2.0975c-3.8175-1.6721-7.3047-3.896-10.615-6.4156l4.211,3.2534c-4.8082-3.7217-9.1829-7.9478-13.8057-11.8889-6.0504-5.1581-12.3307-9.5276-19.1953-13.4699-7.7464-4.4487-15.5336-8.4642-23.8192-11.8371-6.4613-2.6303-13.2636-4.2927-19.7136-6.9662l4.9703,2.0975c-7.1566-3.0521-13.2201-7.8963-19.8225-11.9321-7.2709-4.4444-15.1402-7.841-23.2988-10.2914-1.2481-.3749-2.5074-.7192-3.7836-.9853-3.0449-.635-6.2752-1.2406-9.4011-1.201-8.5896.1088-15.854,3.8674-21.0463,10.588-4.6708,6.0456-7.8593,13.2-11.1348,20.069-3.3807,7.0896-8.139,13.2678-12.7058,19.6117-4.7004,6.5295-9.3383,13.0611-14.2043,19.4729-4.8004,6.3253-9.5196,12.7731-12.9363,19.9722-1.7155,3.6146-3.2021,7.3314-4.8604,10.9718-1.6499,3.622-3.6348,6.9946-5.6236,10.4334-8.4623,14.6327-14.3397,30.7402-24.7141,44.2338l3.2534-4.211c-3.9075,4.9918-8.0414,9.7969-11.6542,15.0188-2.8595,4.1331-5.4485,8.4497-7.8426,12.8672-4.6321,8.547-8.3977,17.4702-12.1722,26.4174l2.0975-4.9703c-2.1328,5.0363-4.2675,10.3757-7.5875,14.7684l3.2534-4.211c-.4631.5853-.9446,1.1322-1.5165,1.6134l4.211-3.2534c-.2612.1978-.5203.3658-.8164.5065l4.9703-2.0975c-.1259.0541-.256.0949-.3902.1225-3.2834.8447-6.7918,2.9614-9.1813,5.3509-3.2541,3.2541-5.1168,7.4394-5.7225,11.9469-.5114,3.8061-.0738,7.2413,1.4204,10.782.4943,1.7624,1.3861,3.2926,2.6754,4.5906,1.4671,2.2651,3.413,4.0514,5.8377,5.3589,2.5582,1.9184,5.1164,3.8369,7.6746,5.7553l21.003-35.9317c-8.568-4.1879-17.3135-8.1287-24.9411-13.9391l4.211,3.2534c-5.8705-4.5778-10.7174-10.3025-16.0394-15.4773-6.5223-6.3419-13.8826-11.8362-21.3624-16.9968-6.0968-4.2065-12.4319-8.0754-19.0115-11.4806-7.8953-4.0862-16.2106-7.0531-24.3895-10.471l4.9703,2.0975c-4.2526-1.8563-8.3809-3.9615-12.7505-5.5582-5.6234-2.0548-12.3019-2.368-18.0671-.6911-10.143,2.9502-17.2097,10.899-22.1457,19.8573-3.4204,6.2077-6.8996,12.3777-11.1465,18.0683-4.2301,5.668-8.4023,11.3596-12.3133,17.2554-7.8141,11.7795-14.7932,24.1181-20.7312,36.9487-3.5984,7.7753-6.9702,15.6977-9.9065,23.7488-4.0187,11.0192-1.185,23.2373,7.0168,31.5293,3.2025,3.2377,7.1855,5.8047,10.9893,8.3027,3.4025,2.2345,6.8493,4.4,10.2923,6.5712,6.9907,4.4084,13.9578,8.8609,20.5166,13.9002l-4.211-3.2534c14.0972,10.9581,28.0703,22.0703,42.2301,32.9524,12.0282,9.244,25.2856,16.7172,37.3112,25.9578l-4.211-3.2534c10.0724,7.8251,19.3582,16.6716,30.16,23.5398,4.499,2.8606,9.6079,4.4227,13.9185,7.5796,3.3942,2.4858,6.6151,4.2025,10.6346,5.7108,4.0968,1.5373,8.5406,1.2206,12.8189,1.649l-5.5312-.7432c.6659.1119,1.2305.2568,1.8629.4936l-4.9703-2.0975c.4618.232.848.4714,1.2611.7812l-4.211-3.2534c1.0694.9314,1.8346,2.1149,2.8415,3.102,4.7024,4.6104,10.9444,7.397,17.5505,7.5476,8.1159.1849,14.4043-3.8289,20.3454-8.7988,2.4109-2.0168,4.5475-4.3478,6.667-6.6612,2.5168-2.747,5.1805-5.3549,7.8107-7.9927,6.8296-6.8491,13.7024-13.639,20.675-20.342,3.3762-3.2456,6.7124-6.542,9.8072-10.0601,4.2146-4.7911,7.9766-9.9914,11.7736-15.1167,11.9242-16.0954,23.9125-32.1578,35.7238-48.336,5.9124-8.0983,11.7004-16.2898,17.2229-24.6599,5.2811-8.0042,9.6766-16.5001,14.4716-24.7923,5.5713-9.6347,12.22-18.614,18.7604-27.6046,6.901-9.4862,13.9826-18.8389,21.1536-28.1222l-3.2534,4.211c4.6964-6.0736,9.4012-12.1455,14.1984-18.1401,5.2805-6.5985,11.227-12.5225,16.2958-19.3171,4.1653-5.5835,7.6025-11.759,11.4171-17.5869,3.9607-6.0512,8.067-12.0066,12.4819-17.7368l-3.2534,4.211c5.5086-7.0908,11.6404-13.6665,16.5988-21.1841,2.8776-4.3628,3.4543-11.1056,2.0975-16.0327-1.3291-4.8263-5.0608-10.0565-9.5619-12.4347-4.8288-2.5513-10.6786-3.8301-16.0327-2.0975-5.3187,1.7212-9.3362,4.8642-12.4347,9.5619Z" style="fill:currentColor; stroke-width:0px;"/><path d="M961.0823,676.6786c-13.4-2.0362-26.7097-4.2241-40.1985-5.568-3.5217-.3509-7.0351-.0828-10.5592-.2792-4.1712-.2324-8.2562-.8259-12.4471-.9175-11.6683-.2552-23.381.0496-35.0517.0496-10.0939,0-20.2615.3768-30.3437-.0819-7.6892-.3499-15.2553-.8999-22.9636-.874-14.4332.0484-28.9025-.2456-43.191,1.7052-4.3439.593-8.8456.7151-13.2169,1.1694-2.8149.2925-5.614.898-8.3981,1.4142-7.162,1.3279-13.7639,3.678-20.6098,6.0314-3.7875,1.302-6.4804,3.6263-9.6153,6.2255-2.9867,2.4763-6.291,5.3981-8.8165,8.3434-2.6331,3.0708-5.4883,6.0767-7.485,9.6238-2.1912,3.8925-3.3484,8.2812-4.7503,12.4932-1.6307,4.8992-3.0923,9.6431-5.5424,14.195-1.9939,3.7045-3.413,7.6094-4.3325,11.7029-.9341,4.1585-1.0385,8.681-.4641,12.9095.8537,6.2848.7459,12.3923.7459,18.7409v24.0005c0,6.9862-.6184,14.212.7459,21.0219.7417,3.7021.2134,7.8388.2134,11.5835,0,3.5946.0253,7.1902.0034,10.7846-.0164,2.685.0566,4.8907.9465,7.4499.833,2.3955,2.1692,4.9313,2.6995,7.4037.6245,2.9119.5698,4.9504,1.8742,7.748,1.1023,2.3641,2.3721,3.9382,4.0473,5.9179,2.2777,2.6916,3.9461,4.3562,7.3431,5.7799,4.84,2.0284,10.1385,3.8914,15.1964,5.1959,8.9761,2.3152,18.2367,4.0138,27.3667,5.6194,11.5762,2.0358,23.0069-.8451,34.5813-.3058,4.8387.2255,9.455,1.0238,14.3468,1.0021,4.6673-.0206,9.2652.1398,13.9083-.4404,4.945-.6179,9.6491-1.5324,14.6508-1.497,2.9316.0207,5.918.1898,8.8472.0718,2.9128-.1174,5.673-.9336,8.5876-1.0362,5.105-.1797,10.1937-.9988,15.296-.9541,5.4831.048,10.9669.0222,16.4502.0222,7.7778,0,15.3061-1.0057,23.0557-.9627,5.5641.0309,10.9852-1.2797,16.4721-1.9648,2.4589-.307,5.1923.1283,7.6796.0718,3.1229-.0709,5.8904-1.2774,8.9468-1.8324,3.6504-.6629,7.3806-.9181,11.0262-1.5585,2.4232-.4257,4.6963-.2892,6.9097-1.3817,2.2224-1.0969,5.1956-2.4316,7.2476-3.8612,2.3525-1.6389,4.3693-4.0133,6.6656-5.7814,4.0876-3.1474,6.961-8.4472,8.377-13.3075.7647-2.6249,1.8646-5.2688,2.3163-7.9518.7573-4.4977.0725-9.6512.0725-14.2352,0-8.9368-.9529-17.6678-.9593-26.5687-.003-4.1716-.0239-8.3441.0222-12.5154.0381-3.4449-.8712-6.6684-1.0037-10.0695-.2139-5.4935.0274-11.0504.0222-16.549-.0046-4.8483-.9729-9.0094-.9593-13.8704.0137-4.8876-.7609-9.4925-.9371-14.3674-.1164-3.22-1.0042-6.1811-.9781-9.4447.0184-2.3114-.0021-4.6238-.0034-6.9353-.0051-9.1763-1.1619-20.1462-6.9064-27.7636-3.34-4.4289-8.5373-5.9251-13.6829-7.2196-3.17-.7975-6.044-1.0826-9.1955-1.6772-2.3477-.4429-4.5634-1.381-6.8635-1.7581-5.0256-.824-10.2015.5752-15.1081-.6997-7.3281-1.9041-15.5087-1.1694-23.0696-1.1694" style="f; stroke-width:0px;"/><path d="M964.5825,663.9822c-3.851-.6519-7.8842-1.0152-11.546-2.3856-3.6781-1.3766-7.3603-2.7428-11.0548-4.075-7.279-2.6248-14.5788-5.3391-22.1629-6.9304l5.0344,2.1245c-1.8405-.787-3.6844-1.5659-5.5318-2.3367-2.0539-.5011-4.126-.7576-6.2166-.7696l5.6625.7609c-4.0784-.5582-8.0497-1.6217-12.0868-2.3993-1.9541-.3764-3.9333-.6324-5.8829-1.001-4.1728-.789-8.3155-.9409-12.5267-1.1157-8.6665-.3598-17.3387-.5622-26.0061-.8984-8.4317-.3271-16.8741-.4119-25.2968-.9506-8.5979-.55-17.151-1.6567-25.7599-2.0643-8.5311-.4039-17.045-.6656-25.5855-.4734-4.2055.0947-8.4098.2822-12.6027.6265-4.2539.3493-8.4769.9551-12.7372,1.2345-10.5605.6927-21.2247,1.9271-31.4461,4.7867-3.8712,1.083-7.6819,2.3664-11.4937,3.6391-3.8038,1.2701-7.6259,2.7202-11.0998,4.7355-3.4413,1.9965-6.554,4.7127-9.6419,7.1615-3.3989,2.6954-6.7358,5.5081-9.7023,8.6819-4.3637,4.6687-8.6587,9.8402-12.1526,15.1323-2.4356,3.6892-4.0962,8.2346-5.6729,12.23-.8211,2.0807-1.4997,4.2077-2.1727,6.3397-1.3625,4.3167-2.7145,8.6631-4.4649,12.8413l2.8523-6.7589c-1.0403,2.4195-2.3419,4.7068-3.4043,7.1152-1.9943,4.5208-4.0544,9.0827-5.2547,13.8971-1.1926,4.7835-1.8525,9.7654-2.0661,14.6872-.2194,5.055.7449,10.0693,1.4164,15.0537l-1.0072-7.4959c.6684,5.296.7178,10.6252.727,15.9555.0096,5.601.0332,11.2021.0511,16.8031.0173,5.401.0274,10.7981-.0529,16.1986-.039,2.6223-.0514,5.2479.1039,7.867.2958,4.9887,1.1946,9.9166,1.9679,14.846l-.9999-7.4411c.3754,2.9103.1841,5.8277.1026,8.7496-.0854,3.0617-.0016,6.1306.0085,9.1931.0049,1.4851-.0143,2.971.0053,4.456.0489,3.7195.6688,7.4504,1.2719,11.1049.4532,2.7467,1.7721,5.1899,2.7151,7.7799.8935,2.4539,1.0274,5.0327,1.6849,7.54,1.189,4.5336,3.2241,9.1758,6.0556,12.9732,2.6326,3.5306,5.4274,7.5839,8.7691,10.6011,1.2025,1.0857,2.5853,2.0581,3.8416,3.0287,1.2683.9799,2.5534,2.0868,3.9417,2.9453,2.9762,1.8404,6.4447,2.9645,9.6464,4.2803,11.231,4.6156,23.0431,7.1122,34.9482,9.2921,8.2383,1.5085,16.5559,3.1113,24.9603,2.9802,6.0431-.0942,12.0508-.8529,18.0882-1.0699,6.753-.2427,13.3829.9711,20.1163.9923,3.4299.0108,6.8715.0639,10.2978-.1184,5.7725-.3072,11.4849-1.3647,17.2067-2.1518l-7.3543.9882c4.1105-.5523,8.14-.7139,12.283-.6233,2.0189.0442,4.0548.1076,6.0697-.0567,4.353-.3549,8.6389-1.191,12.9576-1.7894l-7.3469.9872c2.3466-.2871,4.7241-.3154,7.0804-.5185,2.3649-.2039,4.7277-.4442,7.0989-.5654,4.8586-.2483,9.7587-.0545,14.6234-.0658,4.7379-.0109,9.4547-.0648,14.1849-.3621,4.7529-.2988,9.4901-.6052,14.254-.6387,7.7189-.0543,15.3437-1.8539,22.97-2.8961l-7.3243.9842c1.724-.2237,3.4259-.1814,5.1585-.094,4.1995.2117,7.8563-.3484,12.1764-1.059,3.5271-.5801,6.9023-1.7073,10.4604-2.1935l-7.3179.9833c5.3599-.7071,10.714-1.4598,16.0686-2.1969l-7.3152.9829c2.0579-.2477,4.1036-.5054,6.1612-.7819,2.0277-.2725,4.1167-.4127,6.0801-1.0369,3.6514-1.1608,7.3085-3.0207,10.7831-4.7672,4.9204-2.4732,9.2605-6.0019,13.2609-9.7615,1.1693-1.099,2.3975-2.1062,3.6161-3.1469,2.8775-2.4575,5.0861-5.7999,7.2978-8.791.9429-1.2752,1.78-2.6125,2.5026-4.0251,1.7473-3.4158,3.2605-7.0285,4.506-10.654,1.873-5.4522,2.839-11.4827,3.2701-17.1675.2718-3.5852-.2871-7.1828-.6791-10.7376-.4266-3.868-.6656-7.7519-1.1176-11.619-.4625-3.9567-.9944-7.9051-1.4222-11.8658-.4846-4.4865-.77-8.9914-1.0775-13.4928-.1471-2.1534-.2165-4.3233-.4538-6.4687-.3212-2.9043-.6813-5.8703-1.2661-8.753-.2298-1.1328-.5113-2.2131-.6675-3.3611l.8128,6.0489c-.5677-4.5198-.3735-9.1454-.3292-13.6909s-.1237-8.9671-.6106-13.485c-.4885-4.5334-.4414-9.0932-.8754-13.6346-.2111-2.2096-.3979-4.4155-.522-6.6317-.2301-4.1078-1.0358-8.1688-1.5959-12.2413l.8036,5.9801c-.8937-7.1795.1453-14.466-.0549-21.662l-.8373,6.2309c.3027-2.2271.6022-4.4546.8985-6.6825-.2422-2.2483-.5474-4.4873-.9155-6.7169l.8419,6.2658c-.5983-5.896-.8971-11.9779-2.8424-17.6252-1.2699-3.6865-2.712-7.447-4.7295-10.8054-1.5397-2.563-3.5191-4.9496-5.4661-7.2018-.6571-.7601-1.3963-1.4285-2.1745-2.0612-3.2016-2.6031-6.1776-4.8776-9.7492-6.7867-3.7514-2.0051-7.708-3.466-11.8267-4.4868-2.1673-.5372-4.3739-.8795-6.5687-1.2803-2.2948-.4191-4.4504-1.1143-6.6874-1.7518-4.576-1.304-9.4644-1.8157-14.2239-1.7996-2.7037.0092-5.4001.1675-8.0909-.1825l7.3629.9894c-1.3697-.2168-2.6916-.616-4.0447-.9115-2.7709-.6053-6.8701-1.3854-8.9191-1.2872-2.9246.1401-6.158.7124-8.8533,1.116-1.3171.1972-2.6249.4295-3.9264.7131-.663.1445-1.3266.2933-1.984.4618-5.0463,1.2937-8.3141,3.5577-12.1242,6.9886,5.9769-2.4757,11.9539-4.9515,17.9308-7.4272-1.313-.0259-2.6142.1248-3.9038.4521-1.2966.1612-2.5911.3372-3.8836.5278-2.0455.4915-4.683,1.8694-6.8703,2.9599-.762.3799-1.5206.7668-2.2789,1.154-.7528.3844-1.5049.7701-2.2594,1.1511-3.6814,1.8591-7.1035,4.9796-9.0902,8.585,6.0822-3.4887,12.1644-6.9774,18.2466-10.4661l-.5165.0011c-5.4255.0115-11.1022,2.3492-14.9424,6.1893-2.0607,1.914-3.5171,4.181-4.3694,6.8008-1.3231,2.5183-1.9297,5.2322-1.82,8.1416.2448,5.4652,2.04,11.1333,6.1893,14.9424,4.1294,3.7907,9.221,6.2015,14.9424,6.1893l.5165-.0011c-6.0822-3.4887-12.1644-6.9774-18.2466-10.4661.4857.8824,1.0907,1.6856,1.8151,2.4094,1.5219,2.3497,3.5405,4.2028,6.0559,5.5592.4003.2008.8132.383,1.2193.5716.7518.3492,1.506.6933,2.2594,1.0389.7608.349,1.5214.6986,2.2789,1.0548,5.3135,2.4986,8.6588,3.9123,14.6578,3.9212l-17.9308-7.4272c3.4057,3.1463,7.1169,5.5292,11.6271,6.8714.4116.1225.829.227,1.242.3449.9118.2602,1.8193.5355,2.7197.8327.8219.2713,1.6384.5603,2.4457.8725,3.1544,1.22,6.4734,1.2312,9.8805,1.679l-7.3838-.9922c5.2479.8905,10.4959,2.1255,15.851,1.9597,3.0653-.0949,6.1124-.4181,9.17-.0147l-7.3044-.9815c1.8352.3007,3.5925.886,5.3952,1.3255,1.7584.4287,3.5641.6416,5.3537.8961,1.8058.2569,3.6047.5402,5.3837.9471,3.8382.8779,7.3722,2.1183,11.4899,1.9521l-7.1767-.9643c1.6995.3333,3.3598.7689,4.968,1.4176l-6.2951-2.6566c1.1977.5161,2.3194,1.1332,3.3761,1.8983l-5.236-4.0453c1.2915.9982,2.3824,2.173,3.3972,3.4471l-3.9509-5.1137c1.7211,2.2365,3.0938,4.6786,4.2159,7.2646l-2.4416-5.7856c.4433,1.0538.8539,2.119,1.2231,3.2011.1708.5006.3592,1.0055.4919,1.5177.6232,2.4055,1.6646,4.6459,2.7407,6.9088l-2.3628-5.599c.7337,2.7162,1.2884,5.4727,1.7035,8.2549l-.8013-5.9633c.0767,2.6938.0331,5.3943.0179,8.0889-.0269,4.7712.7576,9.4154,1.4243,14.1414l-.8041-5.9842c.5731,4.3017.7284,8.7408,1.0143,13.0745.1462,2.2158.0926,4.4304.1952,6.6463.1017,2.1954.3698,4.3778.5749,6.5648.4093,4.364.2227,8.7318.1474,13.1069-.038,2.2077-.0618,4.4159-.0252,6.6237.0683,4.1165.7102,8.1189,1.2966,12.2064l-.8129-6.0498c-.1154,2.3244.1703,4.6341-.0126,6.9757-.1924,2.4641-.3636,4.9297-.5321,7.3955-.3302,4.8316-.5834,9.6527-.6702,14.4955-.0859,4.7949-.1149,9.593-.3892,14.3821-.256,4.4701-.1511,8.9987-.7191,13.4433l.9565-7.1183c-.3586,2.4786-1.1167,4.757-2.0615,7.07-.8671,2.1225-1.4981,4.3179-2.3663,6.4379l2.7698-6.5635c-.9466,2.2219-2.1099,4.3187-3.5531,6.2575l4.2976-5.5625c-1.3079,1.6902-2.8054,3.0119-4.4349,4.3737-1.7654,1.4754-3.3427,3.1575-5.1427,4.5941l5.5656-4.3c-2.5589,1.9435-5.5855,3.3185-8.5011,4.6392l6.5718-2.7733c-.9481.3607-1.8989.5746-2.9019.7216l7.3144-.9828c-4.5395.5673-9.066,1.2168-13.5975,1.837l7.3164-.9831c-5.1081.6723-10.2494,1.1638-15.3235,2.0638-2.5928.4599-5.0799,1.3678-7.6885,1.75l7.3213-.9838c-3.1604.362-6.3272-.3103-9.4887.0743-5.6589.6885-11.2593,1.6611-16.9035,2.4219l7.3272-.9846c-5.6408.7219-11.372.5039-17.0467.8564-5.7324.3561-11.4253.5511-17.1686.5513-5.7808.0001-11.6066-.2531-17.3751.168-2.7323.1995-5.4572.4965-8.1927.6525-5.1801.2954-10.2817,1.184-15.4154,1.8951l7.3482-.9874c-4.1155.506-8.2602.0227-12.3899.1253-6.3666.1581-12.6897,1.3825-18.9844,2.2421l7.3556-.9884c-5.3494.7157-10.7239.6938-16.1117.6359-5.1647-.0555-10.2736-.9627-15.4361-1.0737-10.4458-.2246-20.8444,1.962-31.276.5824l7.3751.991c-7.6318-1.1037-15.2625-2.6848-22.7787-4.3978-7.3396-1.6727-14.4724-3.8216-21.4231-6.7269l6.6398,2.802c-1.2946-.5606-2.5051-1.2236-3.6366-2.0686l5.6279,4.3481c-1.9767-1.5594-3.59-3.5445-5.1423-5.5124l4.3519,5.6328c-1.1128-1.4486-2.051-2.9661-2.7898-4.6392l2.8074,6.6526c-1.1191-2.7967-1.1196-5.8115-2.0048-8.6655-.9417-3.0362-2.5167-5.7981-3.0179-8.9704l.9969,7.4191c-.3138-2.4312-.2013-4.8882-.1918-7.3332.0099-2.5543.0002-5.1087.0124-7.6629.0114-2.3891.2029-4.7732.2052-7.1621.0047-4.801-1.0409-9.5228-1.734-14.2567l1.0002,7.4438c-.6092-4.5708-.5237-9.1767-.4141-13.7756.1111-4.6647.1024-9.3301.1173-13.9959.0302-9.4337.4239-18.9522-.124-28.3741-.3015-5.1848-1.1859-10.1659-.5487-15.3716l-1.0084,7.5048c.5202-3.7786,1.6222-7.4566,3.0939-10.9702l-2.8496,6.7524c.9758-2.2555,2.2113-4.3746,3.2295-6.6086,1.9865-4.3587,3.8518-8.8033,5.4231-13.3341,1.6149-4.6565,2.9196-9.4524,4.8152-14.0052l-2.859,6.7748c1.0923-2.5297,2.4676-4.8343,4.144-7.0196l-4.4387,5.7452c4.9698-6.3294,10.7247-11.8604,17.0418-16.8322l-5.747,4.4401c1.6889-1.3006,3.4474-2.4369,5.4111-3.2796l-6.769,2.8566c9.2144-3.6768,18.9425-6.5003,28.7676-7.9231l-7.4587,1.0022c2.7311-.3633,5.4829-.5427,8.2272-.7742,5.0692-.4275,10.094-1.1986,15.1343-1.8833l-7.4189.9969c8.2663-1.0903,16.5968-1.4965,24.9276-1.6702,8.3374-.1739,16.6672-.7431,25.0087-.7615,8.2216-.0181,16.4323.2401,24.6522-.0616,8.2551-.3031,16.5064-.7777,24.7585-1.156,4.7134-.2161,9.4254-.4639,14.1385-.686,2.2621-.1066,4.5244-.2076,6.7872-.2964,4.354-.1707,8.8062-.0584,13.0516-1.1683l-6.269.8424c3.3767-.3744,6.7376-.6077,10.1328-.7238,1.6228-.0555,3.2461-.1098,4.8663-.22.8344-.0568,1.6637-.1524,2.4963-.2266.3729-.0332.739-.0432,1.1115-.0673,2.9318.1106,5.6665-.5007,8.2042-1.834.9965-.4196,1.9927-.8401,2.9884-1.2616l-5.0344,2.1245c1.7447-.3673,3.4869-.7368,5.2513-.9986l-5.2982.7119c5.2836-.7011,10.6317-1.0605,15.9464-1.4394,5.282-.3766,10.59-.8096,15.8839-.9565l-3.5434-.4761c1.5473.2376,3.1031.4446,4.6579.6271l-3.5381-.4754c2.801.3831,5.6019.7676,8.4035,1.1461,1.7501.5487,3.5002.6271,5.2503.2352,1.7523-.0795,3.384-.6003,4.8954-1.5625,2.7312-1.5983,5.3359-4.7299,6.0509-7.8688.7677-3.3705.6016-7.1539-1.3273-10.1457-1.7503-2.7148-4.5487-5.4888-7.8688-6.0509h0Z" style=" stroke-width:0px;"/><path d="M756.8371,624.2365c.576-1.5985,1.134-3.2033,1.6844-4.8108l-1.3943,3.304c.6651-1.5276,1.3809-2.9977,1.7262-4.6232.1181-.5561.2357-1.1122.3533-1.6684.2476-1.1708.4952-2.3416.7473-3.5115.2409-1.1175.4859-2.2342.739-3.349.5762-2.538.8061-5.1295,1.1491-7.7086l-.601,4.473c.8542-6.3205,1.9714-12.8042,4.4361-18.7215l-1.9384,4.5932c1.4034-3.2878,3.2784-6.3268,5.345-9.2354,2.1236-2.9887,4.1532-6.0557,6.387-8.9643l-3.3685,4.36c3.0529-3.9377,6.5346-7.5033,10.4776-10.5548l-4.6103,3.5619c3.9201-2.9965,8.3359-5.4431,12.7783-7.5744,4.5239-2.1705,9.1861-4.0652,13.8032-6.0266l-5.7179,2.413c7.6237-3.2018,15.6138-5.0005,23.7854-6.1151l-6.5181.8758c8.6448-1.1581,17.3417-1.4807,26.0502-1.7519,8.7192-.2715,17.4437-.1952,26.1656-.1843,4.5999.0057,9.2886-.5804,13.8645.0344l-6.6547-.8942c3.373.5077,6.5683,1.7779,9.6941,3.0962l-5.9799-2.5235c3.9182,1.6614,7.8023,3.4147,11.7787,4.9328,2.0282.7743,4.0797,1.4857,6.0856,2.3175l-5.9799-2.5235c2.3456.9911,4.5907,2.1629,6.6269,3.7008l-5.0664-3.9142c2.3272,1.8029,4.334,3.9509,6.1408,6.2681l-3.9142-5.0664c1.6571,2.1544,2.7736,4.5818,3.9883,6.997.5874,1.168,1.2064,2.3258,1.9504,3.403,1.5368,2.2253,3.1801,4.3942,4.966,6.4243.4548.5171.9305,1.0069,1.3538,1.552l-3.9142-5.0664c.6779.9157,1.2278,1.8925,1.6812,2.9371l-2.5235-5.9799c.9901,2.394,1.4294,4.9466,1.8972,7.4811.537,2.9093,1.224,5.7925,1.6255,8.7255l-.8942-6.6547c.3709,2.8839.5872,5.6505,1.3005,8.4152.1831.7095.3406,1.4247.4743,2.1451.1191.642.2338,1.2783.4115,1.9066.6765,2.0702,1.5152,4.0794,2.5162,6.0276l3.7475,4.8505c.2019.2311.4064.4567.5978.6969l-3.6152-4.6793c.2978.3982.5595.8008.7579,1.2581l-2.2038-5.2222c.0981.2664.1833.5246.2246.8056l-.7551-5.6194c.0193.211.0202.4189.0267.6302.1512,4.9469.8131,6.1208,2.8323,10.5173l-2.7741-10.2554.0046.1737c-.1047,2.7748.4739,5.3631,1.7358,7.765.8128,2.4986,2.2019,4.6606,4.1672,6.4862l4.0789,3.1514c3.1435,1.8231,6.5342,2.7403,10.1722,2.7516l.1602-.0089-5.4016-.7258c3.734,1.3329,8.0167.7867,11.7556-.102,3.8395-.9126,5.7173-2.3349,8.5266-4.5054,1.2211-.9434,2.399-1.7141,3.3883-2.8549,3.0305-3.4947,5.1985-6.2636,6.3779-10.8381.6191-2.4011.7335-4.898,1.0523-7.3546l-.8645,6.4337c.4603-3.3975,1.075-6.7797,1.3638-10.1982.2894-3.4255-.5987-6.8689-1.1879-10.2462-.4469-2.5616-1.0132-5.1019-1.4851-7.6591-.4153-2.25-.8749-4.4787-1.7365-6.6064-.9789-2.4172-1.8818-4.9369-3.1273-7.2396-.2477-.458-.5217-.9012-.8219-1.3266-1.5055-2.1335-3.0805-4.2628-4.8283-6.214-.4211-.4701-.849-.9215-1.2403-1.418l3.9142,5.0664c-1.8914-2.4979-3.0039-5.4411-4.513-8.1632-1.6933-3.0544-4.094-5.8046-6.2319-8.4888-1.0451-1.3122-2.1636-2.5683-3.3754-3.7292-2.6637-2.552-5.6591-4.8325-8.7166-6.8715-1.3996-.9334-2.9008-1.7109-4.4362-2.3946-3.4984-1.5578-7.0313-3.0323-10.6231-4.3579-1.6905-.6239-3.3742-1.2579-5.0356-1.9563l5.9799,2.5235c-5.0194-2.1229-9.9853-4.5859-15.2253-6.1419-3.6798-1.0927-7.5761-1.4909-11.3738-1.8368-1.6809-.1531-3.3721-.1396-5.0574-.0867-7.1002.2226-14.1939.1453-21.2974.1724-7.3253.0279-14.6587.1066-21.9581.7629-9.1839.8257-18.405,2.0044-27.4277,3.9373-8.3148,1.7812-16.1175,4.7388-23.8427,8.3031-5.7824,2.6679-11.6422,5.397-17.14,8.6169-3.0155,1.7661-5.7199,3.8219-8.4687,6.0139-1.2015.9581-2.3794,1.9432-3.4893,3.0073-3.5599,3.4132-6.5613,7.4042-9.4779,11.357-4.7507,6.4384-8.0592,13.9644-11.023,21.3455-3.013,7.5036-4.4093,15.4686-4.4179,23.5633-.0038,3.5406.238,7.0777.6008,10.5983.3208,3.1133.599,6.26,1.3282,9.2995.4024,1.6772.8227,3.3501,1.247,5.0219.1979.7797.3969,1.5592.5955,2.3388.5123,2.0117,1.0741,3.6279,2.0335,5.6239l-1.3943-3.304c.6082,1.5995,1.2089,3.2018,1.7916,4.8108l1.2126,2.8734c.7559,1.4018,1.7886,2.5267,3.0981,3.3749.7504.7454,1.6351,1.261,2.654,1.5467,1.4335.7531,2.9783,1.0985,4.6345,1.036,2.1354-.0956,4.1813-.6438,6.0712-1.6423,2.8038-1.4814,4.4983-4.3312,5.528-7.1888h0Z" style=" stroke-width:0px;"/><path d="M840.2095,728.3052c-.225-.0188-.448-.0422-.6721-.0702l2.8648.3849c-.5117-.0736-1.0179-.1692-1.5199-.2928l4.8058,2.8008c-.6615-.5198-1.1778-1.2919-1.7582-1.9014-2.1901-2.3001-4.8857-4.1373-8.006-4.9121-2.0917-.5194-4.1574-1.1488-6.2733-1.5668-2.3885-.4719-4.8203-.8092-7.2469-.9867-2.525-.1847-5.0526.2391-7.5201.7739-1.9967.4327-3.9071,1.277-5.9354,1.5618l4.7964-.6445c-2.1902.2714-4.3879.4709-6.5648.8582-3.671.6532-6.9771,2.93-9.6826,5.358-2.9532,2.6503-4.3875,5.7947-5.7045,9.4239-.0925.2549-.1626.5016-.2171.7669-.186.9055-.8187,4.1292-.7001,5.9757.1172,1.8245.3144,4.6484,1.0895,6.6708l.966,2.289c.3208.8267.6669,1.6423,1.0384,2.4467.084.1499.1762.2959.2722.4384,1.0715,1.591,2.2622,3.1112,3.5183,4.5602,1.4021,1.6174,3.3504,2.8993,5.0589,4.0502.5797.3905,1.2042.7121,1.8396,1.0005,2.6671,1.2105,5.4655,2.5455,8.3916,3.0859,2.9834.551,6.0494,1.002,9.0954,1.0873,4.6018.1289,9.2929-.6665,13.807-1.3425,3.4344-.5143,6.8335-1.2277,10.2762-1.6928l-5.3533.7193c.6651-.0882,1.3308-.1711,1.9976-.245,1.1687-.1297,2.3158-.2913,3.4905-.4492,1.1035-.1483,2.3744-.2525,3.5149-.5048.5216-.1154,1.0302-.2797,1.5288-.4704,1.0131-.3875,2.0214-.8407,3.0093-1.2576,3.159-1.3331,1.9486-.604,4.6451-2.6873,1.3908-1.0746,1.5859-1.0351,2.2749-1.8472.1486-.1751.2993-.3483.4491-.5223.0769-.0892.1507-.1793.2253-.2703l3.0755-3.9807,1.9828-4.6985.7026-5.2287c.0748-.8929-.0394-1.7806-.3426-2.663-.0055-1.7595-.4491-3.3994-1.3308-4.9198-.4631-1.6513-1.2987-3.085-2.5068-4.3013-2.028-2.6249-.9348-1.5249-3.571-3.5616-1.2271-1.2188-2.6736-2.0619-4.3396-2.5291-1.5339-.8896-3.1884-1.3372-4.9636-1.3427-1.3809-.1856-2.6102-.4049-3.9636-.399l-5.3999.7256-4.8523,2.0477c-.1359.0628-.2716.1255-.4069.1897-.2452.1165-.4926.2272-.7426.3328l4.8448-2.0445c-1.6359.6618-3.4235.8205-5.1436,1.1645-1.8266.3654-3.6398.7881-5.4492,1.2301-2.8641.6997-5.7403,1.357-8.6633,1.7608l5.2344-.7033c-2.6949.3614-5.4304.5195-8.1355.1729l5.1694.6946c-1.4217-.1952-2.8125-.5318-4.1412-1.0791l4.6145,1.9473c-.7121-.3044-1.4151-.6457-2.0307-1.1202l3.8955,3.0096c-.4312-.3513-.8109-.7453-1.1538-1.1829l3.0019,3.8854c-.4422-.5937-.8768-1.1894-1.1694-1.8734l1.9114,4.5294c-.1195-.3079-.2098-.6157-.2675-.9413l.6726,5.0058c-.0426-.3225-.0497-.6334-.0136-.9571l-.6681,4.9717c.0451-.2734.1155-.5271.2187-.7839l-1.8743,4.4415c.1002-.2144.2135-.4115.3472-.6068l-2.8927,3.7441c.1373-.1751.2835-.3251.453-.4691l-3.7264,2.879c.3692-.2795.7699-.4848,1.194-.6675l-4.3545,1.8376c2.091-.8612,4.2456-1.5913,6.2555-2.6343.8198-.4254,1.6011-.9207,2.383-1.4109,1.6097-1.0091,3.2855-1.9217,5.0287-2.6801l-3.9631,1.6725c2.3603-.9937,4.8529-1.5515,7.3402-2.1229.5891-.1353,1.1778-.2724,1.7643-.4185.7419-.1848,1.1248-.4184,2.022-.797.7098-.2995,1.346-.4738,1.9485-.8691.2402-.1576.4703-.328.715-.4793.8355-.5163,1.7306-.9243,2.5985-1.3811l-2.6275,1.1088.1916-.0677-2.8952.389c.7429.0516,1.4781.0858,2.2225.042,1.4771.0557,2.8549-.2523,4.1334-.924,1.33-.4327,2.4809-1.1721,3.4527-2.2183,1.0462-.9717,1.7856-2.1226,2.2183-3.4527.6717-1.2785.9797-2.6563.924-4.1334-.1243-2.7746-1.0357-5.6523-3.1423-7.5861l-2.1713-1.6775c-1.6733-.9705-3.4783-1.4587-5.4148-1.4647h0Z" style="fill:currentColor; stroke-width:0px;"/><path d="M815.5969,764.3166c-.1211.2447-.2645.4687-.4278.6875l1.7685-2.289c-.08.1001-.1632.1937-.2482.2895-.3817.3877-.7179.8147-1.0086,1.2811-1.0345,1.1304-1.7328,2.4571-2.0949,3.9801-.1043.3322-.2098.6562-.3441.9781l1.191-2.8223c-.7553,1.7097-1.949,3.1714-3.0388,4.6736-1.1785,1.6245-2.0435,3.4243-3.0147,5.1754-1.1184,2.0163-2.3367,3.9764-3.3883,6.0276-1.0573,2.0623-2.1609,4.1008-3.312,6.1122-2.2905,4.0027-4.8272,7.8593-7.0907,11.8777-1.0835,1.9236-2.0528,3.8911-2.9896,5.8889-.5178,1.1041-1.1595,2.1517-1.7497,3.2177-1.434,2.59-2.6561,5.2881-3.6868,8.0664-.7069,1.9055-.8578,3.9557-1.0779,5.9631-.033.3008-.0569.5936-.0447.8966.0028.0687.0134.1357.0193.204.0962,1.1216.3083,3.032.5576,4.1215.0322.1409.0659.2771.1156.4132.463,1.9474,1.3559,3.6438,2.6786,5.0891,1.0552,1.6291,2.4548,2.9139,4.1987,3.8543l3.5748,1.5086c2.6522.7127,5.3043.7127,7.9565,0,.615-.146,1.2334-.2592,1.8596-.3448l-3.9942.5367c2.9878-.3701,5.9742-.0239,8.9687.0027,2.9977.0267,6.0039-.127,8.9854.2679l-4.1114-.5525c1.7694.2527,3.4827.7727,5.2059,1.2347,1.7031.4566,3.4031.9392,5.0367,1.6088l-3.7421-1.5792c1.6231.6855,2.9712,1.8244,4.5246,2.6346,2.1679,1.1307,4.4896,2.0405,6.7683,2.8977.5672.2134,1.144.406,1.7339.5463.2685.0639.5382.1115.8108.1528,1.4636.2218,3.0068.4691,4.4817.5958.1261.0108.2531.018.3797.0189.1214.0008.2402-.0069.3613-.0131.7455-.0763,1.4884-.175,2.2285-.2959.7429-.0946,1.4851-.1946,2.2266-.3.1095-.0221.2168-.0453.3247-.0737.0683-.0204.1355-.0442.2014-.0714l3.8-1.6036c.094-.0471.1869-.0916.2784-.1434.0583-.0368.1141-.077.1674-.1207l3.2215-2.4889c1.117-1.0981,2.1291-2.3555,2.8981-3.7182l-2.4909,3.224c.2114-.2141.4096-.4206.5993-.6559,1.0739-1.3317,2.1993-2.6725,3.1294-4.1177.2027-.3149.3915-.6412.5686-.971l.8767-2.0774c.7867-1.3564,1.1824-2.8195,1.1873-4.3893.134-.9969.2949-1.7019.3206-2.5859.0062-.2149.0085-.4299.0063-.6449-.0248-2.3854-.4983-4.9067-.8229-7.1975-.1292-.9119-.2994-1.8162-.5054-2.7139-.7916-3.4492-2.0725-6.7474-3.088-10.1305-1.2768-4.2537-2.1912-8.6009-3.1217-12.9398-.9504-4.4317-1.9553-8.855-2.868-13.2942-.5137-2.4986-.9753-5.0089-1.5261-7.4998-.0996-.4503-.2042-.9008-.3447-1.3405-.064-.2002-.1389-.395-.2156-.5906-.6348-1.6205-1.2701-3.3309-2.0781-4.8786-1.7595-3.3702-5.0327-6.4701-8.4143-8.1915-2.1084-1.3423-4.3848-2.0689-6.8293-2.1797-2.4415-.5468-4.883-.4374-7.3245.3281l-4.3878,1.8517c-2.1406,1.1543-3.8584,2.7312-5.1536,4.7309-1.1382,1.1459-1.9256,2.4968-2.3619,4.0527-1.1501,2.189-1.6774,4.548-1.582,7.0769l.6561,4.883c.8727,3.1117,2.4473,5.8135,4.7238,8.1053.0846.0969.1667.1959.2465.2969l-2.884-3.7329c.5051.6584.9855,1.4282,1.3251,2.1863l-1.882-4.4596c.6072,1.4475.8931,3.0433,1.2585,4.5637.4375,1.8204.8601,3.6444,1.3124,5.4612.8706,3.4969,1.8044,6.9784,2.6795,10.4746.8714,3.4812,1.7897,6.9474,2.865,10.372.9267,2.9514,2.0379,5.8152,3.1671,8.6924,1.2168,3.1004,2.3812,6.2737,2.8286,9.5906l-.6234-4.6393c.0621.4957.1107.9925.1335,1.4917.082,1.8004-.0117,2.8202.6362,5.1731.5662,2.056,1.2813,3.0144,1.9462,4.5729l-1.7284-4.0957c.2785.677.5225,1.377.6479,2.1003l-.5742-4.2733c.0139.1181.0224.2132.007.331l2.1749-8.0402c-.055.0975-.1088.1894-.1739.2804l2.4898-3.2227c-.0899.11-.1845.2055-.2938.2963l3.2211-2.4886c-.1435.1049-.2906.1867-.4538.2563l3.7995-1.6034c-.2127.0784-.426.1278-.6505.1597l4.225-.5677c-.4255.0453-.846.0251-1.2699-.0274l4.2187.5669c-1.7202-.2448-3.3561-.9298-4.952-1.5891l3.7675,1.5899c-1.0291-.4523-1.9677-1.0605-2.9357-1.626-.4527-.2645-.9124-.5178-1.3905-.7339-1.7084-.7719-3.4417-1.5496-5.2264-2.1394-2.2015-.7276-4.4852-1.1664-6.7391-1.6947-3.622-.849-7.3941-1.2428-11.1158-1.1523-2.4957.0606-4.9875.1958-7.4841.24-1.3993.0248-2.8006.0529-4.1944.1897-2.6232.2574-5.3584.5169-7.9035,1.2945,5.6333,2.2924,11.2666,4.5848,16.9,6.8772l-.0374-.0851,1.5083,3.5741c-.0843-.2181-.1363-.4366-.1692-.668l.5337,3.9716c-.0465-.4227-.0261-.8409.0271-1.262l-.5322,3.9609c.2011-1.3998.7088-2.7409,1.2517-4.0393l-1.4884,3.5271c.5756-1.3602,1.226-2.6854,1.8608-4.0184,1.1805-2.4787,2.1194-5.056,3.1812-7.5839l-1.4601,3.4599c1.9159-4.5161,4.3206-8.7937,6.5702-13.1466,2.7836-5.3862,5.4489-10.9768,7.2698-16.7596.7628-2.4223,1.293-4.9693,2.2754-7.3126l-1.2573,2.9794c1.0445-2.4502,2.2849-4.8395,3.0925-7.3815.5285-1.6634.7209-3.4913.8551-5.1998.2619-3.3365-1.7309-7.0832-4.1185-9.3991-1.3386-1.3296-2.9166-2.2493-4.7341-2.759-1.426-.4471-2.852-.511-4.278-.1916-1.4278.0647-2.7574.4891-3.9888,1.2731-1.6121.9538-2.8951,2.2367-3.8488,3.8488h0Z" style="fill:currentColor; stroke-width:0px;"/><path d="M548.3965,509.5702c-7.3339-3.7018-14.5409-7.2824-21.109-12.2784l3.57,2.7582c-6.0356-4.6834-10.7362-10.5148-15.7363-16.2332-4.9528-5.6642-10.3062-10.7544-16.1444-15.4962-14.0611-11.4204-29.525-21.8931-46.6516-28.1657l5.4362,2.2941c-3.3697-1.6412-6.3251-3.9579-9.5797-5.7998l4.925,3.8051c-.9585-.7912-1.9253-1.5109-2.9278-2.2855-2.9875-2.3082-4.5374-3.1388-8.642-4.4934-.5764-.1902-1.1543-.3685-1.746-.5055-2.566-.594-5.3235-.9435-7.9322-1.1286-.7437-.0528-1.4254-.0365-2.1685.0307-5.6625.5125-9.6714,1.4583-14.7664,4.0917-2.816,1.4554-5.3973,3.6218-7.7258,5.722-2.3213,2.0937-4.1382,4.8402-5.9854,7.3043-.8669,1.1564-1.6655,2.3437-2.3986,3.5896-1.5934,2.7078-3.0394,5.5026-4.6048,8.2273-6.7832,11.8068-15.6845,22.248-22.9984,33.7336-7.2604,11.4016-13.7306,23.3107-19.2347,35.6585-2.1171,4.7496-4.1388,9.5458-6.0842,14.368-1.2245,3.0352-2.6799,6.1493-3.4364,9.3414-1.4126,5.9607-1.8324,12.569.1289,18.4868.9057,2.7328,2.0269,5.7007,3.7245,8.0957,1.7053,2.4059,3.5122,5.0018,5.764,6.9783,6.6334,5.8224,14.3701,10.3517,21.8075,15.045,6.7744,4.2749,13.5144,8.6096,19.8713,13.4934l-4.9677-3.838c14.3491,11.153,28.5739,22.4608,42.9868,33.5363,12.0288,9.2435,25.2855,16.718,37.3115,25.9585l-4.9677-3.838c7.2691,5.647,14.1861,11.6707,21.5975,17.1537,2.9011,2.1462,5.8739,4.1977,8.9603,6.0694,4.7607,2.8871,9.9055,4.8396,15.0583,6.9315l-5.6559-2.3868c3.5086,1.4863,6.2962,3.9958,9.6364,5.7582,5.2001,2.7437,9.736,3.9862,15.5567,4.4732,1.8894.1581,3.7774-.0469,5.6609.1933l-6.1293-.8236c.4254.0638.8394.1713,1.242.3224l-5.4919-2.3176c.4731.2079.8714.4266,1.2999.7146l-4.6374-3.5828c.8783.689,1.5748,1.5103,2.3469,2.3087,1.8612,1.9246,4.0466,3.5655,6.3169,4.9725,3.9536,2.4501,9.1551,3.5925,13.7705,3.5989,4.5277.0062,8.6866-1.382,12.6664-3.4296,6.5065-3.3477,12.2194-9.8728,16.3441-15.7955l-3.4059,4.4084c9.7283-10.4425,19.9864-20.3997,30.2496-30.3136,6.6631-6.4363,12.4906-13.2301,18.0739-20.6404,4.9741-6.6017,9.7791-13.328,14.6422-20.0112,9.6679-13.2864,19.7147-26.2912,29.2514-39.6744,4.7303-6.6382,9.388-13.3418,13.7928-20.2016,4.2609-6.6357,7.9001-13.6368,11.7777-20.4964,9.0451-16.0009,20.6799-30.5757,31.8934-45.0957l-3.4206,4.4274c10.3073-13.3298,20.5698-26.7764,31.9846-39.1789,11.8909-12.9197,20.0968-28.7371,30.6712-42.6965l-3.5815,4.6356c1.5094-1.941,3.0218-3.881,4.5065-5.8408l-3.5842,4.6392c2.7386-3.4258,5.6315-6.6966,8.5404-9.9763,3.8995-4.3967,7.2943-9.1831,10.8373-13.86l-3.6842,4.7686c1.7548-2.2066,3.7863-4.1715,5.6718-6.2632,2.0725-2.2991,4.2096-4.904,5.9093-7.3811,1.7968-2.6188,2.8062-5.4726,3.9831-8.4868.9972-3.1804,1.1396-6.3609.4274-9.5413-.1444-3.1843-1.0909-6.1497-2.8394-8.8962l-3.7414-4.8426c-2.9855-2.9655-6.505-5.0166-10.5584-6.1535-.3997-.1547-.7966-.3162-1.1907-.4846l5.7205,2.4141c-3.6811-1.6098-7.048-3.7405-10.2389-6.1708l4.8842,3.7735c-4.8629-3.7735-9.2324-8.1098-13.8261-12.1948-6.2404-5.5493-12.9149-10.3677-20.074-14.629-8.1308-4.8396-16.2624-8.9997-25.0328-12.6046-6.4534-2.6526-13.2557-4.3248-19.7005-7.0137l5.9589,2.5147c-7.1495-3.0687-13.2019-7.9278-19.7949-11.979-7.5645-4.6482-15.7953-8.1857-24.288-10.7587-1.2472-.3779-2.5056-.7252-3.7812-.9944-3.4062-.719-7.032-1.3979-10.5309-1.3624-5.3051.0538-10.3009,1.2202-14.9414,3.7797-3.976,2.193-6.7662,4.9929-9.4593,8.4787-4.8022,6.2157-8.1233,13.4173-11.51,20.4775-3.3975,7.0826-8.1714,13.2501-12.7534,19.5843-4.7126,6.5148-9.3224,13.0716-14.1638,19.4962-4.7781,6.3407-9.474,12.8039-12.8656,20.0137-1.7038,3.6219-3.1782,7.3453-4.8246,10.9928-1.6376,3.6281-3.6111,7.008-5.5882,10.4541-8.4126,14.6626-14.2351,30.7919-24.5638,44.3218l3.8771-5.0183c-4.2464,5.4632-8.7603,10.7146-12.6483,16.4527-2.8207,4.1629-5.3737,8.5036-7.7347,12.942-4.7391,8.9091-8.5567,18.2206-12.4709,27.5097l2.4811-5.8793c-2.0245,4.7811-4.0677,9.8235-7.2041,14.0032l3.8399-4.9702c-.5156.6564-1.0581,1.2628-1.7158,1.7797l4.9677-3.838c-.2003.1339-.3908.2455-.6082.3488l5.8634-2.4744c-.1259.0541-.256.0949-.3902.1224-5.9154,1.5213-11.604,6.0424-14.669,11.28-3.0788,5.2612-4.3832,13.0151-2.4744,18.9136,1.922,5.9392,5.6025,11.6693,11.28,14.669,5.9017,3.1182,12.3457,4.1635,18.9136,2.4744,16.5552-4.2576,22.6704-22.63,28.5546-36.5778l-2.4823,5.8822c5.328-12.614,11.6694-24.9983,20.0013-35.9095l-3.8725,5.0123c4.6484-5.998,9.6847-11.6848,13.8434-18.0554,3.0964-4.7433,5.8016-9.7276,8.3814-14.7663,2.4816-4.847,4.8476-9.7524,7.3507-14.5885,2.658-5.1354,5.8182-9.992,8.4621-15.1248,2.7493-5.3373,4.8082-10.996,7.5204-16.351,2.6221-5.1772,5.9748-9.9545,9.429-14.604,3.6307-4.8871,7.448-9.6332,11.0318-14.5554,3.4706-4.7666,6.7993-9.6427,10.2366-14.4353,3.8-5.2984,6.9691-10.7262,9.7362-16.6237,1.3612-2.901,2.8622-5.6994,4.3733-8.5209,1.1962-2.2336,2.2204-4.5438,3.744-6.585l-3.9213,5.0755c.4188-.5143.8499-.9784,1.3539-1.4099l-5.0746,3.9206c.3499-.2525.6679-.4461,1.0607-.6218l-5.9889,2.5273c.3918-.1326.7572-.2208,1.1651-.2918l-6.664.8954c1.1398-.1263,2.2444-.0562,3.3795.0895l-6.6619-.8952c4.6956.7219,9.4669,2.355,13.8388,4.1875l-5.9782-2.5228c4.4747,1.9478,8.6904,4.4035,12.7978,7.0282,3.9486,2.5233,7.7254,5.4081,11.8434,7.6513,10.0281,5.4629,21.0684,7.8173,31.5076,12.1557l-5.9468-2.5096c5.6886,2.4243,11.1441,5.376,16.5551,8.359,4.826,2.6605,9.5816,5.2648,13.965,8.6256l-4.956-3.829c4.9626,3.8609,9.5321,8.1906,14.4452,12.1111,3.8013,3.0333,7.6491,6.1589,11.8127,8.7108,4.2776,2.6218,8.9913,4.5665,13.6924,6.2668-5.5706-9.8112-11.1413-19.6224-16.7119-29.4336l-.1324.3725,2.4115-5.7143c-.6493,1.5291-1.6429,2.9007-2.6522,4.2104l3.723-4.8188c-3.045,3.8529-6.2621,7.4969-9.1942,11.4563-2.1291,2.875-3.9421,5.9602-6.1266,8.8063l3.6448-4.7176c-6.944,8.9173-13.9291,17.7272-20.1794,27.1543-2.5916,3.9088-5.1003,7.8718-7.5798,11.8525-2.5431,4.083-4.9223,8.3044-7.8299,12.1432l3.5155-4.5503c-4.4493,5.737-9.5567,10.9124-14.0005,16.6618-5.8516,7.5708-11.6888,15.1522-17.4469,22.7944-9.5698,12.7009-18.9327,25.5554-27.9468,38.6575-4.2678,6.2033-8.3191,12.4595-12.0099,19.0266-3.6797,6.5472-7.2366,13.1649-11.3598,19.4494-8.5803,13.0779-17.8447,25.6916-27.2238,38.2033-10.5727,14.104-20.8386,28.4521-31.5498,42.4494l3.3904-4.3883c-7.6675,9.8996-17.4032,18.0688-26.2461,26.8774-4.7031,4.6849-9.4676,9.3187-14.0861,14.0873-2.6871,2.7744-5.2694,5.5349-8.3145,7.941l4.4872-3.4668c-1.1736.9003-2.3809,1.743-3.7359,2.348l5.351-2.2581c-.4238.1661-.8366.2961-1.2842.3801l5.9734-.8026c-.405.0414-.7064.0175-1.1244-.0249l5.9888.8047c-.3299-.051-.6495-.1391-.9588-.2643l5.3938,2.2762c-.4331-.2059-.7772-.4173-1.1581-.7082l4.584,3.5416c-.4522-.4113-.8414-.8511-1.2208-1.33l3.5562,4.6029c-3.6018-4.7729-6.1873-8.5504-11.5221-11.5825-5.8152-3.3051-11.7814-3.3874-18.1559-4.0815l6.1736.8295c-.6875-.1151-1.291-.2635-1.9498-.4919l5.5615,2.347c-1.6695-.7281-3.1399-1.7075-4.5885-2.8033l4.7435,3.6648c-2.9142-2.2576-5.7246-4.6913-8.8056-6.7185-1.7986-1.1834-3.7898-1.9968-5.7248-2.923-3.9583-1.8948-7.5416-4.5859-11.0043-7.2576l4.8887,3.777c-5.8792-4.5946-11.3579-9.6762-17.1372-14.395-7.178-5.8608-14.6773-11.2517-22.4028-16.3575-6.2089-4.1034-12.486-8.1138-18.4937-12.5115-6.5309-4.7806-12.883-9.8257-19.2881-14.773l4.9677,3.838c-11.491-8.8827-22.5619-18.4592-34.4853-26.7536-9.482-6.5961-19.8492-12.0231-29.0538-19.0003l4.9677,3.838c-1.1397-.8946-2.2042-1.8444-3.1104-2.9788l3.838,4.9677c-.4284-.5855-.788-1.1811-1.0931-1.8387l2.4744,5.8634c-.2721-.6821-.4525-1.353-.5643-2.0776l.8768,6.5251c-.0794-.8121-.0629-1.5915.0239-2.4016l-.8768,6.5251c.756-4.941,3.3181-9.8744,5.2427-14.4535l-2.4744,5.8634c5.1796-12.225,11.2685-24.0465,18.1705-35.3879,3.397-5.582,6.9848-11.0476,10.741-16.3944,3.8672-5.5049,8.1455-10.7325,11.7798-16.3965,3.7084-5.7794,6.4414-12.3096,10.6032-17.7739l-3.838,4.9677c.8489-1.0593,1.7491-2.0199,2.793-2.8894l-4.9677,3.838c.7491-.5703,1.5116-1.0466,2.3616-1.4493l-5.8634,2.4744c.7013-.2818,1.3859-.4829,2.1288-.6225l-6.5251.8768c.7365-.0863,1.4297-.0937,2.1685-.0307l-6.5251-.8768c3.6241.508,6.652,1.6957,10.566,1.741l-6.4691-.8693c8.1216,1.9044,16.1833,4.4478,23.8758,7.6741l-5.2615-2.2204c6.4955,2.7624,12.801,5.9426,18.9068,9.4832,6.0414,3.5032,12.0791,7.1504,17.6404,11.394l-3.9778-3.0733c8.8901,6.9047,16.502,15.3136,25.9341,21.5432,7.7445,5.115,16.5812,8.6002,24.9475,12.5564,4.1451,1.9601,8.3357,2.9451,12.9013,1.6878,3.8836-1.0695,8.0924-4.0723,10.006-7.6943,2.053-3.8857,3.0821-8.5929,1.6878-12.9013-1.2962-4.0055-3.8121-8.0464-7.6943-10.006h0Z" style=" stroke-width:0px;"/><path d="M263.6655,295.1806c2.2923,0,4.7005-.9973,6.3218-2.6186.8718-.8098,1.488-1.7689,1.8486-2.8772.5598-1.0654.8164-2.2136.77-3.4445-.1036-2.3122-.8631-4.7103-2.6186-6.3218-1.7492-1.6057-3.8994-2.6186-6.3218-2.6186-2.2923,0-4.7005.9973-6.3218,2.6186-.8718.8098-1.488,1.7689-1.8486,2.8772-.5598,1.0654-.8164,2.2136-.77,3.4445.1036,2.3122.8631,4.7103,2.6186,6.3218,1.7492,1.6057,3.8994,2.6186,6.3218,2.6186h0Z" style=" stroke-width:0px;"/><path d="M311.6309,259.116c1.8128.0684,3.5037-.3096,5.0728-1.134,1.6323-.531,3.0448-1.4385,4.2374-2.7224,1.284-1.1926,2.1914-2.6051,2.7224-4.2374.8244-1.5691,1.2024-3.2601,1.134-5.0728l-.4703-3.5002c-.6256-2.2305-1.7543-4.1672-3.3861-5.81l-2.6648-2.0588c-2.0536-1.191-4.2688-1.7902-6.6455-1.7976-1.8128-.0684-3.5037.3096-5.0728,1.134-1.6323.531-3.0448,1.4385-4.2374,2.7224-1.284,1.1926-2.1914,2.6051-2.7224,4.2374-.8244,1.5691-1.2024,3.2601-1.134,5.0728l.4703,3.5002c.6256,2.2305,1.7543,4.1672,3.3861,5.81l2.6648,2.0588c2.0536,1.191,4.2688,1.7902,6.6455,1.7976h0Z" style=" stroke-width:0px;"/><path d="M302.0378,308.968c1.5442.0583,2.9847-.2637,4.3213-.966,1.3905-.4523,2.5937-1.2254,3.6096-2.3191,1.0937-1.0159,1.8668-2.2191,2.3191-3.6096.7022-1.3367,1.0242-2.7771.966-4.3213-.1299-2.9007-1.0828-5.9092-3.2851-7.9309-2.1944-2.0145-4.8919-3.2851-7.9309-3.2851-1.5442-.0583-2.9847.2637-4.3213.966-1.3905.4523-2.5937,1.2254-3.6096,2.3191-1.0937,1.0159-1.8668,2.2191-2.3191,3.6096-.7022,1.3367-1.0242,2.7771-.966,4.3213.1299,2.9007,1.0828,5.9092,3.2851,7.9309,2.1944,2.0145,4.8919,3.2851,7.9309,3.2851h0Z" style=" stroke-width:0px;"/><path d="M374.9452,303.8944c1.9023.0718,3.6768-.3249,5.3234-1.19,1.7129-.5572,3.1952-1.5095,4.4466-2.8569,1.3474-1.2515,2.2997-2.7337,2.8569-4.4466.8651-1.6466,1.2617-3.4211,1.19-5.3234l-.4936-3.6731c-.6565-2.3406-1.8409-4.373-3.5533-6.0969l-2.7964-2.1605c-2.155-1.2499-4.4796-1.8787-6.9736-1.8864-1.9023-.0718-3.6768.3249-5.3234,1.19-1.7129.5572-3.1952,1.5095-4.4466,2.8569-1.3474,1.2515-2.2997,2.7337-2.8569,4.4466-.8651,1.6466-1.2617,3.4211-1.19,5.3234l.4936,3.6731c.6565,2.3406,1.8409,4.373,3.5533,6.0969l2.7964,2.1605c2.155,1.2499,4.4796,1.8787,6.9736,1.8864h0Z" style=" stroke-width:0px;"/><path d="M896.9003,399.5335l-.028-.0645,1.1297,2.677c-.1682-.402-.2911-.817-.3544-1.2486l.394,2.932c-.0261-.1986-.0422-.3978-.0431-.5982-.0004-.0876.0019-.1752.0067-.2626.031-.5638-.0558-.6143-.1853-1.5787-.0031-.9833-.251-1.8997-.7437-2.7493-.1394-.4733-.3305-.9211-.5732-1.3435-.6818-1.2643-1.6132-2.279-2.7943-3.0439-1.0478-.9589-2.2777-1.6062-3.6895-1.9419l-2.8841-.3875c-1.9584.0061-3.7836.4998-5.4758,1.4812-.3966.27-.7767.5626-1.1404.8777-.8185.4843-1.4699,1.1357-1.9542,1.9542-.9629,1.0522-1.6129,2.2872-1.95,3.7049l-.0228.0628c-.0363.1043-.0699.2095-.099.3161-.3035,1.1143-.4085,2.6251-.514,3.5422-.0259.2251-.0391.4504-.0347.677.0235,1.2072.2988,2.5259.456,3.6362.5329,1.9001,1.4944,3.5498,2.8845,4.9493l2.27,1.7538c1.7494,1.0146,3.6364,1.525,5.661,1.5313,1.5442.0583,2.9847-.2637,4.3213-.966,1.3905-.4523,2.5937-1.2254,3.6096-2.3191,1.0937-1.0159,1.8668-2.2191,2.3191-3.6096.7022-1.3367,1.0242-2.7771.966-4.3213-.0063-2.0246-.5167-3.9116-1.5313-5.661h0Z" style=" stroke-width:0px;"/><path d="M921.4678,356.9462c.6395-.6395,1.2791-1.2791,1.9186-1.9186,1.284-1.1926,2.1914-2.6051,2.7224-4.2374.8244-1.5691,1.2024-3.2601,1.134-5.0728.0684-1.8128-.3096-3.5037-1.134-5.0728-.531-1.6323-1.4385-3.0448-2.7224-4.2374l-2.6648-2.0588c-2.0536-1.191-4.2688-1.7902-6.6455-1.7976l-3.5002.4703c-2.2305.6256-4.1672,1.7543-5.81,3.3861-.6395.6395-1.2791,1.2791-1.9186,1.9186-1.284,1.1926-2.1914,2.6051-2.7224,4.2374-.8244,1.5691-1.2024,3.2601-1.134,5.0728-.0684,1.8128.3096,3.5037,1.134,5.0728.531,1.6323,1.4385,3.0448,2.7224,4.2374l2.6648,2.0588c2.0536,1.191,4.2688,1.7902,6.6455,1.7976l3.5002-.4703c2.2305-.6256,4.1672-1.7543,5.81-3.3861h0Z" style=" stroke-width:0px;"/><path d="M917.9134,401.9063c1.9247.0726,3.72-.3287,5.386-1.204,1.7331-.5638,3.2327-1.5273,4.499-2.8905,1.3632-1.2662,2.3267-2.7659,2.8905-4.499.8753-1.666,1.2766-3.4613,1.204-5.386l-.4994-3.7163c-.6642-2.3682-1.8626-4.4244-3.5951-6.1687l-2.8293-2.1859c-2.1804-1.2646-4.5323-1.9008-7.0557-1.9086-1.9247-.0726-3.72.3287-5.386,1.204-1.7331.5638-3.2327,1.5273-4.499,2.8905-1.3632,1.2662-2.3267,2.7659-2.8905,4.499-.8753,1.666-1.2766,3.4613-1.204,5.386l.4994,3.7163c.6642,2.3682,1.8626,4.4244,3.5951,6.1687l2.8293,2.1859c2.1804,1.2646,4.5323,1.9008,7.0557,1.9086h0Z" style=" stroke-width:0px;"/><path d="M133.1996,346.6312c-.496-.0143-.9887-.0539-1.481-.1159l3.3821.4545c-1.4001-.1929-2.754-.5845-4.0693-1.0965l3.1806,1.3422c-.406-.2057-.7703-.5171-1.1313-.7928l2.7922,2.1573c-.8643-.6692-1.6821-1.3945-2.463-2.1592-.4028-.3945-.796-.7987-1.1811-1.2104-1.3234-1.4148-2.9298-2.4887-4.4637-3.6715l3.2781,2.5326c-3.5814-2.7827-6.7837-5.9976-10.0247-9.159-3.7009-3.6101-7.5732-7.028-11.0743-10.8399-2.0441-2.2256-4.0574-4.5088-5.9277-6.8834l3.3255,4.3043c-1.2049-1.566-2.1604-3.3178-3.2922-4.9363-1.3334-1.9068-2.8015-3.7274-4.2455-5.5478-.2969-.3743-.6005-.7441-.9377-1.0832-.1362-.137-.2785-.2657-.4244-.3923-1.1153-.9675-3.416-2.702-4.6167-3.57-.0687-.0497-.1354-.102-.2065-.1486-1.704-1.1169-3.9842-2.0484-5.6737-2.4375-.9435-.3602-1.9432-.4977-2.9992-.4126-2.9596-.6628-5.9192-.5302-8.8789.3977-.5166.1672-5.0072,2.0105-5.4145,2.3117-2.5808,1.3917-4.6519,3.2929-6.2135,5.7038-1.9574,2.1389-3.2787,4.6493-3.9639,7.5312l-.7911,5.8873c.0124,3.9975,1.0203,7.7233,3.0236,11.1774,1.0971,1.6064,2.1363,3.3022,3.5694,4.6194.6973.6419,1.4461,1.2225,2.2466,1.7419,2.1038,1.9253,4.5729,3.2248,7.4074,3.8987l5.7905.7781,5.7905-.7781c.9573-.2394,1.8678-.6178,2.7316-1.1351.9558-.32,1.877-.7134,2.7638-1.1801l-30.2998-7.9449c.5132.896.335.4633,1.7932,2.3508.9897,1.6729,2.3211,3.0043,3.994,3.994,2.1505,1.9681,4.6746,3.2965,7.5721,3.9854.1439.0417.2854.0796.4253.1343l-5.3093-2.2406c.5032.216.9522.5273,1.3846.8599l-4.4657-3.4502c1.3198,1.0386,2.4819,2.2667,3.6441,3.4742,1.14,1.1845,2.2915,2.2763,3.5688,3.3133,4.9404,4.0112,9.9799,7.9819,15.351,11.411,1.0167.6491,2.0435,1.2867,3.0898,1.8872.9952.5712,2.0708,1.0162,3.1145,1.4908,1.6212.7373,3.2251,1.5119,4.8376,2.2679,3.1176,1.4616,6.2797,2.8034,9.4594,4.1276.9502.3957,1.9078.7736,2.8748,1.1264.4417.1612.8854.3169,1.3312.4665.9249.3105,1.6729.3197,2.7645.4664.9395.1262,1.8735.2659,2.8153.3624,2.0718.2121,4.122.2141,6.1955.0424,1.0336-.0856,2.1023.1109,3.1484.0555,2.0858-.1105,4.2024-.366,6.2297-.8824,1.6288-.3872,3.0476-1.134,4.2565-2.2403,1.3626-.8826,2.4372-2.0531,3.2237-3.5117l1.2618-2.9899c.5216-1.6637.5961-3.3274.2235-4.9911-.0035-1.1297-.2883-2.1825-.8544-3.1586-.5048-1.5517-1.3674-2.8944-2.588-4.0281l-2.5332-1.9571c-1.9522-1.1322-4.058-1.7018-6.3173-1.7089h0Z" style="fill:currentColor; stroke-width:0px;"/><path d="M131.281,428.0924c-6.6833-.5819-13.376-1.0488-20.0732-1.4372-6.5689-.381-13.1583-.8092-19.7372-.9512-13.2082-.2851-26.4161-.3346-39.6252-.5343-3.6948-.0559-7.3894-.1379-11.0824-.2692-1.8534-.0659-3.7064-.1443-5.5586-.2378-.9082-.0458-1.8161-.0954-2.7239-.1489-2.7785-.1638-4.2147.2981-7.8441.8511-2.5143.3831-4.6765,1.6841-7.0373,2.7427l24.8016,42.4304,1.7278-.7748.7679-.3443c.1599-.0717.3214-.1405.4799-.2152.9298-.408,1.7368-1.021,2.4209-1.8392.9275-.516,1.7414-1.1565,2.4418-1.9216,2.2231-2.0649,3.7943-4.5105,4.7137-7.3367,1.4273-2.7168,2.0818-5.6446,1.9634-8.7833l-.8143-6.0604c-1.0831-3.8619-3.0374-7.2151-5.8628-10.0596l-.1169-.1254-4.6498-3.5924c-.1579-.0755-.3202-.1436-.4799-.2152l-.8639-.3874-1.7278-.7748c-2.8202-1.7955-5.8652-2.7674-9.135-2.9157-3.2658-.7314-6.5316-.5851-9.7974.4388-3.1973.7602-5.9825,2.2261-8.3555,4.3977-2.6748,1.7324-4.7841,4.0303-6.3281,6.8935-.8256,1.9564-1.6512,3.9128-2.4768,5.8692-1.1702,4.3544-1.1702,8.7088,0,13.0632.8256,1.9564,1.6512,3.9128,2.4768,5.8692,2.1843,3.692,5.1224,6.6301,8.8144,8.8144,2.3611,1.0588,4.5195,2.3701,7.0373,2.7385,3.4884.5104,5.0835,1.0427,7.8441.8366,1.0733-.0801,2.1462-.1658,3.2187-.2565,2.0595-.1741,4.1174-.3667,6.1738-.5739,4.1082-.4137,8.2103-.8855,12.3091-1.3829,8.2212-.9977,16.4301-2.0952,24.6573-3.0441,6.3849-.7364,12.7791-1.4073,19.1442-2.3009l-5.525.7424c10.0258-1.3245,20.0626-2.5745,30.1243-3.596,2.8975-.2942,5.7969-.5689,8.6981-.8227,2.3947.0903,4.6284-.409,6.7012-1.498,2.1563-.7014,4.0221-1.9002,5.5975-3.5963,1.6961-1.5754,2.8949-3.4413,3.5963-5.5975,1.089-2.0728,1.5883-4.3065,1.498-6.7012l-.6213-4.6237c-.8264-2.9465-2.3174-5.5048-4.473-7.675l-3.5201-2.7196c-2.7128-1.5733-5.639-2.3649-8.7786-2.3747h0Z" style="fill:currentColor; stroke-width:0px;"/><path d="M120.3881,527.4267c-1.7905.8594-3.6032,1.6699-5.4324,2.4434l3.4367-1.4503c-2.2726.9565-4.6899,1.597-7.0552,2.2866-2.3744.6923-4.758,1.3526-7.1413,2.0135-2.4148.6697-4.898,1.2404-7.2423,2.1256-3.7166,1.4034-7.3703,2.9427-11.028,4.4946-8.548,3.6267-16.75,8.0845-24.3988,13.3519-3.48,2.3965-6.8018,4.9934-10.1422,7.5806-1.0339.8008-2.0581,1.614-3.0706,2.4418-.5084.4157-1.014.8348-1.5168,1.2573-.112.0941-.2238.1883-.3355.2827-.0839.0708-.1676.1417-.2513.2128l-3.2525,4.2098c-1.1195,1.7198-1.6715,3.7551-2.4157,5.6666-.9755,3.6299-.9755,7.2597,0,10.8896.9731,3.4697,2.7289,6.4823,5.2673,9.0378,2.5555,2.5384,5.5681,4.2942,9.0378,5.2673,3.6299.9755,7.2597.9755,10.8896,0,3.9735-1.4637,7.2614-2.7457,10.1832-5.98.3904-.4322.7834-.862,1.1789-1.2895.737-.7965,1.4829-1.5848,2.2378-2.3644,1.4949-1.5438,3.0251-3.0535,4.5904-4.5259,3.1511-2.9643,6.4459-5.7729,9.8677-8.42l-3.8676,2.9881c5.2919-4.0803,10.8704-7.7775,16.6787-11.0808,1.4973-.8515,3.0207-1.6548,4.5237-2.4956,1.5551-.87,3.0388-1.9071,4.5523-2.851,2.9023-1.8101,5.812-3.609,8.6813-5.4713,1.6397-1.0642,3.2311-2.2168,4.9125-3.2124,1.7675-1.0466,3.5107-2.1333,5.2236-3.2673,1.6291-.8785,2.9365-2.0786,3.9222-3.6005,1.2356-1.3502,2.0697-2.9348,2.5022-4.754.5826-1.8581.6658-3.7163.2497-5.5744-.0844-1.8604-.6373-3.5929-1.6589-5.1975l-2.1859-2.8293c-1.7443-1.7326-3.8005-2.9309-6.1687-3.5951l-3.7163-.4994c-2.5234.0078-4.8753.644-7.0557,1.9086h0Z" style="fill:currentColor; stroke-width:0px;"/><path d="M137.0369,707.9735c2.3275.0878,4.4986-.3975,6.5133-1.456,2.0958-.6818,3.9094-1.8469,5.4406-3.4955,1.6485-1.5312,2.8137-3.3448,3.4955-5.4406,1.0585-2.0147,1.5438-4.1858,1.456-6.5133l-.6039-4.4941c-.8032-2.8638-2.2524-5.3504-4.3476-7.4598l-3.4214-2.6434c-2.6368-1.5292-5.4809-2.2986-8.5325-2.3081-2.3275-.0878-4.4986.3975-6.5133,1.456-2.0958.6818-3.9094,1.8469-5.4406,3.4955-1.6485,1.5312-2.8137,3.3448-3.4955,5.4406-1.0585,2.0147-1.5438,4.1858-1.456,6.5133l.6039,4.4941c.8032,2.8638,2.2524,5.3504,4.3476,7.4598l3.4214,2.6434c2.6368,1.5292,5.4809,2.2986,8.5325,2.3081h0Z" style="fill:currentColor; stroke-width:0px;"/></svg>
