<svg viewBox="0 0 1000 1000" xmlns="http://www.w3.org/2000/svg"><path d="m73.13 132.22c4.13 4.32 9.14 7.54 14.18 10.63 16 9.81 37.29 9.39 53.34 0a52.86 52.86 0 0 0 0-91.25c-16.05-9.4-37.33-9.82-53.34 0-5 3-10.19 6.45-14.18 10.63-8.5 8.9-15.06 22.37-14.49 35 .59 13.3 5.17 25.23 14.49 35z"/><path d="m100.47 253.11a16.18 16.18 0 0 0 -7.86 3 64.61 64.61 0 0 0 -7.92 3.43c-1.07.53-2.14 1.07-3.19 1.61-10.58 5.49-19.26 15-24.63 25.6a44.67 44.67 0 0 0 -7.12 22.28 45.52 45.52 0 0 0 1.07 23.97l6 14.32a45.23 45.23 0 0 0 15.48 16.77 29.86 29.86 0 0 0 13.23 7.71 45.17 45.17 0 0 0 23.09 5.2c15.8-.71 31.08-6 42.38-17.55a99.13 99.13 0 0 0 11.23-14.05 43 43 0 0 0 7.15-17.29c.18-1.22.36-2.44.53-3.66 2.14-14.7 2.9-17.18-.07-31.91a42.48 42.48 0 0 0 -10.09-19.18 42.6 42.6 0 0 0 -15.82-14.52l-13.48-5.69a56.9 56.9 0 0 0 -30 0z"/><path d="m155.24 506.32-.32-1.39-5.5-13a41.3 41.3 0 0 0 -14.06-15.32 27.34 27.34 0 0 0 -12.05-7 41.09 41.09 0 0 0 -21-4.7l-14.54 1.89-13 5.5a41.17 41.17 0 0 0 -15.32 14.07 41.07 41.07 0 0 0 -9.77 18.56 54.39 54.39 0 0 0 0 29l5.5 13a41.3 41.3 0 0 0 14.02 15.39 27.34 27.34 0 0 0 12 7 41.2 41.2 0 0 0 21 4.7l14.51-1.95 13-5.51a41.19 41.19 0 0 0 15.31-14.06 41 41 0 0 0 9.9-18.5l.19-.82c2.33-10.16 2.46-16.65.13-26.82z"/><path d="m36.42 699.85c-.84 4.57-1.53 9.07-2.16 13.69a27.48 27.48 0 0 0 0 14.4 27 27 0 0 0 3.74 13.66c3.46 8.21 1.84 5.62 7.24 12.61a27 27 0 0 0 9.65 9.65 25.79 25.79 0 0 0 5.64 4.32l.95.54c16 9.08 36.19 9.56 52.1 0l.73-.43a111 111 0 0 0 11.26-8.64l8.41-10.89 5.43-12.86c2.85-8.52 2.36-14.3 1.27-22.36-.62-4.69-1.36-9.1-2.31-13.69l-5.37-12.62a39.9 39.9 0 0 0 -13.61-14.83 26.42 26.42 0 0 0 -11.66-6.79 39.69 39.69 0 0 0 -20.35-4.55l-14 1.89-12.62 5.32a40 40 0 0 0 -14.83 13.61 39.92 39.92 0 0 0 -9.46 18z"/><path d="m104.91 939.25.1-.09-6.67 5.16a1.25 1.25 0 0 1 .24-.16l-7.71 3.25.18-.06-8.48 1.14h.18l-8.37-1.12h.06l-18.74-14.37.06.12v-31.67a1.27 1.27 0 0 1 -.13.19l4.92-6.37a2.08 2.08 0 0 1 -.34.32l6.44-5a3.75 3.75 0 0 1 -.44.24l7.67-3.24a4.78 4.78 0 0 1 -1.11.29l8.75-1.18a7 7 0 0 1 -1.59 0l9 1.21a6 6 0 0 1 -1.5-.4l8.39 3.54a3.83 3.83 0 0 1 -.73-.42l7.23 5.59a3.19 3.19 0 0 1 -.45-.45l5.66 7.32a1.92 1.92 0 0 1 -.18-.31l3.67 8.7a1.91 1.91 0 0 1 -.02-.48l1.31 9.77a2.54 2.54 0 0 1 0-.39l-1.31 9.87a3.31 3.31 0 0 1 .17-.56l-3.77 8.94.07-.14 3.78-9 1.34-10-1.34-10-3.78-9-5.87-7.6-7.6-5.77-9-3.79a28.56 28.56 0 0 0 -15-.67 18.69 18.69 0 0 0 -9.48 2.57 18.76 18.76 0 0 0 -8.28 4.82 18.9 18.9 0 0 0 -6.73 6.74 18.69 18.69 0 0 0 -4.83 8.28 18.68 18.68 0 0 0 -2.56 9.48 37.59 37.59 0 0 0 2.57 19.45 28.1 28.1 0 0 0 7.76 12.09l.29.27c.89.81 6.71 5.31 7.71 5.95a29.76 29.76 0 0 0 9.23 3.92l.31.06c.66.15 9.21 1.31 9.84 1.31 1.53 0 7.3-1 5.08-.66a37.4 37.4 0 0 0 5-.7 36.65 36.65 0 0 0 4.55-1.9c.11-.05 3.08-1.16 4.46-1.9a37.46 37.46 0 0 0 7.65-5.86c.16-.15.32-.29.47-.45l.26-.31c1.09-1.29 4.66-5.81 5.56-7.21a31.52 31.52 0 0 0 4.49-10.61 40 40 0 0 0 1.22-9.21c0-.12 0-.23 0-.34 0-1-.94-7.65-1.16-8.64-1.41-6.34-4.59-9.88-8.45-14.73l8.04 30.5v-.12l-14.39 18.74c5-3.64 8.43-5.85 11.44-11.44.77-1.42-.32.84 1.75-4 1.16-2.76 1.29-2.6 1.69-4.1.17-.63 1.19-8.31 1.19-8.91a12.31 12.31 0 0 0 -.6-4.48 24.82 24.82 0 0 0 -4-12.41l-5.21-6.75-6.76-5.22a24.82 24.82 0 0 0 -12.41-4 16.69 16.69 0 0 0 -8.87 0 16.6 16.6 0 0 0 -8.42 2.28 24.88 24.88 0 0 0 -10.74 6.9l-5.22 6.75-3.36 8a25.34 25.34 0 0 0 -.6 13.31 16.6 16.6 0 0 0 2.28 8.42 16.62 16.62 0 0 0 4.29 7.37 25.13 25.13 0 0 0 9.36 8.59l8 3.37 8.89 1.12a25.29 25.29 0 0 0 12.86-2.87 25.11 25.11 0 0 0 10.74-6.91z"/><path d="m348.41 120.85c16.11 0 16.14-25 0-25s-16.13 25 0 25z"/><path d="m342.08 116c18.55 0 36.31-16.3 35.46-35.45s-15.54-35.45-35.46-35.45c-18.55 0-36.32 16.31-35.46 35.46s15.58 35.44 35.46 35.44z"/><path d="m323.07 294.52a48.11 48.11 0 0 0 24.64-5.52 48 48 0 0 0 20.59-13.22 48 48 0 0 0 13.23-20.59 48.24 48.24 0 0 0 5.47-24.63l-2.29-17a63.9 63.9 0 0 0 -16.45-28.22l-12.95-10a63.73 63.73 0 0 0 -32.28-8.73 48.11 48.11 0 0 0 -24.64 5.51 47.93 47.93 0 0 0 -20.59 13.23 47.9 47.9 0 0 0 -13.23 20.58 48.25 48.25 0 0 0 -5.51 24.65l2.29 17a63.93 63.93 0 0 0 16.45 28.23l13 10a63.73 63.73 0 0 0 32.28 8.73z"/><path d="m291.12 375.62-4.22 2.8a47.52 47.52 0 0 0 0 82.05l4.22 2.8a50.8 50.8 0 0 0 51.23 0 50.77 50.77 0 0 0 0-87.65 50.8 50.8 0 0 0 -51.23 0z"/><path d="m291.39 648.67a53.08 53.08 0 0 0 36.38-15.07c8.92-8.92 15.64-23.56 15.07-36.38-.6-13.3-5-27.1-15.07-36.38s-22.44-15.07-36.38-15.07a53.08 53.08 0 0 0 -36.39 15.07c-8.93 8.93-15.64 23.57-15.07 36.38.6 13.31 5 27.11 15.07 36.38s22.44 15.07 36.38 15.07z"/><path d="m311.43 749.43-5.18 1.36c-15.61 4.11-28.19 17-32.45 32.45a46.47 46.47 0 0 0 89.59 24.7l1.92-4.63a44.24 44.24 0 0 0 0-23.29 43.78 43.78 0 0 0 -11.31-19.33 44.32 44.32 0 0 0 -42.61-11.26z"/><path d="m310.4 959.76c18.18 0 35.6-16 34.76-34.76s-15.27-34.76-34.76-34.76c-18.19 0-35.61 16-34.77 34.76s15.28 34.76 34.77 34.76z"/><path d="m509.55 108.34.59 1.55 5.61 13.3a42.17 42.17 0 0 0 14.35 15.63 27.77 27.77 0 0 0 12.29 7.18 41.86 41.86 0 0 0 21.45 4.8l14.81-2 13.3-5.62a42.14 42.14 0 0 0 15.63-14.34 41.92 41.92 0 0 0 10-18.94l.59-1.55a56.27 56.27 0 0 0 -14.48-54.78l-11.39-8.8a56.17 56.17 0 0 0 -28.42-7.69 42.48 42.48 0 0 0 -21.69 4.85 42.2 42.2 0 0 0 -18.19 11.63 56.27 56.27 0 0 0 -14.48 54.78z"/><path d="m544.83 341a50.94 50.94 0 0 0 34.91-14.46c8.56-8.56 15-22.61 14.46-34.9-1.2-26.75-21.69-49.37-49.37-49.37a50.93 50.93 0 0 0 -34.9 14.46c-8.56 8.56-15 22.61-14.46 34.91 1.2 26.74 21.69 49.36 49.36 49.36z"/><path d="m501.61 416.91-6.61 4.09a49.73 49.73 0 0 0 -17.69 17.69l-5 11.78a49.84 49.84 0 0 0 0 26.22 37.15 37.15 0 0 0 8.83 16.77 37.32 37.32 0 0 0 13.86 12.68 36.79 36.79 0 0 0 18.31 5.86 37.27 37.27 0 0 0 19.66-.88 49.26 49.26 0 0 0 21.76-12.68l5-6.17a36.07 36.07 0 0 0 9.92-15.44 36.18 36.18 0 0 0 4.13-18.49l-1.71-12.75a36.18 36.18 0 0 0 -8.59-16.31 24 24 0 0 0 -8.61-8.61 36.18 36.18 0 0 0 -16.31-8.59l-12.75-1.71a47.8 47.8 0 0 0 -24.22 6.55z"/><path d="m513.15 708.39a51.64 51.64 0 0 0 35.4-14.66c8.68-8.68 15.22-22.93 14.66-35.4-.58-12.94-4.83-26.37-14.66-35.39s-21.83-14.67-35.4-14.67a51.62 51.62 0 0 0 -35.39 14.67c-8.69 8.68-15.23 22.92-14.67 35.39.58 12.95 4.84 26.38 14.67 35.4s21.83 14.66 35.39 14.66z"/><path d="m500.48 887.55c21.09 0 41.3-18.55 40.33-40.33s-17.72-40.32-40.33-40.32c-21.09 0-41.3 18.54-40.33 40.32s17.72 40.33 40.33 40.33z"/><path d="m682.71 93.07a45 45 0 0 1 1 4.43l-1.71-13.22c1 8.06 1.84 14.79 4.15 22.21 2.61 8.42 6 12.2 9.24 19.26l-4.71-11.15a33.58 33.58 0 0 1 1.63 5.28c7.11 32.06 51.21 42.5 73.22 19.33 11.75-12.38 20.46-28.77 20.31-46.22-.09-10.84-3.87-22-8.89-31.51-4.9-9.29-15.1-17.23-23.71-22.59-6.76-4.2-16.31-6.55-24.22-6.55a47.52 47.52 0 0 0 -29.07 10.3c-15 11.61-22.45 31.76-17.19 50.43z"/><path d="m698.9 334.94 1.3 3.05v-43.63l-.11.26-4.5 10.67a33.8 33.8 0 0 0 -.8 17.8 22.3 22.3 0 0 0 3.05 11.27 33.56 33.56 0 0 0 9.23 14.37l.34.36a44.64 44.64 0 0 0 19.72 11.5l11.89 1.6a44.47 44.47 0 0 0 22.56-6.11 33.73 33.73 0 0 0 12.54-11.51 40.16 40.16 0 0 0 8.8-33 33.33 33.33 0 0 0 -5.3-16.62 45 45 0 0 0 -16-16l-.4-.27a44.68 44.68 0 0 0 -45.07 0l-.4.24 33.25-4.42-3-.84-11.09-1.49-11.09 1.49-10 4.21a31.5 31.5 0 0 0 -11.7 10.74 20.76 20.76 0 0 0 -5.37 9.21 20.78 20.78 0 0 0 -2.75 10.52 20.87 20.87 0 0 0 0 11.09 31 31 0 0 0 4.95 15.51z"/><path d="m715.91 595.89a50.21 50.21 0 0 0 34.41-14.25c8.44-8.44 14.8-22.29 14.26-34.42-1.18-26.37-21.39-48.67-48.67-48.67a50.22 50.22 0 0 0 -34.42 14.26c-8.44 8.44-14.79 22.29-14.25 34.41 1.18 26.37 21.38 48.67 48.67 48.67z"/><path d="m690.56 786.17a51.64 51.64 0 0 0 35.44-14.66c8.68-8.68 15.22-22.93 14.66-35.4-.58-13-4.83-26.37-14.66-35.4s-21.83-14.66-35.4-14.66a51.66 51.66 0 0 0 -35.39 14.66c-8.69 8.69-15.22 22.93-14.67 35.4.58 12.95 4.84 26.38 14.67 35.4s21.83 14.66 35.39 14.66z"/><path d="m707.58 907.17 4.53-6.61 4-9.47a30 30 0 0 0 .7-15.8 19.72 19.72 0 0 0 -2.7-10 29.66 29.66 0 0 0 -8.2-12.76l-8-6.19-9.46-4a30.06 30.06 0 0 0 -15.81-.71 29.47 29.47 0 0 0 -14.73 4.71l-7.39 3.75a42 42 0 0 0 -15 15 41.48 41.48 0 0 0 -5.69 21.05l1.49 11.09a41.68 41.68 0 0 0 10.73 18.41 46.47 46.47 0 0 0 29.5 12.22 41.52 41.52 0 0 0 21.05-5.7 42 42 0 0 0 15-15z"/><path d="m918.66 260.49a43.51 43.51 0 0 0 22.24-5 43.31 43.31 0 0 0 18.57-11.94 43.17 43.17 0 0 0 11.93-18.55 43.49 43.49 0 0 0 5-22.23l-2.06-15.34a57.65 57.65 0 0 0 -14.87-25.43l-11.68-9a57.42 57.42 0 0 0 -29.13-7.88 43.49 43.49 0 0 0 -22.23 5 43.29 43.29 0 0 0 -18.57 11.88 43.2 43.2 0 0 0 -11.93 18.57 43.41 43.41 0 0 0 -5 22.24l2.07 15.31a57.67 57.67 0 0 0 14.84 25.46l11.68 9a57.51 57.51 0 0 0 29.12 7.88z"/><path d="m912.33 107.68c17.09 0 33.47-15 32.68-32.68s-14.36-32.68-32.68-32.68c-17.1 0-33.47 15-32.68 32.68s14.36 32.68 32.68 32.68z"/><path d="m918.66 514a68.07 68.07 0 0 0 43.27-18 45.9 45.9 0 0 0 12.65-19.69 46.06 46.06 0 0 0 5.27-23.57l-2.19-16.27a61.14 61.14 0 0 0 -15.73-27l-12.39-9.47a60.88 60.88 0 0 0 -30.88-8.36 68.08 68.08 0 0 0 -43.26 17.92 45.93 45.93 0 0 0 -12.65 19.69 46.1 46.1 0 0 0 -5.27 23.58l2.19 16.17a61 61 0 0 0 15.73 27l12.38 9.57a60.93 60.93 0 0 0 30.88 8.43z"/><path d="m964.62 590.73-2.24-3.82a43.31 43.31 0 0 0 -74.76 0l-2.24 3.82a45.89 45.89 0 1 0 79.24 0z"/><path d="m887 827.83a48.76 48.76 0 0 0 33.41-13.83c8.2-8.2 14.38-21.66 13.85-33.43-1.15-25.62-20.77-47.28-47.28-47.28a48.8 48.8 0 0 0 -33.43 13.84c-8.2 8.2-14.37 21.66-13.85 33.44 1.15 25.61 20.78 47.27 47.28 47.27z"/><path d="m880.65 968.81a50.93 50.93 0 0 0 34.9-14.46c8.57-8.56 15-22.61 14.46-34.91-1.2-26.74-21.69-49.36-49.36-49.36a50.94 50.94 0 0 0 -34.91 14.46c-8.56 8.56-15 22.61-14.46 34.9 1.2 26.75 21.69 49.37 49.37 49.37z"/></svg>