<svg width="120" height="120" viewBox="0 0 120 120" fill="none" xmlns="http://www.w3.org/2000/svg">
<path fill-rule="evenodd" clip-rule="evenodd" d="M66.8436 7.47896C65.4631 8.40267 63.5445 8.19966 61.7958 8.34939C51.8224 9.20338 39.4569 9.84975 28.3751 9.21966C26.9263 9.13718 24.5236 9.62904 24.0234 7.82709C25.2595 6.38285 27.1358 7.1055 28.7231 7.13099C40.7594 7.32391 55.2875 5.92904 66.8436 7.47896Z" fill="#4D94C4"/>
<path fill-rule="evenodd" clip-rule="evenodd" d="M119.756 8.18137C120.448 10.984 118.611 13.5831 117.494 16.1885C115.334 21.2239 112.593 25.5101 110.182 30.6359C108.706 33.7736 107.896 38.826 104.439 39.5131C102.648 39.869 100.35 39.6001 98.1716 39.6872C94.1168 39.8493 89.8176 39.7226 85.8141 39.8614C84.0247 39.9231 81.5982 40.3017 80.7663 38.6428C82.0743 36.9892 84.5876 37.6867 86.6831 37.5982C90.5132 37.4371 94.7681 37.238 98.869 37.4244C101.575 37.5472 103.699 38.1387 105.483 36.9021C108.896 32.5555 110.846 25.9543 113.315 20.366C114.97 16.6216 116.644 12.7619 117.841 8.87766C115.832 8.08633 113.212 9.28916 111.053 9.05182C110.372 8.97695 109.685 8.44527 108.965 8.35553C106.881 8.09642 103.697 8.83518 100.782 9.05182C94.3504 9.52987 88.0035 9.05182 81.2885 9.05182C78.9185 9.05182 75.8035 9.5458 74.1504 7.65926C74.3734 6.79377 75.4177 6.67943 76.0654 6.61483C79.9044 6.23288 84.2973 6.66191 88.5982 6.78899C93.9893 6.94811 100.299 6.87164 106.005 7.13713C110.89 7.36421 115.777 6.45022 119.756 8.18137Z" fill="#4D94C4"/>
<path fill-rule="evenodd" clip-rule="evenodd" d="M18.2775 8.01404C17.2743 8.95032 15.5855 8.58236 14.274 8.71033C10.5219 9.07652 6.06653 9.72643 1.74122 9.75457C6.01627 19.2891 10.6085 28.5055 14.6219 38.3013C35.4202 37.4602 59.8418 36.2509 80.2453 38.3013C79.5444 39.442 77.8364 39.0898 76.7639 39.1717C67.4311 39.8832 56.7577 39.6937 46.8241 39.6939C38.2269 39.6939 29.8136 39.8077 21.2366 40.216C18.6779 40.3379 16.0101 40.257 13.7517 41.2604C13.549 44.5144 15.5118 51.0891 13.4035 53.0967C11.7655 51.8401 12.588 49.0666 12.7074 47.1785C12.8407 45.0723 13.2802 42.4808 13.0554 40.7383C12.9195 39.6831 11.9191 37.9275 11.3149 36.5608C7.73627 28.4631 4.503 20.6045 1.21911 12.1916C0.690255 10.8369 -0.0219588 9.48838 0.000519117 8.01404C0.931316 6.88661 2.74635 7.3843 4.17804 7.31775C8.70175 7.10731 14.3317 7.29245 18.2775 8.01404Z" fill="#4D94C4"/>
<path fill-rule="evenodd" clip-rule="evenodd" d="M106.695 40.2027C106.977 40.1536 106.996 40.3673 107.217 40.3767C107.729 43.5515 107.92 47.5121 108.088 51.3429C108.134 52.4039 108.755 56.0933 107.217 56.2167C105.088 56.3876 106.231 48.8558 106.348 46.2949C106.437 44.3374 106.281 42.5924 106.348 40.725C106.408 40.4961 106.654 40.4512 106.695 40.2027Z" fill="#4D94C4"/>
<path fill-rule="evenodd" clip-rule="evenodd" d="M18.4509 41.9451C21.7966 41.3322 21.2548 46.5023 18.2769 46.1228C16.0298 45.8367 16.106 42.3749 18.4509 41.9451Z" fill="#4D94C4"/>
<path fill-rule="evenodd" clip-rule="evenodd" d="M64.4056 48.0371V46.9926C64.2003 47.0199 63.9118 46.9627 63.8835 47.1666C64.2905 47.2234 64.0534 47.9259 64.4056 48.0371ZM65.6233 46.1224C65.4074 47.3878 65.4959 47.7701 65.6233 48.9075C63.8428 48.9701 60.8251 49.834 59.5312 48.7333C60.1737 47.9123 59.7755 46.91 59.7065 46.2963C60.8658 45.1307 63.9242 46.136 65.6233 46.1224Z" fill="#4D94C4"/>
<path fill-rule="evenodd" clip-rule="evenodd" d="M83.2011 48.0457C83.2577 47.8073 83.9887 46.9961 83.2011 47.0013C83.4453 47.5016 82.7268 47.8855 83.2011 48.0457ZM84.4206 46.131C84.9197 46.9745 84.771 48.2183 84.2471 48.9161C82.9746 49.0128 81.0347 49.5857 80.0684 48.9161C80.4507 47.9255 79.9427 46.7356 80.2436 45.957C81.4507 45.5409 83.3073 45.8816 84.4206 46.131Z" fill="#4D94C4"/>
<path fill-rule="evenodd" clip-rule="evenodd" d="M51.6834 46.2985C51.6014 46.8764 51.4717 48.5737 51.6834 49.0837C50.2593 49.3421 48.6637 49.4291 46.9836 49.4316C46.4089 48.8461 46.2389 47.8557 46.1133 46.8208C47.1304 45.6668 49.8935 46.2233 51.6834 46.2985Z" fill="#4D94C4"/>
<path fill-rule="evenodd" clip-rule="evenodd" d="M34.2843 47.0013C34.4266 48.1878 33.7922 48.5977 33.5882 49.4381C32.1121 49.326 30.9452 49.9536 29.7588 49.6122C29.5798 48.8048 29.22 48.1782 29.0625 47.3496C29.4469 45.94 33.3885 46.2816 34.2843 47.0013Z" fill="#4D94C4"/>
<path fill-rule="evenodd" clip-rule="evenodd" d="M55.8659 49.7825C56.4951 50.8521 56.8409 52.8673 56.04 53.96H52.7328C52.3418 53.6547 52.3901 52.9101 52.2106 52.3935C51.6967 52.6338 51.8094 53.5009 51.6884 54.134C50.3124 54.2087 49.0515 54.3982 47.5108 54.3082C46.4515 53.3616 46.9976 51.0836 47.5108 49.7825C48.8491 50.185 51.2853 49.4892 52.0365 50.4788C52.5257 49.1584 54.3648 49.7664 55.8659 49.7825Z" fill="#4D94C4"/>
<path fill-rule="evenodd" clip-rule="evenodd" d="M55.541 57.793C56.0001 57.8461 55.99 57.4296 56.0633 57.0967C55.5944 57.1086 55.2266 57.4947 55.541 57.793ZM56.7594 54.8339C57.1723 55.9176 57.5254 57.5386 56.9336 58.6634C56.0077 58.9346 54.204 58.9346 53.2781 58.6634C53.1321 58.1712 53.0762 57.5889 52.93 57.0967C52.4753 57.4542 52.6668 58.4579 52.4079 59.0114C50.9723 58.9686 49.9293 59.3179 48.4043 59.1855C47.162 58.3273 47.8081 56.4583 48.056 54.8339C49.2672 54.4703 51.1116 54.8859 52.4079 55.008C52.7167 55.3374 52.5348 56.1578 52.582 56.7487C53.2971 56.4193 52.7212 54.7992 53.4523 54.4857C54.7107 54.4457 55.8242 54.5507 56.7594 54.8339Z" fill="#4D94C4"/>
<path fill-rule="evenodd" clip-rule="evenodd" d="M13.4015 54.6533C14.8052 64.8216 14.4622 78.7413 14.4459 89.8139C14.442 92.4351 14.0923 96.4882 17.405 96.2546C18.6793 93.89 16.5105 89.0351 17.5792 86.3342C18.7756 87.782 18.8687 90.6209 19.3197 93.1218C19.6576 94.9962 19.6252 95.4351 19.3197 97.2988C18.8954 99.89 19.4931 101.571 17.7531 102.695C17.1376 106.46 19.9724 111.426 17.231 113.488C15.0675 110.731 16.7046 102.943 17.057 98.8652C16.3186 98.3165 14.6377 98.4935 13.9238 97.6475C13.5523 97.2085 13.5747 96.474 13.2275 95.559C12.6137 93.9395 12.47 92.8404 12.3572 90.1625C11.9149 79.6705 12.0988 63.63 13.0533 54.6533H13.4015Z" fill="#4D94C4"/>
<path fill-rule="evenodd" clip-rule="evenodd" d="M46.6616 54.829C47.3717 55.5316 47.2798 57.4985 47.0096 58.6585C45.7582 59.3865 43.6005 59.6573 42.832 58.3104C43.0115 56.9582 42.7294 55.5385 43.1804 54.829C44.0515 54.4773 45.7588 54.647 46.6616 54.829Z" fill="#4D94C4"/>
<path fill-rule="evenodd" clip-rule="evenodd" d="M89.653 62.3123C89.2565 63.1344 87.7539 62.8497 86.8689 63.1824C86.5202 61.7642 89.0388 61.6417 89.653 62.3123Z" fill="#4D94C4"/>
<path fill-rule="evenodd" clip-rule="evenodd" d="M70.8558 64.9254C71.355 65.819 71.1744 67.3916 71.2045 68.7546C70.201 69.1436 68.6753 69.0109 67.7231 69.4509C66.3744 69.0589 66.6824 67.0091 66.6771 65.2734C67.6134 64.4507 69.3921 64.8456 70.8558 64.9254Z" fill="#4D94C4"/>
<path fill-rule="evenodd" clip-rule="evenodd" d="M52.5548 73.1093C53.2753 73.4157 54.4864 72.8844 54.9916 72.4132C54.047 72.5131 52.8684 72.3785 52.5548 73.1093ZM69.2654 70.6725C69.8548 71.5338 69.7769 73.0621 69.7875 74.5021C67.5486 75.8968 63.7893 75.3516 60.561 75.1982C57.1691 75.0366 53.8758 75.4065 50.988 75.1982C50.4879 74.0922 50.2935 72.2849 50.988 70.8467C57.2203 70.62 63.5026 70.2038 69.2654 70.6725Z" fill="#4D94C4"/>
<path fill-rule="evenodd" clip-rule="evenodd" d="M94.685 75.3663H95.3823C95.6496 76.3149 95.8885 78.6264 94.685 78.6725C94.2868 77.807 94.5806 76.2902 94.685 75.3663Z" fill="#4D94C4"/>
<path fill-rule="evenodd" clip-rule="evenodd" d="M89.6386 77.8003C90.0085 78.4622 90.6846 79.9241 89.9872 80.5861C88.8881 80.4091 89.0722 78.9472 88.7695 77.9755C88.9713 77.8286 89.235 77.7454 89.6386 77.8003Z" fill="#4D94C4"/>
<path fill-rule="evenodd" clip-rule="evenodd" d="M31.3246 79.204C32.2843 79.4076 32.4568 81.6518 31.8466 82.3368C30.9221 82.0979 30.6894 79.9155 31.3246 79.204Z" fill="#4D94C4"/>
<path fill-rule="evenodd" clip-rule="evenodd" d="M82.5171 79.5411H83.2127C83.1808 80.7694 84.0304 81.9269 83.5614 83.0225C82.0074 83.1588 82.2587 80.6473 82.5171 79.5411Z" fill="#4D94C4"/>
<path fill-rule="evenodd" clip-rule="evenodd" d="M25.0541 80.5957H25.4022C26.0797 81.0081 26.4058 83.1851 25.5762 83.555C24.6164 83.355 25.228 81.5815 25.0541 80.5957Z" fill="#4D94C4"/>
<path fill-rule="evenodd" clip-rule="evenodd" d="M19.6815 81.1085H20.3778C20.695 81.4624 20.9283 82.5208 20.5518 83.0235C19.5632 83.0571 19.4283 81.797 19.6815 81.1085Z" fill="#4D94C4"/>
<path fill-rule="evenodd" clip-rule="evenodd" d="M22.1115 30.6426C22.8362 30.3812 23.5902 30.1486 24.0261 29.5982C23.6008 29.4433 23.2713 29.1925 22.6336 29.25C22.6782 29.9329 22.004 29.8969 22.1115 30.6426ZM51.1801 30.4684C52.755 29.7223 54.4736 29.1201 55.5318 27.8575C53.0548 27.7015 52.1021 29.0693 51.1801 30.4684ZM14.6265 30.1203C14.5553 28.915 13.7723 28.4217 13.06 27.8575C13.4676 28.7265 13.9297 29.5408 14.6265 30.1203ZM17.4116 27.5093C17.5088 27.0842 18.0851 27.1384 17.9339 26.4651C17.3913 26.3422 17.1173 27.3704 17.4116 27.5093ZM24.8966 27.1612C25.701 26.9794 27.3224 27.6145 27.3334 26.6389C26.6272 25.663 25.2585 26.0401 24.8966 27.1612ZM10.7973 23.8541C10.95 24.4555 11.1631 24.9968 11.6676 25.2465C11.8401 24.7808 12.0261 24.3288 12.0157 23.68C11.607 23.7355 11.3622 23.9548 10.7973 23.8541ZM78.8569 24.3762C79.2092 23.8541 80.6392 23.4964 80.4233 22.9837C80.0693 23.5056 78.641 23.8631 78.8569 24.3762ZM49.4398 23.68C50.2127 23.4012 51.2169 22.8725 52.0506 22.2874C52.721 21.8168 53.9532 21.001 53.6171 20.5469C52.0741 21.4408 50.4713 22.2746 49.4398 23.68ZM49.4398 19.6764C49.7553 19.2378 50.4534 19.1817 50.658 18.632C50.1999 18.8198 48.8352 19.0038 49.4398 19.6764ZM15.8451 23.8541C17.1231 21.7665 19.498 19.8486 20.3707 17.9359C18.6077 19.5384 16.0916 21.3148 15.8451 23.8541ZM26.8111 16.5433C24.9122 18.7056 22.8685 20.7235 21.2412 23.1578C24.4853 21.47 27.4699 19.5228 29.4221 16.5433H26.8111ZM16.0192 16.1952C14.8518 18.1033 11.289 18.543 11.6676 21.4169C14.0536 20.3221 15.6677 18.4546 17.0637 16.3692C16.858 16.1686 16.4483 16.1722 16.0192 16.1952ZM47.3507 16.1952C48.3585 15.6945 49.3127 15.1401 49.9617 14.2805H47.3507C47.472 14.9194 47.6513 15.6037 47.3507 16.1952ZM116.455 10.2769C116.46 12.8361 115.006 15.2079 114.018 17.5876C112.078 22.2561 109.983 26.8378 107.577 31.3387C106.423 33.4968 105.811 36.292 103.225 37.083C93.9844 36.0396 80.9684 36.3865 69.9791 36.3867C59.7667 36.3867 49.1766 36.0446 40.0401 36.3867C33.1173 36.646 25.5837 36.3484 19.3263 36.7348C18.4038 36.7918 17.0313 37.3047 16.1932 37.083C14.6033 36.6623 12.7969 32.3566 11.6676 30.1203C10.3709 27.5529 8.93854 24.33 8.36013 21.9392C7.99199 20.4173 8.20049 19.6428 7.66403 18.632C6.29235 16.0472 3.74279 13.7748 3.48633 10.6251C4.05465 9.62119 5.56774 10.0058 6.6196 9.9288C8.85128 9.76544 10.9109 10.0536 12.886 10.2769C17.7433 10.8263 22.5014 8.52667 26.1148 10.2769C33.3752 10.7037 41.0143 10.1325 49.2656 9.75464C67.1277 8.93694 85.9047 9.40667 104.791 9.40667C106.892 9.40667 109.046 9.49358 111.059 9.58066C112.922 9.66119 114.848 9.46933 116.455 10.2769Z" fill="#4D94C4"/>
<path fill-rule="evenodd" clip-rule="evenodd" d="M77.1032 48.0401C77.0766 47.607 77.3775 47.5011 77.4518 47.1696C77.2164 47.1149 77.1191 46.9218 76.7563 46.9957C76.6324 47.4059 76.3563 48.0999 77.1032 48.0401ZM73.9704 48.9105C74.0394 47.607 73.9191 46.8056 74.1439 45.9514C75.3191 45.6247 77.2076 45.9958 78.4961 46.1254V48.9105C78.2908 49.1109 77.8802 49.1075 77.4518 49.0845C78.1209 49.6925 79.6288 49.4606 80.7598 49.6066C81.1209 50.7933 81.3757 52.0649 81.1067 53.4362C79.7775 53.7762 77.1864 54.3891 76.4076 53.262C75.397 53.7643 73.4341 54.0318 72.2306 53.7841C71.6766 52.9746 71.7917 50.6636 72.0554 49.6066C73.0872 49.1477 74.574 49.605 75.7103 49.6066C76.1067 50.2553 76.3633 51.0441 76.4076 52.0436C76.9226 51.3411 76.0819 49.2818 77.4518 49.4325C76.7616 48.5401 74.7917 49.8109 73.9704 48.9105Z" fill="#4D94C4"/>
<path fill-rule="evenodd" clip-rule="evenodd" d="M57.7946 46.1306C58.5134 46.6426 58.7842 48.2993 57.9686 48.9157C56.6656 49.2283 54.6702 49.4118 53.4429 49.2639C53.252 48.6371 53.0847 47.0761 53.4429 46.4787C54.1707 45.2786 56.3555 46.3855 57.7946 46.1306Z" fill="#4D94C4"/>
<path fill-rule="evenodd" clip-rule="evenodd" d="M45.9549 46.6528C45.9022 47.8694 45.9408 48.6742 45.7806 49.4377C44.26 49.2813 42.9036 49.7193 41.777 49.4377C41.5207 48.8192 40.8976 47.6547 41.4289 46.8269C42.2986 45.779 45.0797 46.4206 45.9549 46.6528Z" fill="#4D94C4"/>
<path fill-rule="evenodd" clip-rule="evenodd" d="M23.8398 49.608C21.684 46.1082 26.0745 45.7179 28.5394 47.171C29.7332 49.9977 25.7277 49.8632 23.8398 49.608Z" fill="#4D94C4"/>
<path fill-rule="evenodd" clip-rule="evenodd" d="M61.2742 49.6144C61.6512 50.3974 61.7928 51.4164 61.7964 52.5736C62.2884 51.9638 61.6601 50.2334 62.145 49.6144C63.2636 49.122 64.5521 49.8413 65.9734 49.6144C66.3734 50.5684 66.4813 52.4813 66.1468 53.618C64.8477 53.6155 62.3132 54.6153 61.7964 53.2698C60.8211 54.0897 57.6748 54.13 56.748 53.444C56.9576 51.8948 56.8355 50.3891 57.2703 49.4403C58.5911 49.5125 60.2265 49.2698 61.2742 49.6144Z" fill="#4D94C4"/>
<path fill-rule="evenodd" clip-rule="evenodd" d="M88.9619 48.0441C89.6911 48.1356 89.6522 47.4575 89.8327 46.9996H89.1354C89.2628 47.532 88.8362 47.5117 88.9619 48.0441ZM90.8769 46.3033C90.9477 47.5357 90.7141 48.4619 90.1796 49.0885C89.3778 49.098 88.4787 49.0113 87.9177 49.2626C88.7513 49.5308 89.7991 49.5862 90.8769 49.6106C90.8327 50.2934 91.5053 50.2577 91.3991 51.0032C91.8238 50.6159 91.2221 49.2028 92.2681 49.4364C91.1088 49.0366 91.4876 47.346 91.746 46.1294C92.8539 45.8692 95.2416 45.7425 96.0982 46.3033C96.0734 47.5589 96.3902 48.1832 95.9247 49.0885C94.7495 48.9584 94.1159 49.3687 92.9655 49.2626C94.0858 49.5348 95.6522 49.3609 96.0982 50.3069C96.1247 51.5517 96.0062 52.6515 95.7495 53.6141C92.4079 54.1182 90.7831 53.6603 87.569 53.9623C87.146 53.8641 86.6734 53.8133 86.6982 53.266C85.8292 54.137 83.6557 53.7041 82.3477 54.1363C81.0734 53.5117 82.2238 51.2784 81.6504 49.7848C82.6929 48.9991 84.3477 49.7687 85.8292 49.6106C86.2964 50.3032 86.6787 51.0823 86.5247 52.3957C87.5955 51.8619 85.9424 49.6122 87.2203 49.4364C86.3495 49.0308 85.8734 48.2304 86.0026 46.8256C86.5867 45.5499 89.5814 45.851 90.8769 46.3033Z" fill="#4D94C4"/>
<path fill-rule="evenodd" clip-rule="evenodd" d="M45.7738 49.9613C46.8 50.764 46.6892 52.6815 46.1219 53.9649C45.0977 54.1748 43.3191 54.6334 42.4666 53.9649C41.8505 53.089 42.1689 51.0566 42.2926 50.3095C43.1198 49.1605 44.3722 50.213 45.7738 49.9613Z" fill="#4D94C4"/>
<path fill-rule="evenodd" clip-rule="evenodd" d="M36.7274 53.4363C37.0791 52.8365 37.2113 50.8726 36.3791 50.4772C36.1729 51.245 36.4469 52.6195 36.7274 53.4363ZM40.0345 46.4737C40.8492 47.3577 40.6283 49.5368 39.1642 49.6067C39.5191 50.0062 40.6097 49.6698 41.2529 49.7809C41.8849 50.9554 41.5548 52.0239 41.601 53.7843C38.1329 54.5131 36.2835 53.7869 32.5497 54.3066C31.8476 53.5489 31.9031 51.3324 32.2015 50.1291C33.355 49.4466 35.3709 49.9643 36.7274 50.1291C36.6739 49.4859 35.6398 49.8241 35.3346 49.4326C35.5431 48.4604 34.78 47.4567 35.5086 46.4737C36.6918 46.2729 38.3985 46.5965 40.0345 46.4737Z" fill="#4D94C4"/>
<path fill-rule="evenodd" clip-rule="evenodd" d="M73.2959 46.1236V48.9087C72.11 49.2324 70.3206 48.9504 69.1171 49.2568C69.5206 49.6665 70.7578 49.2419 71.2073 49.6048C71.3277 50.995 71.6728 52.562 71.2073 53.6083C69.3879 53.5409 68.0569 54.0034 66.8551 53.2602C66.8764 51.5986 66.5082 49.5481 67.8994 49.2568C67.5914 49.0428 67.195 48.9177 67.0286 48.5604C67.5189 47.674 66.6357 46.4526 67.3773 45.7756C69.5242 45.717 71.4835 45.8471 73.2959 46.1236Z" fill="#4D94C4"/>
<path fill-rule="evenodd" clip-rule="evenodd" d="M57.9735 54.3048C59.2935 54.3768 60.9289 54.134 61.9767 54.4788C62.4067 55.2101 62.4598 56.3168 62.4988 57.4379C62.9926 56.8281 62.3643 55.0979 62.8475 54.4788C63.8191 54.1347 65.6775 54.2825 66.6758 54.4788C67.0528 55.4092 67.2174 57.3786 66.851 58.4823C65.7767 58.298 63.159 59.5361 62.4988 58.1341C61.5182 58.8069 58.411 59.1214 57.4512 58.1341C57.6135 56.846 57.6427 55.4246 57.9735 54.3048Z" fill="#4D94C4"/>
<path fill-rule="evenodd" clip-rule="evenodd" d="M71.8815 54.4756C72.0267 55.6935 72.2939 57.222 72.055 58.3051C70.4444 58.5473 68.5169 58.8715 67.5293 57.9568V54.6496C68.6443 53.9292 70.4037 54.1899 71.8815 54.4756Z" fill="#4D94C4"/>
<path fill-rule="evenodd" clip-rule="evenodd" d="M47.7081 90.5208C48.0246 91.1155 47.6846 91.3562 47.7081 92.0872C50.1618 91.7102 53.3695 91.5332 55.8892 91.2164C56.6504 91.1208 58.3078 91.6182 57.978 90.1721C54.8235 89.8606 51.046 90.4341 47.7081 90.5208ZM40.5715 81.643C42.4389 80.6093 41.3141 76.5828 43.0085 75.3775H40.9196C40.0826 77.0182 40.1049 79.5916 40.5715 81.643ZM34.3051 69.6327C33.9862 72.5252 36.5649 70.6991 36.7423 69.2845C35.8752 69.346 35.3642 69.7633 34.3051 69.6327ZM93.8361 68.0661C93.6786 67.4099 93.6857 66.5918 93.4874 65.9773H92.9653C92.7476 66.5578 93.1281 67.85 93.8361 68.0661ZM79.5618 67.1957V65.9773H78.691C78.8396 66.5251 79.0148 67.047 79.5618 67.1957ZM36.394 68.7622C37.1318 68.4576 36.9625 66.3021 36.2198 65.9773C35.8563 66.7038 36.4775 67.7557 36.394 68.7622ZM28.0389 65.4552C28.4455 65.5683 28.8492 64.4283 28.2131 64.5849C28.2842 65.0044 27.895 64.9631 28.0389 65.4552ZM35.0016 64.2366C35.1272 64.7686 34.8235 64.8711 34.8274 65.281C36.5695 65.7681 37.0607 64.8387 39.3531 65.107C39.2269 64.5746 39.6534 64.595 39.5271 64.0626C37.4694 64.2706 36.4129 63.3824 35.0016 64.2366ZM79.0396 64.933C78.914 64.5368 78.8839 64.0437 78.691 63.7145C77.7157 63.7969 77.5122 63.8837 76.7777 63.5405C76.9529 64.5831 77.8361 64.9187 79.0396 64.933ZM36.5681 63.1922C37.3058 62.8877 37.1364 60.7318 36.394 60.4072C36.0303 61.1337 36.6517 62.1854 36.5681 63.1922ZM94.5317 57.4481H95.4025V57.0999C95.206 56.6414 94.7281 57.3336 94.5317 57.4481ZM37.2644 58.1444C38.0656 57.9031 37.7986 55.6499 37.0903 55.3592C36.8283 56.0968 37.3384 57.069 37.2644 58.1444ZM25.7761 52.2261C26.2032 52.0732 26.7798 52.0695 26.8203 51.5299C26.3039 51.5938 25.9618 51.8316 25.7761 52.2261ZM82.6945 59.3628C83.3865 59.2417 84.6237 59.6663 84.7848 59.0146C84.3901 58.538 82.9299 59.1288 82.5211 58.6667C82.245 57.6162 82.7653 55.9178 82.3476 54.663C83.3582 53.909 85.1352 54.5569 86.5246 54.489C87.0715 55.044 87.1795 56.0392 87.3954 56.926C87.9122 56.2838 87.298 55.2884 87.3954 54.489C88.4219 53.8594 90.1051 54.5256 91.5724 54.489C91.7211 54.9791 92.1352 55.2031 92.0945 55.8815C92.5972 55.8042 91.9405 54.5663 92.4432 54.489C93.6379 54.1412 95.8538 54.1845 96.6202 54.8371C97.0856 55.9095 96.5228 57.0737 96.6202 58.3185C93.514 59.1226 91.521 58.4681 88.4396 58.8407C89.0768 59.8272 91.6149 58.915 91.3989 60.7553C91.829 60.6058 91.3476 59.5438 91.7458 59.3628C93.275 59.4599 95.3706 58.9876 95.9246 60.0591C96.1458 60.3688 96.2591 61.6831 95.9246 61.9738C97.1511 63.2989 98.3051 64.6985 99.406 66.1515C99.3193 71.6561 101.953 77.5898 101.146 83.558C100.661 87.1474 102.633 92.0695 102.19 96.0907C103.328 96.1845 104.172 95.9828 105.149 95.9173C105.608 95.7952 105.518 95.1244 106.02 95.0465C106.33 86.0022 106.118 76.1545 106.542 67.0217C106.633 65.0837 106.201 62.6113 107.238 61.4516C108.093 70.181 109.176 82.0359 108.804 91.2164C108.707 93.6429 107.919 96.0022 107.064 97.8306C105.882 98.1084 103.721 98.1084 102.539 97.8306C102.365 100.712 104.017 106.078 103.234 109.494C103.126 109.969 102.581 111.153 101.843 111.061C100.372 110.875 101.084 106.969 100.972 104.793C100.799 101.425 100.068 98.981 100.624 95.7421C99.2025 93.6058 100.358 89.0146 99.5795 85.2978C98.9423 82.2571 99.76 77.0376 99.2308 73.2881C98.9228 71.0973 98.0697 68.8486 98.1865 66.6736C96.9812 65.2097 95.8361 63.6858 94.8803 61.9738C94.3016 62.2656 93.4538 62.289 92.7918 62.4961C92.5352 64.1435 93.6007 64.4713 94.3582 65.107C94.3087 68.2984 96.3211 72.1084 94.7051 74.6805C93.2007 73.7387 93.006 71.5888 92.4432 69.8068C91.8839 68.0376 91.3405 66.0899 91.0503 64.2366C89.7087 61.995 88.0963 59.8642 86.1759 57.7962C84.9193 59.1656 86.2273 61.5668 86.5246 63.0182C86.3919 63.8718 85.1688 63.6359 85.3069 64.7589C85.5069 65.2546 86.1069 65.3506 86.1759 65.9773C86.5157 65.7989 85.7724 64.5509 86.698 64.5849C87.3352 65.981 88.5883 68.7481 87.5688 70.1548C87.8007 70.9093 88.629 71.0683 88.4396 72.2437C85.4733 73.8024 86.1246 67.5748 85.1317 65.4552C84.7087 64.9968 83.8219 66.2433 83.2166 65.6291C83.0042 64.8353 83.8273 65.0792 83.914 64.5849C82.0573 62.09 81.8609 57.9341 79.5618 55.8815C78.6485 56.8999 78.337 58.392 78.691 59.8851C79.3618 62.7152 81.583 67.2253 82.5211 70.503C82.914 71.8748 83.0237 72.9858 82.5211 74.1583C80.0219 74.3369 80.0042 72.0341 79.3883 70.329C78.9618 69.8198 78.2432 71.1523 77.6467 70.503C77.5034 69.6045 78.3901 69.7362 78.691 69.2845C77.9812 67.0764 76.1334 65.1198 75.2095 63.0182C74.8396 62.1748 75.2149 60.6817 73.8184 60.5812C73.098 60.7263 73.1529 61.6909 73.1211 62.1477C72.9016 65.3173 75.0556 69.2304 76.2556 71.3734C76.0644 72.6081 76.4786 73.2391 76.9511 73.8104C77.3352 79.1704 78.6237 83.627 79.737 88.2571C78.1547 88.2146 78.1494 86.5952 77.6467 85.473C75.6326 85.3403 74.6857 84.1403 73.2963 83.3845C72.8361 80.3049 71.5494 78.0518 69.4662 76.5952C68.514 77.9899 70.0432 80.8182 70.337 82.8624C70.4379 83.5668 70.16 84.4199 70.337 84.9509C70.9989 86.9456 75.4414 88.3014 76.0803 90.5208C76.1919 90.9191 76.4255 91.5704 76.0803 91.9138C78.5777 94.3155 83.9281 95.4518 85.6538 98.8748C87.0697 101.68 85.7582 106.657 84.2626 109.668C83.4396 108.654 84.3157 106.521 84.4361 104.62C84.6149 101.802 84.4131 99.5208 82.6945 98.3527C80.4786 97.8589 72.4308 99.0217 72.4255 96.9615C72.4202 95.0748 77.6503 96.5491 79.9104 96.0907C77.6113 94.3845 74.4467 92.0394 72.7741 89.1279C72.5175 89.6235 72.9405 90.9297 72.7741 91.9138C72.6042 91.9173 72.6379 92.1261 72.5989 92.2606C71.3104 93.5704 68.1635 93.2571 65.4627 93.1315C59.4591 92.8518 52.4588 93.1173 46.6639 92.958C46.8455 91.9633 45.9003 92.096 45.7934 91.3916C46.1055 89.7297 45.9179 87.5704 45.9678 85.6465C43.9272 88.7704 42.0131 92.0199 40.5715 95.7421C49.9195 96.0518 61.1494 95.1403 69.6396 96.7863C68.7246 97.7491 67.0573 97.2518 65.8113 97.3084C63.6945 97.4058 60.9918 97.8571 58.152 98.0058C52.9488 98.2783 47.1306 97.9881 43.0085 98.1792C41.8253 98.2341 39.8715 97.9403 39.0049 98.1792C37.7738 98.5191 33.8577 102.762 33.609 104.271C33.1303 107.179 36.0095 110.4 34.4793 113.149C32.0173 111.898 33.3395 106.862 30.8241 105.664C31.3225 100.632 35.9986 98.5155 38.3087 95.0465C39.2802 93.5881 40.1621 91.9049 41.2678 90.3456C42.9568 87.9669 44.3359 86.0005 45.4453 83.0359C45.1255 81.1509 44.6149 79.4571 44.749 77.1173C43.3067 78.8076 44.1724 82.8075 41.7899 83.558C40.6287 83.2589 40.0996 83.1598 39.1791 82.8624C37.6451 74.2203 42.6517 70.8527 42.6603 62.8442C41.7088 63.1591 40.6517 64.1955 39.8754 65.4552C38.1428 68.2658 37.4938 73.3005 35.6977 74.8546C34.8773 75.5651 33.4701 75.7368 32.7386 75.0286C31.9809 67.8815 35.3249 63.6628 34.3051 56.4037C31.5103 58.5987 31.1189 63.1973 28.9092 65.9773C29.1789 67.4766 28.5934 74.6998 26.8203 74.3323C25.6423 74.0883 25.7051 69.6828 25.9499 67.892C26.3887 64.6851 29.2683 62.1564 29.0834 59.3628C25.2188 60.2561 24.9389 64.7341 21.9467 66.4996C22.4127 70.1897 22.8511 75.85 20.9023 78.1615C19.3164 77.2483 20.9738 74.5523 21.2504 73.2881C20.6841 71.3566 20.8233 67.9824 21.7726 66.4996C20.1154 67.4532 19.086 69.035 17.595 70.1548C17.4929 73.0999 18.561 74.8748 18.8134 77.466C18.7809 77.9545 18.5106 78.2076 17.9432 78.1615C17.7184 80.4129 19.392 84.9633 17.2469 85.8199C16.1621 83.8837 16.8927 79.6606 17.595 77.8129C16.9752 75.604 16.2049 72.6214 16.5506 70.329C16.7435 69.0491 18.0122 68.5198 18.9874 67.1957C20.3159 65.392 20.898 63.7897 22.1207 61.9738C22.8913 61.7835 22.9862 62.2686 23.5133 62.3221C23.2688 60.9752 23.9763 60.5801 24.3835 59.8851H26.2982C23.926 59.8624 23.3365 56.2614 25.0798 55.0113C24.7823 54.4384 23.9757 54.3746 23.5133 53.9668C22.9959 52.321 23.5228 50.5964 24.5577 49.9633C26.8947 49.8311 28.6952 50.2353 30.998 50.1375C31.2403 51.2012 31.6041 52.9722 31.172 54.1408C29.7954 54.5049 28.1106 54.5608 26.4724 54.663C28.0575 54.9346 29.8598 54.989 31.6941 55.0113C31.9341 55.2355 31.8665 55.7674 31.8681 56.2297C32.7814 56.0983 32.6517 54.9242 33.4349 54.663C35.0869 54.7677 36.3056 54.4422 37.2644 55.0113C38.1748 53.9504 40.752 54.744 42.138 54.8371C42.2879 55.4182 42.4272 57.8637 42.3122 58.6667C40.2506 59.5842 37.4049 58.3122 35.8718 59.1888C36.2278 60.5893 39.377 58.9538 41.4418 59.7111C41.3057 60.4854 41.6736 60.7557 41.6159 61.4516C42.5232 61.4886 41.9133 60.0083 42.4862 59.7111C43.6441 59.7718 45.0775 59.5568 45.9678 59.8851C46.6803 60.7523 46.803 63.435 45.7934 64.0626C44.7262 64.0398 43.4979 63.8557 43.5308 64.933C43.7458 65.646 45.289 65.0309 45.7934 65.4552C46.4697 66.255 46.5885 68.6808 45.7934 69.4585C45.0046 69.7722 43.712 69.5821 42.6603 69.6327C42.3439 69.8387 42.5237 70.5403 42.3122 70.8513C42.5534 71.2479 43.5237 70.9161 44.0529 71.0253C44.7402 71.6145 45.0439 72.587 44.923 73.9844C45.8499 73.7506 45.1492 71.8895 45.6195 71.1992C46.9297 70.681 48.471 71.3373 49.971 71.1992C50.3642 72.3003 50.5219 74.3244 49.971 75.3775C48.7542 75.2624 47.9219 75.5332 46.8379 75.5509C46.5308 76.4624 46.3703 77.5208 46.3157 78.6837C47.7738 78.2996 51.8515 78.3403 53.6264 79.2058C52.2816 80.2412 49.2366 79.5739 47.186 79.9031C47.2688 83.3792 46.7547 85.3368 47.36 88.2571C53.2807 88.3704 59.7175 87.9686 64.7671 88.9544C63.8874 90.1633 60.7317 89.0978 59.5441 89.9987C59.4272 91.6854 61.7264 91.0429 62.852 91.0429C65.7016 91.0429 68.6874 91.2429 71.2078 91.3916C71.7299 91.0447 71.7989 89.9102 71.5547 89.3014C71.1087 89.689 68.3423 89.7438 67.3777 89.1279C67.6078 87.8961 70.783 88.3863 71.5547 88.7792C71.6184 87.0642 69.6308 86.1244 68.9441 84.6022C69.0786 83.0164 68.7034 81.9421 68.7706 80.4253C64.7936 80.0306 59.0467 79.9491 54.8448 79.2058C55.9563 78.2536 58.2078 78.6022 60.2414 78.5102C62.8113 78.3934 65.6273 77.9722 68.2485 78.1615C68.8308 77.7916 67.9671 76.8801 68.4219 76.5952C72.9476 74.6603 73.2821 81.181 76.2556 82.5138C75.8149 80.3828 76.9016 74.8245 74.8626 74.3323C74.6963 74.2923 73.429 74.7861 72.9476 74.8546C72.3104 74.9454 71.7671 75.1329 70.8591 75.0286C69.8237 74.2829 70.3724 72.1497 70.337 70.8513C71.1706 70.226 72.1618 70.8288 73.4697 70.6771C73.9317 69.6893 72.4113 69.1863 71.7299 68.7622C71.7494 66.7729 71.4697 65.5504 72.252 64.4107C71.9936 63.0812 71.6237 61.0054 72.0768 59.5368C74.2025 58.9371 76.8626 59.2645 76.429 61.7998C76.3104 60.2194 77.4857 59.4405 77.2998 58.3185C76.3848 58.2175 74.1883 59.0746 72.9476 58.6667C72.4255 57.8261 72.4874 55.5679 72.7741 54.489C73.7441 54.1449 75.6042 54.2927 76.6025 54.489C76.8343 55.244 77.1511 55.9145 77.1246 56.926C77.5211 56.2769 77.1016 54.8132 77.6467 54.315C78.7246 54.0833 80.1405 54.4615 81.4768 54.489C82.1034 55.8934 81.7706 58.2561 82.6945 59.3628Z" fill="#4D94C4"/>
<path fill-rule="evenodd" clip-rule="evenodd" d="M71.2077 59.5367C71.3581 60.8206 71.5475 62.2473 71.3811 63.3663C69.7174 63.5845 67.8838 63.8958 66.8555 63.0181V59.711C67.8254 58.8781 69.9086 59.2308 71.2077 59.5367Z" fill="#4D94C4"/>
<path fill-rule="evenodd" clip-rule="evenodd" d="M57.9666 61.2677C58.5716 61.1176 58.9326 60.7251 59.3592 60.3973C58.5875 60.3796 57.7594 60.306 57.9666 61.2677ZM61.2742 59.5268C61.7008 60.2603 61.8442 61.2782 61.7964 62.4861C62.1981 61.8444 61.8565 60.458 61.9698 59.5268C62.961 59.2178 64.9716 59.278 65.9734 59.5268C66.3326 60.4185 66.522 62.3001 66.1468 63.3564C64.8388 63.4892 62.4265 64.4483 61.7964 63.1822C61.0088 63.8231 57.8066 64.0607 56.748 63.1822C56.9489 61.9325 56.8387 60.3718 57.2703 59.3529C58.3534 59.1596 60.0601 59.3283 61.2742 59.5268Z" fill="#4D94C4"/>
<path fill-rule="evenodd" clip-rule="evenodd" d="M56.045 59.8787C56.4862 61.0688 56.8991 63.0622 55.8708 63.8822C54.7664 63.8261 53.4027 64.0295 52.5637 63.708C52.3816 63.3098 52.4531 62.658 52.2156 62.3157C51.6262 62.5385 51.9425 63.667 51.5191 64.0562C47.7855 64.998 46.0083 63.4831 47.1676 59.8787C48.5094 59.3902 49.9331 60.0588 51.5191 59.8787C51.8026 60.2914 51.905 60.8854 52.0414 61.4452C51.6478 59.1447 54.5258 59.2417 56.045 59.8787Z" fill="#4D94C4"/>
<path fill-rule="evenodd" clip-rule="evenodd" d="M57.7909 66.8427C58.4654 66.5897 59.1804 66.3766 59.7061 65.9724C58.8388 66.0334 57.5404 65.6641 57.7909 66.8427ZM60.9238 64.9281C61.5733 65.5545 61.5043 66.9011 61.6211 68.0612C62.0229 67.4193 61.6813 66.0329 61.7946 65.1021C62.7609 64.8177 64.8317 64.8177 65.7981 65.1021C66.1025 66.0469 66.3698 67.8524 65.9716 68.9315C64.6034 69.0161 62.0547 70.103 61.6211 68.5834C60.9822 69.5221 57.6783 69.5407 56.5723 68.7573C56.7167 67.3963 56.7486 65.9991 56.9204 65.1021C57.8951 64.3471 59.4034 65.171 60.9238 64.9281Z" fill="#4D94C4"/>
<path fill-rule="evenodd" clip-rule="evenodd" d="M55.8829 65.4464C56.2399 66.5015 56.6518 68.0634 56.0571 69.1018C55.3574 69.6505 53.3491 69.5204 52.4017 69.2758C52.2197 68.8776 52.2912 68.2259 52.0535 67.8832C51.4642 68.1062 51.7804 69.2347 51.3573 69.6239C49.9026 69.5038 48.9824 69.9181 47.5279 69.7981C46.2169 68.9692 46.9204 66.8574 47.1797 65.2723C48.9465 65.4785 51.5525 64.845 51.8796 66.4908C51.8992 64.4923 54.4371 64.8914 55.8829 65.4464Z" fill="#4D94C4"/>
</svg>
