<svg xmlns="http://www.w3.org/2000/svg" width="120" height="120" fill="none" viewBox="0 0 120 120"><path fill="#C7399F" fill-rule="evenodd" d="M43.514 7.617c.587 1.843.634 4 1.056 5.99.39 1.846 1.806 3.83.704 5.283-3.062-.878-2.239-7.056-2.29-10.744.093-.142.184-.286.177-.529zm21.833 2.11c-.091 2.272-1.093 4.998-1.76 7.574-.644 2.478-.765 5.703-2.995 6.693-1.576-2.192.403-4.955 1.234-7.046.94-2.366 1.796-4.756 2.817-6.693-.05-.285.167-.303.177-.528zm-47.194 7.579c.204-.028.313.039.35.176 1.622 1.812 3.318 3.669 5.109 5.46 1.682 1.683 4.452 2.999 4.404 5.814-2.731.511-3.983-2.773-5.461-4.58-1.632-1.997-3.622-3.971-4.58-6.165-.073-.369.122-.466.178-.705m65.332 7.754c-.964 1.495-2.809 2.24-4.227 3.347-1.283 1.001-2.407 3.054-4.404 2.642.836-3.745 5.142-4.017 7.574-6.165.435-.023.849-.027 1.057.176M63.76 37.035c-2.471-.11-3.655-2.732-5.283-4.227-1.562-1.436-3.492-3.323-5.636-4.052-2.214-.752-5.517-.007-8.279-.88-.039-1.471.55-1.53 2.114-1.41 5.289.405 9.618 2.238 13.21 4.756 2.143 1.502 4.446 3.68 3.875 5.813M41.04 26.997h.528c.252 1.237-1.47 1.361-2.114 1.761-2.418 1.501-4.619 3.281-6.695 5.637-4.083 4.637-9.068 11.521-6.516 20.785.527 1.916 1.736 3.605 2.818 4.932 1.153 1.414 3.585 2.441 3.347 4.932-2.676-.165-4.651-3.167-5.814-5.637-1.801-3.831-3.018-8.384-2.466-14.091.45-4.646 4.403-10.288 7.399-13.035 2.593-2.377 6.618-4.03 9.512-5.284m10.047 4.934c-.442 1.992.913 4.068.704 5.813-2.112-.003-1.621-2.606-1.938-4.404-1.84-1.272-4.83-1.393-7.397-1.937q-.048-.576.526-.529c2.608-.248 6.463-.245 8.105 1.057" clip-rule="evenodd"/><path fill="#C7399F" fill-rule="evenodd" d="M38.033 33.69c-.453 1.485-1.814 2.062-3.17 2.643.384-1.454 1.748-2.808 3.17-2.642m-23.775 2.818c-3.333.866-6.47-1.355-9.688-1.762v-.528c3.131.164 8.017.081 9.688 2.29m45.464-.177c.493 4.218-6.559 5.095-7.925 1.938 1.408.301 3.97 1.191 5.46-.176.415-.908 1.124-2.897 2.465-1.762m1.042 3.16h.703c-.164 1.078.652.78 1.057 1.586.01.655-.784.508-1.41.528-.47-.409-.72-1.377-.35-2.114m6.692 18.148c-1.959-1.884-1.583-7.543-2.819-10.92-.21-.574-2.63-4.085-.704-4.58 1.525-.392 2.8 3.818 2.995 5.284.435 3.277.254 7.377.528 10.217m26.44-15.321c-1.618 1.343-4.474 1.414-6.87 1.937-2.331.509-4.858 1.859-6.694.88.43-3.881 9.586-2.382 13.564-2.818m-44.589 3.516c1.346.665 2.831 2.081 2.641 3.699-1.511-.499-2.63-2.281-2.641-3.699M0 54.998c.381-1.078 1.92-.828 2.995-1.057 2.94-.627 7.218-1.836 10.04-2.114 1.175-.116 2.62-.34 2.817.705.301 1.59-3.11 1.787-4.404 1.937-4.047.47-8.03.803-11.448.529m52.654-2.295c-.562 1.681-1.605 3.782-3.523 3.523 1.377-.768 1.852-4.747 3.523-3.523m1.426-.525h.529c1.882 3.84 4.927 7.071 7.752 10.392.732.861 2.478 2.347 1.232 3.7-2.735-.928-4.249-3.749-5.637-5.99-1.449-2.34-3.044-4.792-3.875-7.574-.314-.129-.026-.32 0-.528m-6.003 4.05c-1.778 1.018-3.113-1.15-4.404-1.761-1.209.552-2.619-.794-2.114-1.938 2.42.29 5.366 1.556 6.518 3.7" clip-rule="evenodd"/><path fill="#C7399F" fill-rule="evenodd" d="M47.03 57.998c-1.415-.07-3.421-1.026-4.052-2.466 1.276.213 3.704.746 4.052 2.466m39.62 4.403c-1.853.31-3.827-.592-5.459-1.233-1.565-.614-3.467-1.255-4.228-2.642.172-.005.138-.216.177-.353 1.834-.427 3.7 1.004 5.461 1.938 1.5.796 2.948 1.347 4.05 2.29m-18.827-3.353c.74.526 1.447 1.915 1.234 2.818-1.01-.264-1.983-1.907-1.234-2.818M63.07 71.739c-2.154-.974-3.796-2.71-5.462-4.228-1.682-1.531-3.11-3.351-5.108-4.58-.093-.141-.182-.285-.175-.528.141-.093.284-.184.528-.176 1.961.994 4.127 2.689 6.165 4.227 1.698 1.282 5.353 2.631 4.051 5.285m-41.577-1.412c-.323 3.416-3.951 5.288-6.34 7.398-.78.688-1.521 1.83-2.642 1.938.483-1.62 2.05-3.078 3.523-4.58 1.696-1.731 3.127-3.888 5.108-4.756zm40.346 7.046c1.01.105 1.035 1.196 1.408 1.938-1.046.573-1.643-.662-1.408-1.938m-25.891 1.229c.69 2.1-1.27 4.192-2.115 6.164-.87 2.034-1.272 4.647-3.17 5.638-.536-.824.387-1.257.706-2.115.947-2.554 1.3-6.528 2.464-8.454.392-.648 1.003-1.35 2.115-1.233m30.978.88c.616.206.917.728 1.408 1.057-.443 1.31-2.47-.34-1.408-1.057m4.225 1.231c.832.259.968.119 1.586.528-.049 1.091-1.313.937-1.76.353-.058-.409.026-.677.175-.881M54.082 90.762c1.293.435 2.328 1.463 3.347 2.29 2.94 2.384 5.916 4.92 8.456 7.926 6.68-.939 12.129-4.974 19.375-5.46 3.022-.202 6.008.312 8.279 1.761-.004.468.098 1.037-.353 1.057-1.68-.021-3.145-2.133-5.284-1.76-2.355 1.499-6.086.85-8.984 1.585-4.427 1.12-7.655 5.306-11.625 4.93-.908-.084-1.403-.992-2.465-1.407-.52-.203-1.024.041-1.41-.178-1.826-1.026-3.114-3.476-4.756-5.283-1.729-1.906-3.853-3.3-4.58-5.461m37.503 1.228c.059.983-1.333 1.433-1.76.88.314-.513 1.124-1.25 1.76-.88m5.307.527c-.177.947-1.42 1.103-2.115 1.585-.684.474-1.234 1.588-2.114 1.232-.507-2.049 2.563-2.945 4.229-2.817m5.084 1.415c-.881 1.292-3.112 1.233-3.876 2.642 1.088-.032 2.209-.095 2.467.704 1.191-.231 1.762-1.777 3.17-1.232.098 1.39-1.191 1.391-1.761 2.113 2.841-.54 4.766 3.285 1.585 3.874-.567-.311-.678-1.082-.881-1.76-1.092.095-1.639-.357-2.642-.353-.225-.502-1.196-.923-.705-1.585-1.464.095-3.353.046-3.522-1.232-.266-2.014 4.509-3.737 6.165-3.17m10.063 18.32c-3.068-.747-4.69-3.627-7.221-5.11-.55-.321-1.383-.333-1.938-.704-1.549-1.035-2.894-2.794-4.402-4.051-1.571-1.308-3.185-2.309-4.757-3.523.016-.25.03-.498-.176-.529.079-.156.154-.315.353-.353 3.267 1.98 6.55 3.595 9.688 5.639 2.591 1.687 4.493 4.511 6.517 6.515.632.627 2.063.969 1.936 2.116" clip-rule="evenodd"/><path fill="#C7399F" fill-rule="evenodd" d="M57.413 81.596c1.07.165 1.2.044 2.114-.177-1.528-2.524-3.864-5.178-6.518-5.989 1.709 1.815 3.25 3.796 4.404 6.165m16.734-7.575c-.134-.615.534-1.33 0-1.761-.514.309-.776 1.471 0 1.761m-5.285-.704c.113-.805.28-2.435-.351-2.995-.233.706-.473 2.776.35 2.995m-13.74 7.926c-.22-2.31-3.03-4.476-3.345-6.693-.745-.195-1.318-.561-2.114-.705-.173.64 1.713 1.097 1.057 2.29-1.404.271-2.076-1.267-2.995-1.938-1.604-1.17-4.115-1.819-6.517-2.466 1.035 2.02 3.632 4 4.932 6.342.133 2.56 2.418 4.388 3.17 6.692.404 1.234.124 2.338 1.057 3.172 1.016.452 2.672.262 2.467 1.936-2.237.346-4.199-1.076-4.405-3.345-1.493-1.92-2.41-5.356-3.523-7.75-1.262-2.72-3.349-4.56-5.459-6.694-.147-.498.247-.456.176-.88-2.234-1.53-5.986-2.464-6.693-4.933 2.056.77 3.856 2.063 6.164 2.818 2.298.753 4.95.977 7.398 1.586 4.769 1.186 9.234 2.868 12.154 5.812 2.267-.618 4.117-2.565 6.166-2.818-1.236 2.228-3.648 3.28-5.814 4.58.206 1.203 1.177 1.642 1.41 2.818 1.015.018 1.186-.81 2.289-.704.16 1.04-.747 1.014-1.232 1.409 1.461.478 3.49 1.457 5.108.704.474 1.571 4.583 2.42 4.932.176.898-.1 1.48-.517 2.114-.88-.04-1.053-.452-1.332-.706-2.466.86-.046.867-.29 1.587-.705.641-.113.217.84.704.88.845-.745-.795-1.06-.704-2.113 1.379-.03 1.286-1.532 2.113-2.114-2.307 1.748-5.135 5.43-8.28 6.341.324-1.378 1.678-1.728 2.291-2.818-.292-.696-.942-1.81-.528-2.642.927-.105.816.827 1.056 1.41.565-1.348 1.508-.822 2.29-1.41-.165-.774-.67-1.209-.529-2.29-2.728 1.558-4.714 3.858-7.574 5.284-.498-.765.632-1.182.88-1.76-1.611.099-1.672-2.55-.88-3.348.863-.098.42 1.106.53 1.762.659-.103 1.546-.823 1.585.352.68-.023.695-.714 1.232-.88-1.255-.337-1.569-1.924-1.232-3.347-.364-.54-.901.82-1.41.176 1.904-3.087 4.28-5.703 5.812-9.16-2.792-5.544-2.966-13.88-4.93-20.256-.663-2.145-2.066-3.639-2.291-5.637 8.367 5.782 4.526 23.775 13.21 29.24.165.599.237 1.29.353 1.938.2.728.89.57 1.41 1.233.546.697.44 1.72.88 2.466.485.821 1.556 1.119 1.762 1.937.374 1.484-.407 2.721-.704 4.228 2.387-.003 4.463-1.644 7.221-1.057 1.2.255 2.9 1.64 4.227 2.466 1.469.914 2.753 2.158 3.699 2.994 5.475 2.073 13.107 4.514 18.496 7.927 1.4.887 6.451 3.106 4.227 4.931-3.101-1.067-4.985-3.353-7.75-4.755-.555-.088-.69.383-1.057 0-4.246-2.624-9.301-4.44-13.563-7.046.148.912 1.379 1.67.703 2.82-1.42.221-1.441-2.417-2.113-3.524-1.114-.65-2.173-1.504-3.346-2.114-1.972-1.026-3.59-2.124-6.342-1.41-3.378.878-7.538 2.141-10.391 3.347-1.621 1.35-3.805 3.666-6.695 3.347-2.395-.263-4.046-2.72-6.165-3.17-2.09-.445-5.474-.06-6.869.529-.82.345-2.457 1.719-2.29 2.641.227 1.261 2.487 1.254 3.875 1.76.382-.497.088-1.672.529-2.112-.591-.525-1.58-.653-2.114-1.233.99-.283 2.658.274 3.346.88.312 1.776-.13 2.935-1.585 3.347 1.288.944 2.978 1.485 4.229 2.466 1.687-.215 3.874-.589 5.636-.175-.358 1.094.917 1.64 1.936 2.289.027-1.025-.797-1.198-1.585-1.41 2.84-1.006 7.311-.05 9.337 1.41-.547 1.372-3.577.533-4.757.353-.334.576 1.114.877 1.056 1.76-1.488 1.091-2.219-1.185-3.17-1.76-.09 1.101.831 1.683.353 2.641-2.122-.578-2.545-2.856-3.698-4.404-1.59.623-3.599 1.306-5.108.178-5.026.646-6.649-3.545-9.69-5.461-.24-2.003.86-2.665 1.938-3.348-.794-2.67-2.631-4.297-3.523-6.869 2.145 1.026 3.191 3.15 4.58 4.932" clip-rule="evenodd"/></svg>