<svg xmlns="http://www.w3.org/2000/svg" width="448" height="402" fill="none" viewBox="0 0 448 402"><path fill="#4D94C4" fill-rule="evenodd" d="M404.475 152c2.958 12.515 1.205 33.104 1.205 48.994 0 2.324-.139 4.815-.242 7.003-.09 1.919.169 4.323-1.448 5.549-1.307-2.607-1.476-7.076-1.691-10.862-.464-8.168-.173-17.562.244-26.305.415-8.777-.279-17.445 1.932-24.379m-65.186 1.969c.488 1.012 1.537.776 2.57.54.888-.203 1.763-.406 2.259.184-.242 2.438-5.424 2.154-7.243 1.451.204-.284.318-.648.238-1.209.908-.142 2.28.184 2.176-.966m75.98 3.62c.391-.07.416.229.729.243 4.419 4.149 4.828 12.608 4.828 21.964 0 2.457.664 5.4-.971 7.001-1.627-.187-2.368-2.449-2.652-4.105-.95-5.524-.527-14.088-1.205-20.274-.202-1.829-1.078-2.903-.729-4.829M235.064 277.566c-.478-1.309-2.212-1.773-2.652-2.895-1.31-3.324.146-13.883.481-18.104.689-8.614-.059-17.863-.481-25.345-.41-7.15-.596-16.215 2.411-19.066 2.749 2.38 5.638 4.267 8.69 6.997 2.319 2.079 6.278 5.356 6.759 8.694.562 3.909-1.864 8.501-2.411 12.308-.25 1.704.042 3.406-.246 5.068-.69 4.033-2.186 7.645-3.377 11.106-1.234 3.581-3.015 6.851-4.102 10.378-.311 1.004-.121 2.154-.485 3.138-1.025 2.778-3.54 5.529-4.587 7.721m108.765 67.798c-1.226-4.26.505-11.617 4.102-11.583 3.48.035 3.581 9.526.966 11.583-.918-.14-1.672.019-2.353.178-.965.227-1.785.452-2.715-.178M60.958 376.969c.108 1.116 2.2 1.226 2.17 0-.503-.471-1.602-.18-2.17 0m-21.725-1.926c-1.528-.638-3.742-.346-5.55 0-.13.492.299 2.183.482 3.139 1.122.485 1.836 1.378 2.654 2.168 7.16 4.032 19.748 3.907 29.204 4.828.803-2.895 4.44-2.965 5.799-5.313-.835-1.822-3.174-2.134-4.83-3.138-.824 3.117-8.743 2.576-9.9 0-3.782 4.315-15.746 3.733-17.86-1.684m17.86-3.866c-.299 1.019.665 2.667 1.448 3.381 1.06-1.115 2.951-1.393 4.828-1.691.454-2.03-4.038-2.348-6.276-1.69m-16.412.727c-.298 6.181 14.673 7.005 14.483 2.411-.115-2.805-8.24-6.027-11.83-5.064-1.587.423-2.595 1.455-2.654 2.653m30.414-12.068c.02.381-.118.915.242.963-2.47 1.954-7.254.749-10.62 2.653 2.16 5.883 8.538 7.559 10.862 13.275 1.365 1.635 4.195 1.676 4.583 3.866.302 1.69-1.334 3.54-1.206 5.791-2.733.623-5.539 3.138-9.657 3.138-1.805 0-4.018-.88-6.516-1.205-5.351-.714-11.34-.942-16.17-1.933-4.606-.943-10.256-2.883-9.415-8.445-1.021-2.3-7.86-5.848-1.933-7.248 4.497-5.312 11.93-7.696 18.345-11.097 6.447 1.663 15.146-.056 21.485.242m303.564.961c.204.603.318 1.295.242 2.175-3.083 1.158-7.901-.096-11.102.478-1.943 1.192 1.68 11.667-1.208 12.319-2.37.519-1.511-3.977-1.449-5.315.152-3.311-.273-6.429.243-8.694 3.075-2.189 8.465.846 13.274-.963" clip-rule="evenodd"/><path fill="#4D94C4" fill-rule="evenodd" d="M375.062 375.113c-2.159 1.261-7.934.783-10.137.477-.18-1.384.114-2.291.968-2.653.987.063 1.409.679 2.171.964 1.788.013 6.048-.437 6.998 1.212m-6.688 10.997c-2.004.521-5.225.272-6.999-.242 1.544-.699 5.937-1.461 6.999.242m6.126-.179c.007-.368 1.794-.527 1.452.242-.738.173-.881-.242-1.452-.242m-339.364 1.216h-1.449v-.72c.48-.45 1.775-.36 1.449.72m-13.699 3.169c.097-3.041 6.904-4.684 6.758-1.206-.093 2.287-5.005 3.083-6.758 1.206m31.001-.75c-.315 1.218-.87 2.189-2.657 1.932-1.254-1.78 1.226-2.84 2.657-1.932m96.312 6.054c.617-5.031 9.475-4.019 16.651-3.623 2.73.152 6.748.581 7.002 2.175.591 3.734-7.5 2.896-11.103 2.896-5.008 0-10.381.769-12.55-1.448" clip-rule="evenodd"/><path fill="#4D94C4" fill-rule="evenodd" d="M132.762 392.684c.312.332 1.047.242 1.691.242v-1.447c-1.268-.306-1.469.463-1.691 1.205m140.235-22.204c-.872-1.088-3.512-1.054-4.829-.964-.433.369-.194 1.408-.962 1.442-.382-.346-.195-1.254-.967-1.206-.429 4.843 3.488 12.81.967 18.345 8.683 2.786 19.883-.561 28.965-1.213 2.632-3.92 4.129-12.261.962-16.646-.547.01-1.108-.02-1.663-.049-.95-.051-1.879-.1-2.681.049-.165 2.729 1.254 7.62-.242 10.378-.478.568-1.76.332-2.415.727-.564 4.358-4.766 2.743-8.933 2.41-1.081-.086-2.212-.038-3.289.011-2.285.103-4.331.206-5.155-.979-.679-3.985.949-7.726 1.447-11.342.583 3.041 1.365 5.874 1.691 9.173 3.955.304 8.182.346 11.825.962 1.109-3.075.927-8.888.242-12.304-4.82-.248-12.534-2.466-14.963 1.206m37.168 1.447c.603 2.266 2.057 4.497 3.623 4.823-1.891-2.758-2.171-10.004-1.932-14.964-2.727.949-2.516 7.025-1.691 10.141m-4.343-4.585c.044 3.934 1.998 10.475 4.586 12.068.773.471 5.192 2.577 5.071-.727-.318-.223-.913-.131-1.589-.038-.581.079-1.22.159-1.792.038-5.383-2.293-4.8-12.519-3.139-18.581-.048-.277-.27-.382-.485-.485-1.281 2.044-2.687 4.496-2.652 7.725m52.616-11.349c-.415.652.569 1.573.244 2.897-.859 1.128-1.521 2.445-1.691 4.107-.754 7.441.281 19.918.966 24.858 5.346 1.434 17.008 3.333 19.794-1.691.851-4.08.273-9.005.48-13.759.132-3.013.624-6.068.243-8.929-.346-2.605-2.203-4.642-1.451-7.483-2.923-.588-6.063-.318-9.3-.048-3.043.254-6.172.509-9.285.048m-42.959 1.698c.395-.687.81-1.926-.242-2.176-.32.381-.523 2.128.242 2.176m12.307 0c-4.367-.194-7.444-3.207-11.343-1.456 1.918 9.908.941 22.711 5.548 29.929 2.706 2.766 5.311 1.965 8.122 1.163 1.983-.565 4.069-1.13 6.364-.443 5.3-7.405 6.641-20.055 6.755-31.854h-.481c-4.188 1.351-10.364 2.855-14.965 2.661m46.341-4.108c.897.464 2.584-.069 2.656-1.205-.048-.278-.27-.381-.484-.485-.872.415-1.746.824-2.172 1.69m-16.409-1.447c1.337 2.367 7.057 1.613 10.136 1.447-.291-.346-.575-2.709-.486-3.623-3.512-.52-8.652-.624-9.65 2.176m28.963-9.659c-.202.679.336.623.239 1.205h.966c.204-.276.322-.644.242-1.205-.269.045-.402-.047-.535-.138-.153-.106-.307-.212-.673-.105-.015.154-.034.291-.239.243m-60.346-7.967c-3.207-.09-6.519-2.382-9.408-1.691-1.476 4.136-.45 8.044 0 13.281.333 3.879 1.338 7.503 3.373 8.446 7.16-.783 14.057.076 19.794-1.933 1.947-.679 3.901-2.841 6.277-1.441-.271-2.75 2.66-3.006 4.1-4.836 2.841-3.581 3.569-11.133.971-15.442-.861-.295-2.047-.264-3.233-.233-1.211.031-2.422.063-3.286-.253-1.358.978-2.501 2.169-4.102 2.897-.568-.88-.159-2.736-1.448-2.897-4.357.742-8.116 4.248-13.038 4.102m-122.128-4.822c1.208-1.919-1.255-3.096-3.139-3.38a7.15 7.15 0 0 0 3.139 3.38m111.51-7.488c.51 2.945 1.133 6.712 2.896 7.488 1.39.611 5.665.368 7.484.242 6.758-.463 11.932-1.273 13.519-6.275 1.967-6.236.416-16.478-.728-21.244-4.87 3.897-11.66 5.882-20.031 6.279-1.265-.514-2.329-1.215-4.345-.968-1.672 5.118.299 9.225 1.205 14.478m-182.712-32.342c1.213 3.215.437 8.418 2.172 11.109.53-3.252.502-7.063.481-10.863-.935-.482-1.502-.392-2.653-.246m196.229 11.349c5.819-.981 9.166-6.025 7.001-12.069-1.988.589-2.83 2.321-5.068 2.657-2.698 2.58-7.049 3.55-11.829 4.098-1.746.203-4.025-.291-5.068 1.208.848 4.577 8.546 5.183 14.964 4.106m-28.238-7.967c.89-1.684 2.644-2.505 3.135-4.587-2.015.402-3.325 2.785-3.135 4.587m119.475 27.996c-.236 3.963.319 8.182.485 12.069.084 2.071-.596 4.725.721 6.276 6.049-11.618 9.654-25.737 9.654-43.688.004-2.855.585-5.973-.721-8.446h-.481c-1.186 13.299 1.24 30.214-9.658 33.789M323.2 285.03c-4.159 1.223-9.64 3.767-10.374 7.003.387.493 1.206.558 2.168.485.554-.716.994-1.891 2.176-2.66 3.062-1.98 12.344-4.416 15.685-3.135-1.349-2.733-6.017-2.757-9.655-1.693m-18.826 3.623c1.81-1.888 3.793-3.611 4.585-6.519h-.723c-1.174 2.144-3.91 3.956-3.862 6.519m114.892-1.448c-1.178 9.491 1.07 18.553.962 28.967 5.612-1.975 5.127-11.329 5.792-19.556.478-5.905 2.089-12.21 1.209-16.408-.391 4.493-3.481 7.375-7.963 6.997m-77.96-8.93c-3.131-.662-6.754 1.614-7.488 4.589 1.363.579 2.595.055 3.802-.467 1.52-.66 2.999-1.319 4.65.229.543.502.921 1.884.962 2.168.714 4.631-4.242 6.021-4.829 9.166 7.119 2.015 9.914-14.203 2.903-15.685m-39.828 3.62c1.735-.96 6.55-3.381 5.07-6.759-1.779 2.165-3.99 3.898-5.07 6.759m45.378-5.796c2.341-.388 2.545-2.919 4.343-3.857.014-.417-.187-.621-.485-.726-1.49 1.186-3.748 2.817-3.858 4.583m-8.21-3.857c1.552.29 3.855-.4 4.586-1.691-1.846-.59-4.201.048-4.586 1.691m-32.343-5.551c-2.657 2.494-6.281 5.287-6.516 9.408 4.358-1.918 6.575-5.97 9.655-9.165-.602-.274-1.485-.26-2.371-.247-.259.003-.516.007-.768.004m-7.721.243c-.568 1.343.319 2.739 1.448 3.139.551-1.227 1.801-1.747 2.171-3.139-.648-.332-1.259-.21-1.945-.089-.504.09-1.046.179-1.674.089m15.688-.488h2.173c.214-.773-2.384-.773-2.173 0m69.997-.24c.601.326 1.568.285 2.534.243.545-.023 1.089-.045 1.566-.003-.118-1.108-3.041-.406-4.1-.24M364.23 265c.429 1.206 3.444.722 4.109 0-.658.052-1.225-.021-1.756-.095-.802-.11-1.523-.221-2.353.095m-6.273.483c.228-.016.48-.008.732.002.581.02 1.162.04 1.44-.244-.006-1.036-.887-1.203-1.933-1.203-.276.281-.27.852-.239 1.445m-10.62 0c1.977.651 4.094-.329 5.067-1.445-1.402-.083-5.742-1.329-5.067 1.445m-208.297-7.964c.775-.111 1.399-.374 1.204-1.451-.283-.275-.851-.275-1.447-.239-.34.74-.107 1.087.243 1.69m-10.379.238c.458-.667 1.449-.8 1.206-2.171-.284-.277-.853-.277-1.448-.243-.405.527-.388 2.176.242 2.414m300.741 3.62c-.146-2.264.304-6.415-.243-7.481.149 2.265-.306 6.418.243 7.481m-247.4-7.481c2.249.37 6.294.526 8.207-.242-1.781-3.074-5.647-1.076-8.207.242m-22.449-5.793c1.143.497 3.433.279 4.347-.242-1.382-.052-3.405-.679-4.347.242m-67.581-8.201c-.617 1.031-.77 2.258-.486 3.616.91.249 2.044-.475 3.139-.963.855-.381 2.695-.727 2.656-1.933-1.617-.395-3.765-.257-5.31-.72m56.24-.485c-.644 3.539-3.502 4.87-5.795 6.757 2.348.544 4.977-.633 6.519-1.693-.135-2.627 2.075-2.906 2.653-4.826-1.074-.328-2.303-.536-3.377-.238m-48.031 1.447c-2.41 1.458-4.233 2.945-6.277 4.828-1.361 1.248-3.768 2.932-2.896 5.065 6.804 1.392 12.623-2.033 18.103-4.344 4.441-1.87 8.057-4.593 11.102-7.24-7.26-.013-14.358.125-20.032 1.691m27.514-1.691c-.751.132-.371 1.404-.724 1.934-3.537 3.543-9.796 4.364-12.311 8.927 5.327 1.555 10.163-1.369 14.244-2.654 1.975-3.813 5.854-5.733 9.169-8.207-2.955-.356-7.437-.429-10.378 0m40.31-5.067c-.09-1.476-1.029-4.097-2.175-5.31-.527 2.041-1.164 5.875 2.175 5.31m-35.966-5.071c1.07.551 3.113.329 4.586 0-.634-2.262-2.466-3.322-3.378-5.307-.845 1.323-.779 3.565-1.208 5.307m55.759-1.445c-3.111-.592-5.508-1.898-8.21-2.896-4.108 2.279-5.3-2.566-8.21-3.138-1.717-.339-3.955.329-4.825 1.933-2.518 4.621 3.769 8.383 5.069 13.273 5.466.867 10.371.804 15.448 1.203 5.64.44 11.269 2.906 17.861 1.69-3.292-5.484-11.829-7.797-17.133-12.065m-75.31-19.551h-.724c-4.039 5.543-.797 14.169 4.587 15.928-1.22-5.379-1.691-11.504-3.863-15.928m75.549-2.413c-.045-1.417 1.208-1.531 1.208-2.9-.487-.478-.792-1.136-1.447-1.448-.651 1.167-.427 3.208.239 4.348m-82.307-.728c.055-1.313 1.718-2.293.724-3.862.197 1.538-2.088 2.709-.724 3.862m-22.446-7.481c.401.488.65 1.121 1.447 1.208.43-1.005.216-3.208-.485-3.866.077 1.289-.83 1.587-.962 2.658m34.757 3.619c-.09 2.293 1.289 5.598 1.93 8.448.709 3.172.804 6.564 1.447 9.177.987 3.997 4.071 7.305 6.277 8.687 4.292-13-4.416-22.641-6.277-33.067-.308-.013-.332-.308-.724-.243-.61 2.037-2.556 4.358-2.653 6.998m-14.725-8.442c-.35 1.344-.35 3.474 0 4.823 2.795-2.194 5.338-4.466 9.411-5.311 2.096-.43 3.893-.097 4.589-1.683-4.09-.614-9.719 1.365-14 2.171m90.513-5.31c.8-.78 1.479-1.968.967-3.381-2.377-.516-1.615 2.439-.967 3.381m-15.207-6.28c-.454 1.382-.523 2.989-.967 4.346-1.284 3.963-3.761 7.664-5.306 11.584-1.673 4.244-2.938 8.57-4.344 12.796-.367 1.095-1.282 1.937-1.452 3.135-.315 2.255.724 4.645.967 6.997.838.76 2.694 1.292 4.102.732-.036-1.858-1.812-3.125-1.206-4.829 2.466 3.65 5.56 7.946 11.344 7.478.19-2.304 1.916-3.068 2.415-5.067-1.248-.264-2.266-.985-3.138-1.934-4.22-4.585-6.96-13.135-6.519-20.516 2.094 1.683 1.682 4.783 2.417 7 1.579 4.819 4.302 10.281 7.482 12.069 1.774-3.652 1.517-8.092.964-11.826-1.331-8.975-4.006-17.389-5.311-26.312-.184 1.835-.946 2.806-1.448 4.347m166.543-3.62c1.524.661 4.088.699 5.791.484-.013-3.761-4.274-1.371-5.791-.484m-32.339 0c1.004.36 3.671.519 4.344-.242.166-3.562-3.485-.794-4.344.242m24.614-2.653c-1.981.589-3.689 1.458-5.071 2.653 1.842.599 5.452.79 7.247 0-.589-1.018-1.705-1.514-2.176-2.653m-155.68 0c-.108-1.428-.01-3.045-.723-3.866.242 1.347-1.601 4.056.723 3.866m.724 0c.008.887.763 1.773.963 2.653.243 1.053.048 2.216.243 3.38.498 2.945 1.676 6.343 2.657 9.173 1.008 2.92 2.067 6.499 3.862 7.718 1.517-1.476 1.156-5.743.963-7.718-.769-7.963-3.547-15.764-4.586-23.174-.33.015-.531-.11-.721-.242-.186 2.82-3.412 5.013-3.381 8.21m-65.407-.728c.84-2.112 1.927-6.083.722-8.687-.334.013-.531-.111-.722-.239-.172 2.688-1.481 6.84 0 8.926m133.716 4.586c4.306.43 11.604-.069 16.891-.242 2.231-5.653 6.269-10.784 11.347-12.786-2.334 4.022-6.989 7.417-7.239 12.55 5.958.399 13.589.399 19.547 0 2.967-6.37 7.526-11.14 12.55-15.448-15.721 1.163-31.869.969-48.27 1.685-8.138.361-15.148.925-21.965.968-.285 2.718 1.039 5.999.484 9.176-.335 1.902-2.334 3.134-1.451 4.821 4.999.652 10.797.017 15.688-.239.419-5.213 4.067-8.486 6.762-10.62-.055.188-.007.474-.243.484-1.25 3.195-4.09 6.014-4.101 9.651m120.2-16.169c-4.643 3.557-10.766 7.312-14.726 11.105 8.847-1.295 13.606-6.664 19.55-10.862-.427.027-1.149-.096-1.912-.221-1.173-.189-2.447-.379-2.912-.022M109.11 179.074c.984-.381 1.084-1.649 1.448-2.653-1.324-4.393-2.221-9.207-3.139-14.001-.977 5.559.627 11.652 1.691 16.654m83.752-4.104c-.202-4.95-1.064-9.232-2.415-13.028-.225 5.372 1.112 9.183 2.415 13.028m163.646-13.271c-4.486 3.561-9.647 6.44-13.277 10.856 8.896.045 13.191-6.602 19.551-9.892-1.386-1.03-3.862-.964-6.274-.964m-232.437 25.823c2.469 1.93 3.537 6.818 4.832 11.103 2.03 6.72 3.25 12.851 6.031 18.102 1.375 2.595 2.609 5.667 5.067 7.001.277-4.565.187-8.94-.481-13.52-1.202-8.185-6.149-16.017-7.482-22.924-.315-1.642-.43-5.183.723-5.556 2.273-.741 3.998 6.172 4.345 7.239 2.653 8.168 4.263 14.827 6.997 22.204.761 2.044 1.517 4.371 2.417 6.283.894 1.899 2.816 3.866 1.691 6.035-2.896-.007-3-2.792-4.586-4.109-.388 2.014-.388 5.474 0 7.49 2.84-.625 10.225-3.604 10.377-7.247.043-.962-1.759-3.467-2.414-4.828-.925-1.923-1.604-3.887-2.172-5.311-5.629-14.039-10.184-31.397-12.068-48.997-.013-.146-.034-.288-.242-.239-4.276 9.158-9.672 17.198-13.035 27.274m128.889-27.513c.784.346 3.367.706 2.897-.967-1.33-.044-2.196.375-2.897.967m34.999-.967c.739.525 2.021.505 3.301.487.351-.006.703-.011 1.043-.005.477-.891 1.047-1.69 1.207-2.896-2.43.222-3.689 1.617-5.551 2.414m-49.72-8.934c-.534 5.127-7.365 5.148-7.482 9.901 2.674-.235 3.152-1.954 4.586-3.381 2.691-2.681 5.722-4.299 8.688-6.52-1.535-.422-4.237-.317-5.792 0m13.274-.965c-3.242 5.046-9.63 6.944-13.032 11.829 11.397-1.081 20.825-6.2 28.48-11.829-2.772-.392-5.622-.242-8.535-.093-2.268.116-4.576.232-6.913.093m22.204-.239c-4.58 3.138-9.928 5.514-13.031 10.138 2.217 2.206 7.793.8 11.344.725 2.366-5.355 8.302-8.432 14.241-9.416-1.331 1.24-2.917 2.491-4.345 3.859-1.371 1.316-3.319 2.668-3.624 4.344 10.094-1.251 16.866-5.823 24.623-9.411-6.394-1.003-12.829-.74-19.432-.477-3.215.128-6.469.255-9.776.238m-120.441-2.896c-1.747 12.785 2.442 23.561 5.071 33.544-.842-10.738-2.806-22.453-3.863-33.788-.01-.144-.035-.283-.239-.242-.36.129-.609.36-.969.486m31.621 3.619c.172.203.425-.021.779-.243.356-.225.814-.448 1.393-.241 2.124 4.964-3.987 9.037-.962 13.52.366-1.13 1.032-1.934 2.168-1.934 1.181 0 1.074 1.161 1.933.97-.443-5.119-1.93-11.272-2.411-17.139-2.013.644-1.954 3.357-2.9 5.067M73.63 146.493c2.144-1.095 2.791-5.051 1.208-7.243-.554 2.12-1.946 4.624-1.208 7.243m126.957 4.586c1.115-2.106 1.237-5.207 1.93-7.724-.773-2.765-2.2-4.878-3.621-7.006-.056 5.53.422 10.525 1.691 14.73m81.825-14.486c-1.074-.749-2.383-1.206-4.109-.964-4.931.686-11.27 3.112-16.408 3.374 6.367.44 14.088.294 20.756 0 .589-.025 1.238.013 1.9.051 1.697.097 3.49.196 4.616-.772-1.155-1.662-4.503-1.129-6.755-1.689m26.062-16.412c-4.052-.028-7.364-1.747-10.858-1.687-4.76.079-6.85 4.533-10.379 6.272.723 4.586-2.193 5.532-3.138 8.446 2.871.242 4.918 1.008 7.24.97 3.894-.067 6.335-2.175 9.657-3.382 4.638-1.682 7.905-.242 11.83 1.691-.559-2.757-3.178-5.507-5.557-7.239 1.352-.065 2.481.389 3.516.843 1.054.464 2.01.927 3.003.84-.984-3.038-2.653-5.39-5.314-6.754m-241.36 8.209c.949-.73 3.668-1.843 4.102-4.109.415-2.175-.68-5.303-2.176-6.511-.59 3.439-2.329 6.986-1.926 10.62m89.543 4.101c-3.811 5.05-6.713 9.866-10.862 14.722-1.837 2.154-5.034 5.674-5.308 7.724-.208 1.545.614 4.116.728 6.274.907 17.746 5.802 31.722 10.856 45.138 1.261 3.343 2.476 6.831 4.586 9.416 1.725-2.09 5.442-6.735 5.553-9.9.093-2.689-2.054-6.464-3.139-9.893-3.814-12.062-7.978-26.036-8.934-39.344-.36-5.05.299-16.738 4.348-16.173 2.082.287 2.768 6.301 3.142 9.653.661 6.025 1.247 10.296 1.926 15.692 1.206 9.526 3.346 18.383 4.829 27.033.298 1.739-.132 3.658 1.205 5.068 1.517-1.853 2.224-4.33 3.38-7 1.012-2.336 2.917-5.058 2.897-7.482-.024-2.634-1.989-6.541-2.897-9.894-2.747-10.18-4.627-22.526-5.31-33.798-.286-4.79-.599-15.369 2.173-16.651 4.26-1.953 5.039 5.279 5.314 8.931.727 9.816 1.472 17.977 2.653 26.796.588 4.424.537 9.125 2.653 12.307 1.087-4.007 3.859-6.135 3.381-11.343-.354-3.776-1.836-7.961-2.657-12.312-1.881-9.976-3.613-22.603-2.172-32.828-7.42 4.895-13.08 10.88-18.345 17.864m37.172 6.998c.374-8.612-.171-17.542 1.451-25.827-1.406-1.49-2.985-2.807-4.832-3.86-.419 11.445 1.112 20.937 3.381 29.687m-13.998-27.996c1.884 10.984.256 27.58 3.381 38.134.028-2.628 1.285-4.721 1.205-7.243-.031-.942-.699-1.828-.727-2.895-.077-3.357 2.501-4.84 2.896-6.998.158-.856-.184-1.704-.239-2.656-.26-4.524-.739-13.496-.239-17.622.311-2.591 1.523-2.889 2.895-4.102-3.547-1.17-6.817 1.788-9.172 3.382m-115.855-.485c3.969-.852 3.249-5.907 1.205-8.449-.679 2.352-2.244 5.937-1.205 8.449m130.82-6.758c-.123-4.784.338-10.157-.486-14.245-1.726 3.42-1.302 11.317.486 14.245m6.272-27.514c.371.183.556-.211.556-.604.001-.395-.184-.79-.556-.603zm-5.31-1.933c-.187-2.433 1.677-2.834 2.414-4.344-.114-1.978-.772-3.405-1.929-4.344-.848 1.936-1.566 6.416-.485 8.688m-13.032 4.828c-.889 8.778-1.243 19.654 5.311 21.483 1.167-11.361.363-26.644 3.377-35.966.506-1.561 1.784-2.705 1.691-4.105-.112-1.635-4.856-7.246-6.519-7.963-1.365 6.724-2.917 17.189-3.86 26.551m-7.724-26.312c-1.85 8.937-3.47 18.095-3.624 28.723 1.792 2.722 3.444 5.57 6.038 7.485 2.082-6.675 1.31-17.489 2.415-24.618.9-5.812 2.798-10.821 3.859-14.967-3.375-2.407-6.236 1.904-8.688 3.377m206.125 24.38c-.949 4.073-1.884 8.376-2.896 12.553-1.052 4.33-2.943 8.895-3.137 12.546-.056 1.043-.284 2.55.723 3.142 3.821-13.897 6.509-28.352 9.897-42.478 1.313-5.478 3.744-11.286 3.382-17.382-2.613 10.786-5.363 20.43-7.969 31.618m8.449-31.62c1.029-.166.966-2.913.243-3.373.013 1.22-.419 1.998-.243 3.374m1.444-5.067c-.075-.579.208-2.758-.239-2.168.081.577-.204 2.753.239 2.168m.97-3.863c.073-1.073.541-2.224-.242-2.895.156.894-.312 2.408.242 2.895m.721-6.997c-.284 5.241.866 1.496 0 0m5.557.963c.879.14 1.031-1.842.238-1.926-.37.346-.211 1.233-.238 1.926m-185.855 8.688c.817-6.104-1.49-15.332-5.792-16.167a2.9 2.9 0 0 0-1.094.067c-.48.11-.848.219-1.802-.313-6.54 2.287-5.978 16.06-.243 18.831-2.216-4.85-1.912-12.616.964-16.655-.243 7.645.103 14.7 3.142 19.072 3.314.651 4.506-2.438 4.825-4.835m3.381-1.205c.668-7.38.54-15.962-6.035-16.898 4.531 3.118 5.291 9.997 6.035 16.898M394.886 21.7c-.114-.858.249-3.457-.242-3.13.111.858-.249 3.456.242 3.13m.963-4.097c-.048-1.396.558-2.45-.242-3.38.039.986-.811 2.884.242 3.38m-193.09 1.201c2.373-.92 5.532-1.067 8.448-1.44-.939-5.048 2.848-7.237 3.139-11.83-8.068-1.832-11.757 6.065-11.587 13.27M70.252 138.525c.399-3.172 2.612-5.701 2.17-8.929-1.668.208-3.275 2.496-5.069 3.38v2.653c.99-.021 1.224.713 1.461 1.448.235.726.47 1.452 1.438 1.448m35.478 234.608c-.98-1.628-.152-3.692-.963-5.071-.824-1.384-2.656-1.302-4.41-1.22-.652.03-1.292.06-1.867.015-.706 1.371.929 3.2 0 4.821-2.163 1.393-5.725 1.306-9.364 1.22-2.356-.055-4.746-.111-6.809.235-1.333.228-2.712 1.6-3.862 1.448-1.642-.221-4.222-4.794-4.825-5.792-.724-1.205-1.244-2.299-1.93-3.38-.664-1.046-1.27-1.968-1.694-2.896 4.3 1.746 6.557 5.514 9.173 8.93 4.794-1.158 11.87-.035 15.446-2.411-1.607-4.988-9.928-3.271-13.998-5.791 1.462-1.123 4.825-.326 6.515-1.213-4.423-1.288-9.186-2.231-14.237-2.896 4.275-.388 9.534-1.233 14.237-.242 3.478.734 6.26 3.138 9.173 3.623 4.361.728 7.226.034 9.9 1.933 1.773 1.254 2.591 3.519 3.859 5.792 1.271 2.272 3.623 3.45 2.653 5.791-.467 1.143-1.926 1.559-3.616 1.933-.797 2.017-2.28 3.353-2.896 5.549 7.15-.021 13.981-2.431 22.446-1.933 1.708-7.156.915-14.873 1.206-22.688.831-22.211 1.146-46.812.966-69.513-1.596-1.14-4.159-1.313-5.553-2.654-1.073-5.705.513-11.279 0-16.172-.138-1.337-1.171-2.564-1.208-3.86-.097-3.616 3.169-6.969 2.171-11.105-4.195.337-8.829-.06-13.575-.456-4.479-.374-9.057-.749-13.457-.507-3.083.166-6.679 1.005-9.65 1.445-1.314.197-2.329.904-3.624.724-2.169-.291-2.657-2.536-4.102-5.065-.838-1.473-2.216-2.362-2.895-3.866-2.244-4.964-1.635-14.631 4.344-13.994-1.486-2.415.18-4.887.242-7.489.084-3.568-.931-7.936-1.69-11.583-.78-3.742-1.923-7.327-2.657-10.621-2.456-.883-6.051-.796-7.236-2.896-1.646-2.892-.727-10.575-.727-14.964 0-5.31-.105-10.614-.725-14.722-.696-4.614-2.722-10.413-2.899-15.685-.26-7.966.803-15.947-.478-22.695-2.951-.603-3.783-2.439-3.38-6.513.491-4.967 3.993-11.423 3.858-15.206-.507-.292-1.05.398-1.772 1.088-.851.811-1.95 1.622-3.535.842-1.372-.676-1.471-3.038-1.206-5.312.378-3.262 2.723-7.457 2.655-10.377-.154-6.11-5.647-9.803-8.211-13.759 1.11 13.776 4.566 25.207 6.038 38.616-4.343-10.437-7.915-24.975-9.172-38.373-.28-2.986-.27-7.677 1.205-8.689 2.74-1.88 9.917 1.275 12.312 2.655 13.31 7.658 18.542 28.14 21.964 47.307 1.78 9.979 3.032 20.27 3.862 30.655.887 11.075.288 22.336.967 33.552.543 8.996 2.473 19.641 2.892 30.164.222 5.521.751 11.539-3.858 11.83.12 1.403-.275 3.325.239 4.343 8.86-1.921 21.878-1.777 32.1-3.134-4.729-.697-7.982-1.608-11.102-3.866-1.261-.907-2.041-2.46-3.381-3.377-.769-.534-1.767-.441-2.411-.964-2.217-1.804-3.731-5.834-5.071-8.929-1.517-3.524-2.653-7.573-2.896-11.105-.215-3.222.907-7.407 0-10.864-.527-1.999-3.034-2.321-3.377-4.829-.538-3.9 1.693-8.579 2.414-11.583 1.164-4.857 1.026-9.699 2.172-14.244 1.045-4.154 2.566-8.265 3.862-12.307 2.477-7.742 7.039-14.608 9.893-22.443 5.75-15.755 12.173-31.093 22.932-41.762-1.254 5.671-5.366 10.566-7.725 15.931 2.983-.779 3.817-4.323 5.314-6.758 2.224-3.61 5.057-6.602 5.791-11.826 2.65-1.448 4.75-3.457 5.792-6.519-1.774-.236-2.854 2.293-4.586 2.895 4.897-12.656 15.56-21.68 26.312-29.678 6.013-4.486 11.213-8.074 20.032-9.18.655-1.718-2.383-1.108-2.414-2.411.755-.502 1.506-.24 2.177.02.549.216 1.046.431 1.445.223 4.053-2.84.174-8.522 1.203-14.483.308-1.763 1.535-3.533 1.451-4.583-.093-1.111-1.395-1.892-1.451-2.895-.083-1.601 2.136-3.198 3.381-4.594 2.656-2.972 4.482-6.685 9.414-7.482 2.941-3.03 9.34-5.652 14.722-3.858 1.764.589 2.442 2.84 3.62 3.38 3.97 1.826 11.102-.686 11.345 4.344.045.998-.862 1.704-1.209 2.895-1.217 4.23.779 8.931 1.933 13.756 1.243 5.185 3.319 9.377 2.652 16.173-.48 4.953-2.486 12.138-7.481 12.554-1.185-2.62 1.281-5.103 2.175-7.725.866-2.567 1.849-5.64 2.169-8.445.896-7.815-2.29-14.584-4.344-20.52-2.064.041-3.506 2.181-5.307 3.38-1.219.81-2.386 1.157-3.62 1.929 1.424 7.48 2.255 18.613-3.141 23.17-5.394 4.56-13.413-.006-16.412-4.582-1.76.412-2.806 1.539-4.587 1.93 3.02 4.143 6.11 8.217 8.449 13.031.544-.98-.118-3.173 1.208-3.381 2.981-.245 5.817.784 8.688 1.815 2.88 1.033 5.796 2.067 8.931 1.812 2.285-.19 3.858-2.026 6.276-.73.561 5.285-7.399 5.49-13.516 4.592-3.281-.485-7.537-.714-9.173 2.411.866 3.031 1.081 6.84-1.206 8.446 8.938 13.19 17.979 26.277 24.858 41.519.743.073 1.319-.159 1.892-.39.659-.266 1.315-.533 2.216-.335 1.898.415 1.836 2.63 3.135 3.62 9.577.367 18.684 1.299 27.271 3.138 2.717.582 5.578 1.656 8.21 1.93 2.276.232 4.981-.589 7.724-.966.906-.125 1.849-.058 2.747.008.936.069 1.822.138 2.561-.008 1.08-.216 1.703-1.29 2.656-1.687 1.373-.586 3.654-.932 5.553-1.452 1.995-.54 4.197-1.226 5.792-1.205 4.153.055 7.166 3.196 11.344 3.623 2.383 3.065 8.868 7.461 10.139 12.311 1.088 4.163-1.566 4.932-1.694 8.202-15.952 3.246-37.082 2.737-57.199 3.135-7.504.152-15.049.16-22.447.489-8.899.388-17.24 1.153-25.827.963-.423.706-.569 1.684-.485 2.895 3.613.763 7.495.462 11.104.243 31.253-1.898 66.17-2.903 99.202-1.451 5.386.236 10.737-.132 16.034-.499 5.502-.381 10.945-.763 16.308-.468 8.308.465 16.715 1.296 25.103.484 8.474-.823 17.231-1.315 25.342-.727 2.464.184 4.916 1.556 7.726.727 1.053-1.308.63-5.288.963-6.514-3.343-.545-7.029 1.517-10.136 1.928-4.393.578-9.221.449-14.157.319-4.447-.117-8.98-.234-13.361.167-10.537.956-25.28.72-37.168.72-3.301 0-6.879-.128-10.139-.238-.553-.02-1.161 0-1.794.021-2.399.076-5.134.154-6.412-1.951 2.156-2.113 7.926-.61 11.105-1.691.901-.838.007-2.043.72-3.138 6.625-2.21 13.905-3.748 21.484-5.071 4.908-.852 10.407-2.761 16.656-1.445 1 1.971 3.119 2.83 2.653 6.274 1.205.248 2.971.654 4.104.242.246-12.643 3.869-25.241 5.311-36.687-.512-.454-1.781-.152-2.176-.724-2.577 2.973-2.081 9.014-4.344 12.311-3.075 1.345-6.671.423-7.724-2.176.55-8.333 2.989-16.266 4.829-24.136 4.586-19.62 9.483-38.533 14.002-58.409.456-2.01.643-4.066 1.205-6.034.993-3.485 2.344-7.365 3.38-11.583 3.083-1.705 7.362-.118 8.203 1.682.873 1.872-1.028 5.412-1.688 8.453-.776 3.581-1.059 7.004-1.69 9.412.274 1.177 2.183.717 2.415 1.929.519 12.345-3.884 19.776-5.072 30.414.576 1.118 2.841.54 3.139 1.933-2.743 19.193-8.248 36.763-11.583 55.754-1.081 6.14-1.629 12.558-3.621 18.582 1.979-.333 5.911.935 7.722 1.212 2.423.372 5.574.233 8.791.094 3.363-.146 6.799-.291 9.553.148 1.331.208 2.433.81 3.382.963.939.146 1.894.12 2.783.096 1.608-.046 3.008-.091 3.733.868 1.763 2.344.131 8.084-1.93 9.415-1.787.599-3.471-.72-5.071-.967-2.501-.385-4.607.426-7.24.721-4.427.501-9.47-.402-14.487-.721-10.662-.675-21.697-.204-32.824.482-6.332.394-12.802.65-18.58.239-10.389-.725-20.355-.856-29.929.246-3.194 3.085-7.471 5.077-10.62 8.208.61.478 1.787 1.882 2.895 2.176 2.128.548 8.266.672 10.136 0 1.109-.405 1.026-1.829 2.172-2.902 1.677-1.566 4.479-1.968 6.276-2.654-.668 2.307-3.564 2.387-3.861 5.071 3.566.692 8.5.028 11.826.964-6.327 2.535-14.002 1.89-20.999 2.653-2.224.243-5.314 5.438-6.758 7.24-1.996 2.493-4.469 4.966-4.826 7.966 7.905 1.74 13.067-1.437 18.342-4.101 5.743-2.903 9.446-6.605 14.483-10.139 2.244-1.576 4.825-3.869 7.963-3.619.26 2.341-2.255 3.086-3.619 4.1-4.191 3.111-8.757 6.765-11.348 11.826 5.667.402 11.327-2.556 15.934-5.071 4.704-2.563 8.854-6.214 13.031-8.923-3.069-.714-6.017-1.552-9.65-1.69 10.083-2.119 23.655-1.782 36.861-1.444 5.749.147 11.427.294 16.719.238 1.996 1.691 1.282 4.503 1.448 7.236.138 2.29.79 4.667.967 7.24.543 7.964-.025 17.271-.482 24.861-.143 2.352.336 5.23-1.448 6.758-2.508-1.908-2.394-6.522-2.661-10.617-.276-4.358.413-9.124-.235-13.038-10.108.866-22.349-.166-30.898-2.169.637-.567 2.092-.325 2.657-.963-1.76-1.025-3.274-.879-5.31-.243.044.68.419 1.03 1.205.964-10.348 2.838-22.744 2.76-35.227 2.683-6.01-.039-12.041-.076-17.872.213-3.343.165-6.661.987-9.897.966-20.229-.121-43.033-.128-64.204.725-1.749 9.341-.724 20.866-1.448 31.618-.232 3.503.004 7.308-.723 10.135-.291 1.13-1.434 2.065-1.691 3.139-.797 3.381.388 8.22.727 10.862.713 5.605.482 11.944.482 18.104 0 29.741-.464 61.306.724 90.992.505 12.616-.167 24.844.723 36.212.136 1.712.971 3.291 0 5.3 4.244.405 9.561.258 14.778.112 3.715-.103 7.379-.208 10.568-.112-.256-1.96-2.916-4.51-3.38-7.474-.354-2.232-.312-5.73 1.447-6.035 3.156-.556 2.023 3.553 2.414 6.276.385 2.653 1.875 4.524 3.379 5.549 5.002-1.946 4.475-11.084 3.137-16.654-1.918 1.379-.962 5.632-2.656 7.24-2.989-.465-1.708-5.21-2.172-8.203-.239-.044-.865.284-1.527.611-.73.361-1.504.721-1.85.587-.503-1.774.592-4.392 2.171-5.057.588-.254 1.483-.238 2.479-.22.6.01 1.237.02 1.865-.029 5.19-.388 11.594-2.689 18.103-1.926 2.84.332 5.729 1.759 8.209.72.066-20.811 0-44.927 0-67.097 0-6.673-.395-13.642.482-19.794.186-1.337.779-2.2.967-3.619.374-2.935-.555-5.755.72-7.965.684-1.191 3.827-2.3 6.033-2.896 3.486-.949 7.802-.747 11.349-.97 1.552-.093 3.201-.588 4.829-.72 6.222-.506 13.073-.341 19.829-.177 6.206.151 12.332.302 17.816-.066 7.032-.471 15.013-1.205 23.895-1.205 5.204 0 16.818-1.26 17.624 1.929.41 1.626-.65 2.321-1.932 3.378 2.224 1.511.903 3.519.723 6.034-.148 2.106.458 4.594.481 7.001.078 7.104 0 14.427 0 21.968.005 17.498 1.273 35.386 1.206 51.889-.027 8.735 1.518 18.712 1.453 27.275-.011 1.704-.863 3.374 0 5.07 2.455-.554 1.214-4.371 1.208-6.754-.063-12.477-.706-25.356-.97-38.622-.513-26.064-.72-51.82-.72-78.448 0-6.522-.09-13.193 0-19.549.142-10.063-.595-19.184 1.205-27.76 2.48 5.784 2.348 12.546 2.653 19.314.313 6.859.375 14.133.485 21.241.215 14.07.242 28.784.242 42.96 0 21.54-.172 43.134 1.691 63.725.468 5.195.388 10.094.481 15.926.018.998-.789 3.95 1.688 3.624 1.281-.825.734-2.709.727-3.866-.052-9.879 0-21.108 0-31.619 0-14.639-1.095-29.221-.485-43.686.285-6.682.195-13.588.243-20.514.132-19.56-1.292-41.209 1.933-60.341 1.607 7.51 1.687 16.742 1.687 26.306 0 5.85.45 11.835.481 17.624.062 9.835-.853 19.737-.481 29.683.373 10.025 0 20.147 0 30.173 0 10.004.723 19.924.723 29.928 0 9.983-.214 20.021.728 29.935 1.364 1.053 3.616.076 5.307 0-.264-.942-1.669-.991-2.172-2.174-.552-1.31-.174-3.999-.481-6.513-.738-6.014-.514-13.807-.729-20.043-.612-17.777-1.205-35.339-1.205-53.34 0-11.749-.107-24.032 1.69-33.066.985.138.173 2.078.964 2.411 1.649-.769 2.414-2.411 3.624-3.616-1.608-1.421-4.275-.835-4.588-3.14-.664-4.894 11.311-4.882 11.827 0 .207 1.938-1.581 3.239-1.929 5.073-.689 3.571 1.014 7.602.48 11.579 1.732-.793 2.086-3.536 2.415-5.553 3.917-23.714-1.641-51.328-1.209-75.541.963 3.782 2.574 6.921 2.9 11.341 1.105-5.483-1.181-11.667-.967-17.861 6.394 13.427 6.066 31.363 7.725 49.965.672 7.544-.514 15.483.481 22.931.323 2.397 1.618 4.628 1.931 6.996 2.542 19.299.968 41.3-3.621 56.236-2.186 7.115-4.001 12.97-8.692 16.412.257 6.942-.345 16.357 0 24.622.125 2.937.763 5.924.243 7.967-.45 1.802-3.069 3.091-2.168 5.072 2.424.477 5.205.353 8.071.23 2.29-.099 4.635-.197 6.893.012 1.621.146 3.211.797 4.826.963 3.287.326 6.982-.187 8.93 1.933-1.234 2.141-4.158 2.452-6.998 2.653-9.168.624-18.903.382-28.483.963-9.423.576-18.734 1.594-27.996 1.206-9.609-.409-19.309 0-28.966 0-9.124 0-18.135 1.344-27.275 1.933-28.101 1.794-57.256 1.205-86.647 1.205-9.644 0-19.225-.879-28.246-.484-3.103.138-11.915 1.33-12.064-1.927-.119-2.614 3.193-2.528 5.812-2.441.513.017.999.033 1.427.03 3.807-.048 6.613-.533 9.897-.485-.167-17.34.966-35.124.966-53.102 0-17.402 2.457-34.71.967-51.898-.976-11.299-.482-25.842-.482-39.095 0-12.026-1.028-24.455.239-35.242.34-2.875 1.192-6.547.482-10.378-.232-1.254-.821-2.016-.967-3.137-.339-2.665.118-5.886.246-8.931.419-9.97-.01-21.075.964-29.932-1.445-2.55.047-4.223.966-6.273-1.803-.755-3.482-.465-5.131-.176-1.741.306-3.451.612-5.247-.309-1.995-1.022-3.946-8.528-.728-10.135 1.685-.844 4.155-.754 6.631-.665 2.351.086 4.707.171 6.405-.541-.683-1.677-3.378-3.361-4.106-5.795-1.448-.642-2.535-1.646-4.101-2.172-1.274-.084 1.011-.825 0-1.449-2.508-2.798-4.312-6.311-7.724-8.209.061 11.446-.832 22.177-2.896 31.861-.682 3.202-1.781 6.448-2.172 9.415-.454 3.475.723 6.749 0 9.658-.35 1.399-1.362 2.148-1.93 3.374-1.877 4.039-2.002 8.681-4.348 12.799 2.419 2.74 5.977 3.987 10.622 5.546 2.615.886 9.133 3.478 10.138 5.792.846 1.954.242 8.701.242 13.032 0 21.572-.242 42.814-.242 64.207 0 12.307 1.476 22.176 0 32.826-.353 2.55-.623 5.57-1.205 7.482-.815 2.668-3.9 5.244-4.108 7.967-.229 3.138 2.12 4.712-1.449 6.034.184 7.302-.664 14.715 0 21.962.41 4.42 2.716 8.528 1.698 12.796-3.141 3.9-8.393-.091-8.452-4.345-1.212-2.126-5.175-5.112-6.276-7.967-1.552-4.018-2.152-9.864-4.344-14.721-.936-2.065-2.203-4.233-3.382-6.519-1.27-2.474-2.818-4.863-2.41-7.24.458-2.674 3.474-4.004 4.586-5.792-1.434-1.877-2.525-2.986-1.69-5.791.963-3.249 4.995-3.547 5.791-5.557.673-1.699-.464-3.992-.72-6.274-.686-6.031 1.32-11.494 3.135-15.931.869-2.12 1.728-4.49 2.653-6.277 1.285-2.467 3.447-4.392 4.347-6.758.329-.863.084-1.801.482-2.892.533-1.476 1.764-2.81 2.172-5.072.368-2.04.797-4.669.481-6.518-.46-2.731-4.79-4.864-2.653-9.174-4.271-1.43-4.073 2.741-5.791 4.594-4.084 4.386-13.334 5.327-22.208 3.859-1.438-.239-2.819-1.531-4.829-1.933-3.263-.655-7.593-.482-11.341-.482-5.847 0-11.292-.397-16.897-.484-2.476 8.275 2.268 17.433-.481 24.86-.683 1.836-3.038 2.792-4.106 4.593-1.877 3.145-.823 9.92-.965 14.959-.738 26.651.259 54.647 1.208 80.136 6.332-.022 13.808.117 21.723.242 5.476.083 11.736 1.545 15.445.485 2.827-.811 3.187-3.645 5.315-4.351 7.274-2.403 12.878 4.212 12.065 10.385-.642 4.863-5.696 10.08-11.345 8.681-4.056-1.004-4.995-4.731-7.96-8.203-11.335-1.143-23.881-2.349-35.728-2.169 1.819 3.132 3.519 6.361 2.176 9.894-1.334 3.505-5.598 6.131-10.139 5.306-1.597-.284-4.756-1.696-6.031-2.896-4.24-3.942-1.22-11.547 3.374-13.266-1.666-.333-2.958 1.198-4.586 1.683-3.447 1.026-8.501 1.677-13.274 2.411-5.934.921-11.882 1.899-17.136.963-1.368-.035-2.228 2.418-3.863 2.903 4.147.311 7.902.252 11.67.193 3.031-.048 6.071-.096 9.329.049.389.017.884-.008 1.423-.032 2.194-.099 5.14-.199 4.854 2.443-.375 3.443-11.947 2.266-14.965 1.934-2.176-.244-4.413-.091-6.695.062-1.686.113-3.399.226-5.13.179-3.853-.111-7.753-.048-11.588-.241-3.789-.194-7.25-.951-11.102-.97-18.968-.098-40.938-.008-58.408.727-.607.028-10.268 1.489-9.9-2.411.228-2.418 6.15-1.691 8.209-1.691 9.682 0 19.426-.845 28.72-.969 1.136-.43-.884-1.185 0-2.176.405-.713 1.641-.61 2.656-.721 1.403 1.053-1.34 1.955-.727 2.897 14.763-.201 29.201.103 43.69.727-1.004-2.335-2.78-2.75-3.38-4.829-1.66-5.799 5.594-12.692 11.344-8.93 2.037 1.33 2.213 4.136 3.863 6.276 2.68.721 5.424-.505 7.721-.962-1.372-1.019-3.614.069-3.859-1.691-.423-3.048 9.879-.678 9.654-4.343-1.338.467-3.613.416-5.965.364-1.796-.039-3.637-.078-5.137.114-1.08.138-2.26 1.579-2.896.242.272.142.538.043.752-.057.255-.119.434-.238.454.057 2.646-2.819 7.786-3.16 10.62-5.792" clip-rule="evenodd"/></svg>