<svg width="448" height="402" viewBox="0 0 448 402" fill="none" xmlns="http://www.w3.org/2000/svg">
<path fill-rule="evenodd" clip-rule="evenodd" d="M404.475 152C407.433 164.515 405.68 185.104 405.68 200.994C405.68 203.318 405.541 205.809 405.438 207.997C405.348 209.916 405.607 212.32 403.99 213.546C402.683 210.939 402.514 206.47 402.299 202.684C401.835 194.516 402.126 185.122 402.543 176.379C402.958 167.602 402.264 158.934 404.475 152Z" fill="#4D94C4"/>
<path fill-rule="evenodd" clip-rule="evenodd" d="M339.289 153.969C339.777 154.981 340.826 154.745 341.859 154.509C342.747 154.306 343.622 154.103 344.118 154.693C343.876 157.131 338.694 156.847 336.875 156.144C337.079 155.86 337.193 155.496 337.113 154.935C338.021 154.793 339.393 155.119 339.289 153.969Z" fill="#4D94C4"/>
<path fill-rule="evenodd" clip-rule="evenodd" d="M415.269 157.589C415.66 157.519 415.685 157.818 415.998 157.832C420.417 161.981 420.826 170.44 420.826 179.796C420.826 182.253 421.49 185.196 419.855 186.797C418.228 186.61 417.487 184.348 417.203 182.692C416.253 177.168 416.676 168.604 415.998 162.418C415.796 160.589 414.92 159.515 415.269 157.589Z" fill="#4D94C4"/>
<path fill-rule="evenodd" clip-rule="evenodd" d="M235.064 277.566C234.586 276.257 232.852 275.793 232.412 274.671C231.102 271.347 232.558 260.788 232.893 256.567C233.582 247.953 232.834 238.704 232.412 231.222C232.002 224.072 231.816 215.007 234.823 212.156C237.572 214.536 240.461 216.423 243.513 219.153C245.832 221.232 249.791 224.509 250.272 227.847C250.834 231.756 248.408 236.348 247.861 240.155C247.611 241.859 247.903 243.561 247.615 245.223C246.925 249.256 245.429 252.868 244.238 256.329C243.004 259.91 241.223 263.18 240.136 266.707C239.825 267.711 240.015 268.861 239.651 269.845C238.626 272.623 236.111 275.374 235.064 277.566Z" fill="#4D94C4"/>
<path fill-rule="evenodd" clip-rule="evenodd" d="M343.829 345.364C342.603 341.104 344.334 333.747 347.931 333.781C351.411 333.816 351.512 343.307 348.897 345.364C347.979 345.224 347.225 345.383 346.544 345.542C345.579 345.769 344.759 345.994 343.829 345.364Z" fill="#4D94C4"/>
<path fill-rule="evenodd" clip-rule="evenodd" d="M60.9583 376.969C61.0659 378.085 63.1581 378.195 63.1271 376.969C62.6252 376.498 61.5263 376.789 60.9583 376.969ZM39.2329 375.043C37.7046 374.405 35.4913 374.697 33.6836 375.043C33.5522 375.535 33.9816 377.226 34.1647 378.182C35.2874 378.667 36.0014 379.56 36.8188 380.35C43.9782 384.382 56.5668 384.257 66.0233 385.178C66.8263 382.283 70.4634 382.213 71.822 379.865C70.9869 378.043 68.6484 377.731 66.9929 376.727C66.1682 379.844 58.2493 379.303 57.0925 376.727C53.3105 381.042 41.3458 380.46 39.2329 375.043ZM57.0925 371.177C56.7945 372.196 57.7578 373.844 58.5411 374.558C59.6007 373.443 61.4922 373.165 63.3692 372.867C63.8234 370.837 59.3306 370.519 57.0925 371.177ZM40.6805 371.904C40.3825 378.085 55.3541 378.909 55.1637 374.315C55.0489 371.51 46.9231 368.288 43.3336 369.251C41.7473 369.674 40.7395 370.706 40.6805 371.904ZM71.0946 359.836C71.1152 360.217 70.9766 360.751 71.3367 360.799C68.8668 362.753 64.0832 361.548 60.7161 363.452C62.8777 369.335 69.2548 371.011 71.5788 376.727C72.9436 378.362 75.7736 378.403 76.1617 380.593C76.4638 382.283 74.8279 384.133 74.9562 386.384C72.2235 387.007 69.4173 389.522 65.299 389.522C63.4944 389.522 61.2811 388.642 58.7832 388.317C53.4316 387.603 47.4425 387.375 42.6134 386.384C38.0067 385.441 32.357 383.501 33.1983 377.939C32.177 375.639 25.3374 372.091 31.2654 370.691C35.7624 365.379 43.1959 362.995 49.6103 359.594C56.0567 361.257 64.7557 359.538 71.0946 359.836Z" fill="#4D94C4"/>
<path fill-rule="evenodd" clip-rule="evenodd" d="M374.657 360.797C374.861 361.4 374.975 362.092 374.899 362.972C371.816 364.13 366.998 362.876 363.797 363.45C361.854 364.642 365.477 375.117 362.589 375.769C360.219 376.288 361.078 371.792 361.14 370.454C361.292 367.143 360.867 364.025 361.383 361.76C364.458 359.571 369.848 362.606 374.657 360.797Z" fill="#4D94C4"/>
<path fill-rule="evenodd" clip-rule="evenodd" d="M375.062 375.113C372.903 376.374 367.128 375.896 364.925 375.59C364.745 374.206 365.039 373.299 365.893 372.937C366.88 373 367.302 373.616 368.064 373.901C369.852 373.914 374.112 373.464 375.062 375.113Z" fill="#4D94C4"/>
<path fill-rule="evenodd" clip-rule="evenodd" d="M368.374 386.11C366.37 386.631 363.149 386.382 361.375 385.868C362.919 385.169 367.312 384.407 368.374 386.11Z" fill="#4D94C4"/>
<path fill-rule="evenodd" clip-rule="evenodd" d="M374.5 385.931C374.507 385.563 376.294 385.404 375.952 386.173C375.214 386.346 375.071 385.931 374.5 385.931Z" fill="#4D94C4"/>
<path fill-rule="evenodd" clip-rule="evenodd" d="M35.1359 387.147H33.6873V386.427C34.1663 385.977 35.4618 386.067 35.1359 387.147Z" fill="#4D94C4"/>
<path fill-rule="evenodd" clip-rule="evenodd" d="M21.437 390.316C21.5343 387.275 28.3408 385.632 28.1949 389.11C28.1018 391.397 23.1899 392.193 21.437 390.316Z" fill="#4D94C4"/>
<path fill-rule="evenodd" clip-rule="evenodd" d="M52.438 389.566C52.1234 390.784 51.5688 391.755 49.7807 391.498C48.5266 389.718 51.0069 388.658 52.438 389.566Z" fill="#4D94C4"/>
<path fill-rule="evenodd" clip-rule="evenodd" d="M148.75 395.62C149.367 390.589 158.225 391.601 165.401 391.997C168.131 392.149 172.149 392.578 172.403 394.172C172.994 397.906 164.903 397.068 161.3 397.068C156.292 397.068 150.919 397.837 148.75 395.62Z" fill="#4D94C4"/>
<path fill-rule="evenodd" clip-rule="evenodd" d="M132.762 392.684C133.074 393.016 133.809 392.926 134.453 392.926V391.479C133.185 391.173 132.984 391.942 132.762 392.684ZM272.997 370.48C272.125 369.392 269.485 369.426 268.168 369.516C267.735 369.885 267.974 370.924 267.206 370.958C266.824 370.612 267.011 369.704 266.239 369.752C265.81 374.595 269.727 382.562 267.206 388.097C275.889 390.883 287.089 387.536 296.171 386.884C298.803 382.964 300.3 374.623 297.133 370.238C296.586 370.248 296.025 370.218 295.47 370.189C294.52 370.138 293.591 370.089 292.789 370.238C292.624 372.967 294.043 377.858 292.547 380.616C292.069 381.184 290.787 380.948 290.132 381.343C289.568 385.701 285.366 384.086 281.199 383.753C280.118 383.667 278.987 383.715 277.91 383.764C275.625 383.867 273.579 383.97 272.755 382.785C272.076 378.8 273.704 375.059 274.202 371.443C274.785 374.484 275.567 377.317 275.893 380.616C279.848 380.92 284.075 380.962 287.718 381.578C288.827 378.503 288.645 372.69 287.96 369.274C283.14 369.026 275.426 366.808 272.997 370.48ZM310.165 371.927C310.768 374.193 312.222 376.424 313.788 376.75C311.897 373.992 311.617 366.746 311.856 361.786C309.129 362.735 309.34 368.811 310.165 371.927ZM305.822 367.342C305.866 371.276 307.82 377.817 310.408 379.41C311.181 379.881 315.6 381.987 315.479 378.683C315.161 378.46 314.566 378.552 313.89 378.645C313.309 378.724 312.67 378.804 312.098 378.683C306.715 376.39 307.298 366.164 308.959 360.102C308.911 359.825 308.689 359.72 308.474 359.617C307.193 361.661 305.787 364.113 305.822 367.342ZM358.438 355.993C358.023 356.645 359.007 357.566 358.682 358.89C357.823 360.018 357.161 361.335 356.991 362.997C356.237 370.438 357.272 382.915 357.957 387.855C363.303 389.289 374.965 391.188 377.751 386.164C378.602 382.084 378.024 377.159 378.231 372.405C378.363 369.392 378.855 366.337 378.474 363.476C378.128 360.871 376.271 358.834 377.023 355.993C374.1 355.405 370.96 355.675 367.723 355.945C364.68 356.199 361.551 356.454 358.438 355.993ZM315.479 357.691C315.874 357.004 316.289 355.765 315.237 355.515C314.917 355.896 314.714 357.643 315.479 357.691ZM327.786 357.691C323.419 357.497 320.342 354.484 316.443 356.235C318.361 366.143 317.384 378.946 321.991 386.164C324.697 388.93 327.302 388.129 330.113 387.327C332.096 386.762 334.182 386.197 336.477 386.884C341.777 379.479 343.118 366.829 343.232 355.03H342.751C338.563 356.381 332.387 357.885 327.786 357.691ZM374.127 353.583C375.024 354.047 376.711 353.514 376.783 352.378C376.735 352.1 376.513 351.997 376.299 351.893C375.427 352.308 374.553 352.717 374.127 353.583ZM357.718 352.136C359.055 354.503 364.775 353.749 367.854 353.583C367.563 353.237 367.279 350.874 367.368 349.96C363.856 349.44 358.716 349.336 357.718 352.136ZM386.681 342.477C386.479 343.156 387.017 343.1 386.92 343.682H387.886C388.09 343.406 388.208 343.038 388.128 342.477C387.859 342.522 387.726 342.43 387.593 342.339C387.44 342.233 387.286 342.127 386.92 342.234C386.905 342.388 386.886 342.525 386.681 342.477ZM326.335 334.51C323.128 334.42 319.816 332.128 316.927 332.819C315.451 336.955 316.477 340.863 316.927 346.1C317.26 349.979 318.265 353.603 320.3 354.546C327.46 353.763 334.357 354.622 340.094 352.613C342.041 351.934 343.995 349.772 346.371 351.172C346.1 348.422 349.031 348.166 350.471 346.336C353.312 342.755 354.04 335.203 351.442 330.894C350.581 330.599 349.395 330.63 348.209 330.661C346.998 330.692 345.787 330.724 344.923 330.408C343.565 331.386 342.422 332.577 340.821 333.305C340.253 332.425 340.662 330.569 339.373 330.408C335.016 331.15 331.257 334.656 326.335 334.51ZM204.207 329.688C205.415 327.769 202.952 326.592 201.068 326.308C201.75 327.798 202.804 328.919 204.207 329.688ZM315.717 322.2C316.227 325.145 316.85 328.912 318.613 329.688C320.003 330.299 324.278 330.056 326.097 329.93C332.855 329.467 338.029 328.657 339.616 323.655C341.583 317.419 340.032 307.177 338.888 302.411C334.018 306.308 327.228 308.293 318.857 308.69C317.592 308.176 316.528 307.475 314.512 307.722C312.84 312.84 314.811 316.947 315.717 322.2ZM133.005 289.858C134.218 293.073 133.442 298.276 135.177 300.967C135.707 297.715 135.679 293.904 135.658 290.104C134.723 289.622 134.156 289.712 133.005 289.858ZM329.234 301.207C335.053 300.226 338.4 295.182 336.235 289.138C334.247 289.727 333.405 291.459 331.167 291.795C328.469 294.375 324.118 295.345 319.338 295.893C317.592 296.096 315.313 295.602 314.27 297.101C315.118 301.678 322.816 302.284 329.234 301.207ZM300.996 293.24C301.886 291.556 303.64 290.735 304.131 288.653C302.116 289.055 300.806 291.438 300.996 293.24ZM420.471 321.236C420.235 325.199 420.79 329.418 420.956 333.305C421.04 335.376 420.36 338.03 421.677 339.581C427.726 327.963 431.331 313.844 431.331 295.893C431.335 293.038 431.916 289.92 430.61 287.447H430.129C428.943 300.746 431.369 317.661 420.471 321.236ZM323.2 285.03C319.041 286.253 313.56 288.797 312.826 292.033C313.213 292.526 314.032 292.591 314.994 292.518C315.548 291.802 315.988 290.627 317.17 289.858C320.232 287.878 329.514 285.442 332.855 286.723C331.506 283.99 326.838 283.966 323.2 285.03ZM304.374 288.653C306.184 286.765 308.167 285.042 308.959 282.134H308.236C307.062 284.278 304.326 286.09 304.374 288.653ZM419.266 287.205C418.088 296.696 420.336 305.758 420.228 316.172C425.84 314.197 425.355 304.843 426.02 296.616C426.498 290.711 428.109 284.406 427.229 280.208C426.838 284.701 423.748 287.583 419.266 287.205ZM341.306 278.275C338.175 277.613 334.552 279.889 333.818 282.864C335.181 283.443 336.413 282.919 337.62 282.397C339.14 281.737 340.619 281.078 342.27 282.626C342.813 283.128 343.191 284.51 343.232 284.794C343.946 289.425 338.99 290.815 338.403 293.96C345.522 295.975 348.317 279.757 341.306 278.275ZM301.478 281.895C303.213 280.935 308.028 278.514 306.548 275.136C304.769 277.301 302.558 279.034 301.478 281.895ZM346.856 276.099C349.197 275.711 349.401 273.18 351.199 272.242C351.213 271.825 351.012 271.621 350.714 271.516C349.224 272.702 346.966 274.333 346.856 276.099ZM338.646 272.242C340.198 272.532 342.501 271.842 343.232 270.551C341.386 269.961 339.031 270.599 338.646 272.242ZM306.303 266.691C303.646 269.185 300.022 271.978 299.787 276.099C304.145 274.181 306.362 270.129 309.442 266.934C308.84 266.66 307.957 266.674 307.071 266.687C306.812 266.69 306.555 266.694 306.303 266.691ZM298.582 266.934C298.014 268.277 298.901 269.673 300.03 270.073C300.581 268.846 301.831 268.326 302.201 266.934C301.553 266.602 300.942 266.724 300.256 266.845C299.752 266.935 299.21 267.024 298.582 266.934ZM314.27 266.446H316.443C316.657 265.673 314.059 265.673 314.27 266.446ZM384.267 266.206C384.868 266.532 385.835 266.491 386.801 266.449C387.346 266.426 387.89 266.404 388.367 266.446C388.249 265.338 385.326 266.04 384.267 266.206ZM364.23 265C364.659 266.206 367.674 265.722 368.339 265C367.681 265.052 367.114 264.979 366.583 264.905C365.781 264.795 365.06 264.684 364.23 265ZM357.957 265.483C358.185 265.467 358.437 265.475 358.689 265.485C359.27 265.505 359.851 265.525 360.129 265.241C360.123 264.205 359.242 264.038 358.196 264.038C357.92 264.319 357.926 264.89 357.957 265.483ZM347.337 265.483C349.314 266.134 351.431 265.154 352.404 264.038C351.002 263.955 346.662 262.709 347.337 265.483ZM139.04 257.519C139.815 257.408 140.439 257.145 140.244 256.068C139.961 255.793 139.393 255.793 138.797 255.829C138.457 256.569 138.69 256.916 139.04 257.519ZM128.661 257.757C129.119 257.09 130.11 256.957 129.867 255.586C129.583 255.309 129.014 255.309 128.419 255.343C128.014 255.87 128.031 257.519 128.661 257.757ZM429.402 261.377C429.256 259.113 429.706 254.962 429.159 253.896C429.308 256.161 428.853 260.314 429.402 261.377ZM182.002 253.896C184.251 254.266 188.296 254.422 190.209 253.654C188.428 250.58 184.562 252.578 182.002 253.896ZM159.553 248.103C160.696 248.6 162.986 248.382 163.9 247.861C162.518 247.809 160.495 247.182 159.553 248.103ZM91.9716 239.902C91.3549 240.933 91.2017 242.16 91.4863 243.518C92.3968 243.767 93.5299 243.043 94.6246 242.555C95.4804 242.174 97.3201 241.828 97.2808 240.622C95.6645 240.227 93.5164 240.365 91.9716 239.902ZM148.212 239.417C147.568 242.956 144.71 244.287 142.417 246.174C144.765 246.718 147.394 245.541 148.936 244.481C148.801 241.854 151.011 241.575 151.589 239.655C150.515 239.327 149.286 239.119 148.212 239.417ZM100.181 240.864C97.7702 242.322 95.9481 243.809 93.9044 245.692C92.5427 246.94 90.1359 248.624 91.0082 250.757C97.8116 252.149 103.631 248.724 109.111 246.413C113.552 244.543 117.168 241.82 120.213 239.173C112.953 239.16 105.855 239.298 100.181 240.864ZM127.695 239.173C126.944 239.305 127.324 240.577 126.971 241.107C123.434 244.65 117.175 245.471 114.66 250.034C119.987 251.589 124.823 248.665 128.904 247.38C130.879 243.567 134.758 241.647 138.073 239.173C135.118 238.817 130.636 238.744 127.695 239.173ZM168.005 234.106C167.915 232.63 166.976 230.009 165.83 228.796C165.303 230.837 164.666 234.671 168.005 234.106ZM132.039 229.035C133.109 229.586 135.152 229.364 136.625 229.035C135.991 226.773 134.159 225.713 133.247 223.728C132.402 225.051 132.468 227.293 132.039 229.035ZM187.798 227.59C184.687 226.998 182.29 225.692 179.588 224.694C175.48 226.973 174.288 222.128 171.378 221.556C169.661 221.217 167.423 221.885 166.553 223.489C164.035 228.11 170.322 231.872 171.622 236.762C177.088 237.629 181.993 237.566 187.07 237.965C192.71 238.405 198.339 240.871 204.931 239.655C201.639 234.171 193.102 231.858 187.798 227.59ZM112.488 208.039H111.764C107.725 213.582 110.967 222.208 116.351 223.967C115.131 218.588 114.66 212.463 112.488 208.039ZM188.037 205.626C187.992 204.209 189.245 204.095 189.245 202.726C188.758 202.248 188.453 201.59 187.798 201.278C187.147 202.445 187.371 204.486 188.037 205.626ZM105.73 204.898C105.785 203.585 107.448 202.605 106.454 201.036C106.651 202.574 104.366 203.745 105.73 204.898ZM83.2839 197.417C83.6854 197.905 83.9347 198.538 84.7315 198.625C85.1609 197.62 84.9467 195.417 84.2462 194.759C84.3228 196.048 83.4153 196.346 83.2839 197.417ZM118.041 201.036C117.951 203.329 119.33 206.634 119.971 209.484C120.68 212.656 120.775 216.048 121.418 218.661C122.405 222.658 125.489 225.966 127.695 227.348C131.987 214.348 123.279 204.707 121.418 194.281C121.11 194.268 121.086 193.973 120.694 194.038C120.084 196.075 118.138 198.396 118.041 201.036ZM103.316 192.594C102.966 193.938 102.966 196.068 103.316 197.417C106.111 195.223 108.654 192.951 112.727 192.106C114.823 191.676 116.62 192.009 117.316 190.423C113.226 189.809 107.597 191.788 103.316 192.594ZM193.829 187.284C194.629 186.504 195.308 185.316 194.796 183.903C192.419 183.387 193.181 186.342 193.829 187.284ZM178.622 181.004C178.168 182.386 178.099 183.993 177.655 185.35C176.371 189.313 173.894 193.014 172.349 196.934C170.676 201.178 169.411 205.504 168.005 209.73C167.638 210.825 166.723 211.667 166.553 212.865C166.238 215.12 167.277 217.51 167.52 219.862C168.358 220.622 170.214 221.154 171.622 220.594C171.586 218.736 169.81 217.469 170.416 215.765C172.882 219.415 175.976 223.711 181.76 223.243C181.95 220.939 183.676 220.175 184.175 218.176C182.927 217.912 181.909 217.191 181.037 216.242C176.817 211.657 174.077 203.107 174.518 195.726C176.612 197.409 176.2 200.509 176.935 202.726C178.514 207.545 181.237 213.007 184.417 214.795C186.191 211.143 185.934 206.703 185.381 202.969C184.05 193.994 181.375 185.58 180.07 176.657C179.886 178.492 179.124 179.463 178.622 181.004ZM345.165 177.384C346.689 178.045 349.253 178.083 350.956 177.868C350.943 174.107 346.682 176.497 345.165 177.384ZM312.826 177.384C313.83 177.744 316.497 177.903 317.17 177.142C317.336 173.58 313.685 176.348 312.826 177.384ZM337.44 174.731C335.459 175.32 333.751 176.189 332.369 177.384C334.211 177.983 337.821 178.174 339.616 177.384C339.027 176.366 337.911 175.87 337.44 174.731ZM181.76 174.731C181.652 173.303 181.75 171.686 181.037 170.865C181.279 172.212 179.436 174.921 181.76 174.731ZM182.484 174.731C182.492 175.618 183.247 176.504 183.447 177.384C183.69 178.437 183.495 179.6 183.69 180.764C184.188 183.709 185.366 187.107 186.347 189.937C187.355 192.857 188.414 196.436 190.209 197.655C191.726 196.179 191.365 191.912 191.172 189.937C190.403 181.974 187.625 174.173 186.586 166.763C186.256 166.778 186.055 166.653 185.865 166.521C185.679 169.341 182.453 171.534 182.484 174.731ZM117.077 174.003C117.917 171.891 119.004 167.92 117.799 165.316C117.465 165.329 117.268 165.205 117.077 165.077C116.905 167.765 115.596 171.917 117.077 174.003ZM250.793 178.589C255.099 179.019 262.397 178.52 267.684 178.347C269.915 172.694 273.953 167.563 279.031 165.561C276.697 169.583 272.042 172.978 271.792 178.111C277.75 178.51 285.381 178.51 291.339 178.111C294.306 171.741 298.865 166.971 303.889 162.663C288.168 163.826 272.02 163.632 255.619 164.348C247.481 164.709 240.471 165.273 233.654 165.316C233.369 168.034 234.693 171.315 234.138 174.492C233.803 176.394 231.804 177.626 232.687 179.313C237.686 179.965 243.484 179.33 248.375 179.074C248.794 173.861 252.442 170.588 255.137 168.454C255.082 168.642 255.13 168.928 254.894 168.938C253.644 172.133 250.804 174.952 250.793 178.589ZM370.993 162.42C366.35 165.977 360.227 169.732 356.267 173.525C365.114 172.23 369.873 166.861 375.817 162.663C375.39 162.69 374.668 162.567 373.905 162.442C372.732 162.253 371.458 162.063 370.993 162.42ZM109.111 179.074C110.095 178.693 110.195 177.425 110.559 176.421C109.235 172.028 108.338 167.214 107.42 162.42C106.443 167.979 108.047 174.072 109.111 179.074ZM192.863 174.97C192.661 170.02 191.799 165.738 190.448 161.942C190.223 167.314 191.56 171.125 192.863 174.97ZM356.509 161.699C352.023 165.26 346.862 168.139 343.232 172.555C352.128 172.6 356.423 165.953 362.783 162.663C361.397 161.633 358.921 161.699 356.509 161.699ZM124.072 187.522C126.541 189.452 127.609 194.34 128.904 198.625C130.934 205.345 132.154 211.476 134.935 216.727C136.31 219.322 137.544 222.394 140.002 223.728C140.279 219.163 140.189 214.788 139.521 210.208C138.319 202.023 133.372 194.191 132.039 187.284C131.724 185.642 131.609 182.101 132.762 181.728C135.035 180.987 136.76 187.9 137.107 188.967C139.76 197.135 141.37 203.794 144.104 211.171C144.865 213.215 145.621 215.542 146.521 217.454C147.415 219.353 149.337 221.32 148.212 223.489C145.316 223.482 145.212 220.697 143.626 219.38C143.238 221.394 143.238 224.854 143.626 226.87C146.466 226.245 153.851 223.266 154.003 219.623C154.046 218.661 152.244 216.156 151.589 214.795C150.664 212.872 149.985 210.908 149.417 209.484C143.788 195.445 139.233 178.087 137.349 160.487C137.336 160.341 137.315 160.199 137.107 160.248C132.831 169.406 127.435 177.446 124.072 187.522ZM252.961 160.009C253.745 160.355 256.328 160.715 255.858 159.042C254.528 158.998 253.662 159.417 252.961 160.009ZM287.96 159.042C288.699 159.567 289.981 159.547 291.261 159.529C291.612 159.523 291.964 159.518 292.304 159.524C292.781 158.633 293.351 157.834 293.511 156.628C291.081 156.85 289.822 158.245 287.96 159.042ZM238.24 150.108C237.706 155.235 230.875 155.256 230.758 160.009C233.432 159.774 233.91 158.055 235.344 156.628C238.035 153.947 241.066 152.329 244.032 150.108C242.497 149.686 239.795 149.791 238.24 150.108ZM251.514 149.143C248.272 154.189 241.884 156.087 238.482 160.972C249.879 159.891 259.307 154.772 266.962 149.143C264.19 148.751 261.34 148.901 258.427 149.05C256.159 149.166 253.851 149.282 251.514 149.143ZM273.718 148.904C269.138 152.042 263.79 154.418 260.687 159.042C262.904 161.248 268.48 159.842 272.031 159.767C274.397 154.412 280.333 151.335 286.272 150.351C284.941 151.591 283.355 152.842 281.927 154.21C280.556 155.526 278.608 156.878 278.303 158.554C288.397 157.303 295.169 152.731 302.926 149.143C296.532 148.14 290.097 148.403 283.494 148.666C280.279 148.794 277.025 148.921 273.718 148.904ZM153.277 146.008C151.53 158.793 155.719 169.569 158.348 179.552C157.506 168.814 155.542 157.099 154.485 145.764C154.475 145.62 154.45 145.481 154.246 145.522C153.886 145.651 153.637 145.882 153.277 146.008ZM184.898 149.627C185.07 149.83 185.323 149.606 185.677 149.384C186.033 149.159 186.491 148.936 187.07 149.143C189.194 154.107 183.083 158.18 186.108 162.663C186.474 161.533 187.14 160.729 188.276 160.729C189.457 160.729 189.35 161.89 190.209 161.699C189.766 156.58 188.279 150.427 187.798 144.56C185.785 145.204 185.844 147.917 184.898 149.627ZM73.6298 146.493C75.7738 145.398 76.4215 141.442 74.8384 139.25C74.2837 141.37 72.892 143.874 73.6298 146.493ZM200.587 151.079C201.702 148.973 201.824 145.872 202.517 143.355C201.744 140.59 200.317 138.477 198.896 136.349C198.84 141.879 199.318 146.874 200.587 151.079ZM282.412 136.593C281.338 135.844 280.029 135.387 278.303 135.629C273.372 136.315 267.033 138.741 261.895 139.003C268.262 139.443 275.983 139.297 282.651 139.003C283.24 138.978 283.889 139.016 284.551 139.054C286.248 139.151 288.041 139.25 289.167 138.282C288.012 136.62 284.664 137.153 282.412 136.593ZM308.474 120.181C304.422 120.153 301.11 118.434 297.616 118.494C292.856 118.573 290.766 123.027 287.237 124.766C287.96 129.352 285.044 130.298 284.099 133.212C286.97 133.454 289.017 134.22 291.339 134.182C295.233 134.115 297.674 132.007 300.996 130.8C305.634 129.118 308.901 130.558 312.826 132.491C312.267 129.734 309.648 126.984 307.269 125.252C308.621 125.187 309.75 125.641 310.785 126.095C311.839 126.559 312.795 127.022 313.788 126.935C312.804 123.897 311.135 121.545 308.474 120.181ZM67.114 128.39C68.0629 127.66 70.7822 126.547 71.2157 124.281C71.6307 122.106 70.5359 118.978 69.0397 117.77C68.4509 121.209 66.7115 124.756 67.114 128.39ZM156.657 132.491C152.846 137.541 149.944 142.357 145.795 147.213C143.958 149.367 140.761 152.887 140.487 154.937C140.279 156.482 141.101 159.053 141.215 161.211C142.122 178.957 147.017 192.933 152.071 206.349C153.332 209.692 154.547 213.18 156.657 215.765C158.382 213.675 162.099 209.03 162.21 205.865C162.303 203.176 160.156 199.401 159.071 195.972C155.257 183.91 151.093 169.936 150.137 156.628C149.777 151.578 150.436 139.89 154.485 140.455C156.567 140.742 157.253 146.756 157.627 150.108C158.288 156.133 158.874 160.404 159.553 165.8C160.759 175.326 162.899 184.183 164.382 192.833C164.68 194.572 164.25 196.491 165.587 197.901C167.104 196.048 167.811 193.571 168.967 190.901C169.979 188.565 171.884 185.843 171.864 183.419C171.84 180.785 169.875 176.878 168.967 173.525C166.22 163.345 164.34 150.999 163.657 139.727C163.371 134.937 163.058 124.358 165.83 123.076C170.09 121.123 170.869 128.355 171.144 132.007C171.871 141.823 172.616 149.984 173.797 158.803C174.385 163.227 174.334 167.928 176.45 171.11C177.537 167.103 180.309 164.975 179.831 159.767C179.477 155.991 177.995 151.806 177.174 147.455C175.293 137.479 173.561 124.852 175.002 114.627C167.582 119.522 161.922 125.507 156.657 132.491ZM193.829 139.489C194.203 130.877 193.658 121.947 195.28 113.662C193.874 112.172 192.295 110.855 190.448 109.802C190.029 121.247 191.56 130.739 193.829 139.489ZM179.831 111.493C181.715 122.477 180.087 139.073 183.212 149.627C183.24 146.999 184.497 144.906 184.417 142.384C184.386 141.442 183.718 140.556 183.69 139.489C183.613 136.132 186.191 134.649 186.586 132.491C186.744 131.635 186.402 130.787 186.347 129.835C186.087 125.311 185.608 116.339 186.108 112.213C186.419 109.622 187.631 109.324 189.003 108.111C185.456 106.941 182.186 109.899 179.831 111.493ZM63.9757 111.008C67.9449 110.156 67.2247 105.101 65.1811 102.559C64.5023 104.911 62.9368 108.496 63.9757 111.008ZM194.796 104.25C194.673 99.4661 195.134 94.0927 194.31 90.0055C192.584 93.4243 193.008 101.322 194.796 104.25ZM201.068 76.736C201.439 76.9192 201.624 76.5249 201.624 76.1317C201.625 75.7375 201.44 75.3422 201.068 75.5295V76.736ZM195.758 74.8031C195.571 72.3704 197.435 71.9689 198.172 70.4593C198.058 68.4809 197.4 67.0539 196.243 66.1154C195.395 68.0514 194.677 72.5308 195.758 74.8031ZM182.726 79.6312C181.837 88.4089 181.483 99.285 188.037 101.114C189.204 89.753 188.4 74.4699 191.414 65.148C191.92 63.5865 193.198 62.4432 193.105 61.0432C192.993 59.4083 188.249 53.7969 186.586 53.0798C185.221 59.8035 183.669 70.2689 182.726 79.6312ZM175.002 53.3188C173.152 62.2559 171.532 71.4143 171.378 82.0421C173.17 84.7645 174.822 87.6121 177.416 89.5274C179.498 82.8523 178.726 72.0383 179.831 64.9089C180.731 59.0968 182.629 54.0876 183.69 49.9425C180.315 47.5346 177.454 51.8464 175.002 53.3188ZM381.127 77.6983C380.178 81.7721 379.243 86.0745 378.231 90.2518C377.179 94.5821 375.288 99.1474 375.094 102.798C375.038 103.841 374.81 105.348 375.817 105.94C379.638 92.0429 382.326 77.5876 385.714 63.4624C387.027 57.9845 389.458 52.1765 389.096 46.0798C386.483 56.8659 383.733 66.5097 381.127 77.6983ZM389.576 46.0798C390.605 45.9132 390.542 43.166 389.819 42.7055C389.832 43.9255 389.4 44.7036 389.576 46.0798ZM391.02 41.0116C390.945 40.4332 391.228 38.2541 390.781 38.8439C390.862 39.4213 390.577 41.5973 391.02 41.0116ZM391.99 37.149C392.063 36.076 392.531 34.9253 391.748 34.2538C391.904 35.1478 391.436 36.6616 391.99 37.149ZM392.711 30.1521C392.427 35.393 393.577 31.6483 392.711 30.1521V30.1521ZM398.268 31.1154C399.147 31.2541 399.299 29.2725 398.506 29.1887C398.136 29.5354 398.295 30.4221 398.268 31.1154ZM212.413 39.8031C213.23 33.6991 210.923 24.4714 206.621 23.6363C206.125 23.5742 205.806 23.6384 205.527 23.7025C205.047 23.8122 204.679 23.9219 203.725 23.3901C197.185 25.6768 197.747 39.4502 203.482 42.2213C201.266 37.3714 201.57 29.6047 204.446 25.5661C204.203 33.2108 204.549 40.2666 207.588 44.6384C210.902 45.2893 212.094 42.1995 212.413 39.8031ZM215.794 38.5976C216.462 31.2189 216.334 22.6357 209.759 21.7003C214.29 24.818 215.05 31.6969 215.794 38.5976ZM394.886 21.7003C394.772 20.8415 395.135 18.2433 394.644 18.5692C394.755 19.428 394.395 22.0263 394.886 21.7003ZM395.849 17.6028C395.801 16.2069 396.407 15.1535 395.607 14.2223C395.646 15.2094 394.796 17.1071 395.849 17.6028ZM202.759 18.8041C205.132 17.8832 208.291 17.7373 211.207 17.3637C210.268 12.3163 214.055 10.1268 214.346 5.5346C206.278 3.70208 202.589 11.5992 202.759 18.8041ZM70.2524 138.525C70.6508 135.353 72.8641 132.824 72.4212 129.596C70.7542 129.804 69.1473 132.092 67.353 132.976V135.629C68.3423 135.608 68.5772 136.342 68.8141 137.077C69.049 137.803 69.2849 138.529 70.2524 138.525ZM105.73 373.133C104.75 371.505 105.578 369.441 104.767 368.062C103.943 366.678 102.111 366.76 100.357 366.842C99.7052 366.872 99.0647 366.902 98.4904 366.857C97.7837 368.228 99.4186 370.057 98.4904 371.678C96.3268 373.071 92.7652 372.984 89.126 372.898C86.7699 372.843 84.3797 372.787 82.3174 373.133C80.9837 373.361 79.6054 374.733 78.4548 374.581C76.8126 374.36 74.233 369.787 73.6298 368.789C72.9055 367.584 72.386 366.49 71.7 365.409C71.0357 364.363 70.4294 363.441 70.0061 362.513C74.3055 364.259 76.5633 368.027 79.1791 371.443C83.973 370.285 91.0496 371.408 94.6246 369.032C93.0177 364.044 84.6973 365.761 80.6267 363.241C82.0888 362.118 85.4517 362.915 87.1424 362.028C82.7189 360.74 77.956 359.797 72.9054 359.132C77.18 358.744 82.4385 357.899 87.1424 358.89C90.6202 359.624 93.4016 362.028 96.3154 362.513C100.676 363.241 103.541 362.547 106.215 364.446C107.988 365.7 108.806 367.965 110.074 370.238C111.345 372.51 113.697 373.688 112.727 376.029C112.26 377.172 110.801 377.588 109.111 377.962C108.314 379.979 106.831 381.315 106.215 383.511C113.365 383.49 120.196 381.08 128.661 381.578C130.369 374.422 129.576 366.705 129.867 358.89C130.698 336.679 131.013 312.078 130.833 289.377C129.237 288.237 126.674 288.064 125.28 286.723C124.207 281.018 125.793 275.444 125.28 270.551C125.142 269.214 124.109 267.987 124.072 266.691C123.975 263.075 127.241 259.722 126.243 255.586C122.048 255.923 117.414 255.526 112.668 255.13C108.189 254.756 103.611 254.381 99.2106 254.623C96.1281 254.789 92.5324 255.628 89.5606 256.068C88.2475 256.265 87.2325 256.972 85.937 256.792C83.7682 256.501 83.2797 254.256 81.8353 251.727C80.9971 250.254 79.6188 249.365 78.94 247.861C76.6957 242.897 77.3052 233.23 83.2839 233.867C81.798 231.452 83.4639 228.98 83.526 226.378C83.6098 222.81 82.5947 218.442 81.8353 214.795C81.0561 211.053 79.9127 207.468 79.1791 204.174C76.7226 203.291 73.1279 203.378 71.9432 201.278C70.2969 198.386 71.2157 190.703 71.2157 186.314C71.2157 181.004 71.1112 175.7 70.4914 171.592C69.7951 166.978 67.769 161.179 67.5921 155.907C67.3324 147.941 68.395 139.96 67.114 133.212C64.163 132.609 63.331 130.773 63.7336 126.699C64.2251 121.732 67.7266 115.276 67.5921 111.493C67.0851 111.201 66.5429 111.891 65.8196 112.581C64.969 113.392 63.8701 114.203 62.2849 113.423C60.9129 112.747 60.8135 110.385 61.0794 108.111C61.4571 104.849 63.8018 100.654 63.7336 97.7339C63.5804 91.6238 58.087 87.9308 55.5229 83.975C56.6321 97.7515 60.0892 109.182 61.5606 122.591C57.2178 112.154 53.6459 97.616 52.3887 84.2182C52.1083 81.2319 52.1186 76.5415 53.5941 75.5295C56.3341 73.6494 63.5111 76.8043 65.9055 78.1836C79.2163 85.8417 84.448 106.324 87.8698 125.491C89.6506 135.47 90.9016 145.761 91.7325 156.146C92.6193 167.221 92.0202 178.482 92.699 189.698C93.2422 198.694 95.172 209.339 95.5911 219.862C95.8125 225.383 96.3423 231.401 91.7325 231.692C91.8536 233.095 91.4583 235.017 91.9716 236.035C100.832 234.114 113.85 234.258 124.072 232.901C119.343 232.204 116.09 231.293 112.97 229.035C111.709 228.128 110.929 226.575 109.589 225.658C108.82 225.124 107.822 225.217 107.178 224.694C104.961 222.89 103.447 218.86 102.107 215.765C100.59 212.241 99.4538 208.192 99.2106 204.66C98.9964 201.438 100.118 197.253 99.2106 193.796C98.6839 191.797 96.1768 191.475 95.8343 188.967C95.2962 185.067 97.5271 180.388 98.2483 177.384C99.4124 172.527 99.2737 167.685 100.42 163.14C101.465 158.986 102.986 154.875 104.282 150.833C106.759 143.091 111.321 136.225 114.175 128.39C119.925 112.635 126.348 97.2973 137.107 86.6281C135.853 92.2995 131.741 97.1938 129.382 102.559C132.365 101.78 133.199 98.2358 134.696 95.8011C136.92 92.1919 139.753 89.1994 140.487 83.975C143.137 82.5274 145.237 80.518 146.279 77.4562C144.505 77.2203 143.425 79.7492 141.693 80.3514C146.59 67.6945 157.253 58.6715 168.005 50.673C174.018 46.1874 179.218 42.5989 188.037 41.4938C188.692 39.7751 185.654 40.3846 185.623 39.0819C186.378 38.58 187.129 38.8418 187.8 39.1026C188.349 39.3178 188.846 39.533 189.245 39.325C193.298 36.4847 189.419 30.8029 190.448 24.8418C190.756 23.0786 191.983 21.3092 191.899 20.2589C191.806 19.1476 190.504 18.3674 190.448 17.3637C190.365 15.763 192.584 14.1664 193.829 12.7705C196.485 9.79773 198.311 6.08509 203.243 5.28834C206.184 2.25759 212.583 -0.364435 217.965 1.4298C219.729 2.01857 220.407 4.26912 221.585 4.81029C225.555 6.63557 232.687 4.12426 232.93 9.15412C232.975 10.1516 232.068 10.8583 231.721 12.0493C230.504 16.2793 232.5 20.9802 233.654 25.8051C234.897 30.9902 236.973 35.1819 236.306 41.9781C235.826 46.9314 233.82 54.1156 228.825 54.5315C227.64 51.9126 230.106 49.4293 231 46.8072C231.866 44.24 232.849 41.1679 233.169 38.3617C234.065 30.5473 230.879 23.7781 228.825 17.8418C226.761 17.8832 225.319 20.023 223.518 21.2223C222.299 22.0325 221.132 22.3791 219.898 23.151C221.322 30.6301 222.153 41.7639 216.757 46.3219C211.363 50.881 203.344 46.3147 200.345 41.7391C198.585 42.1509 197.539 43.2777 195.758 43.6689C198.778 47.812 201.868 51.8857 204.207 56.7004C204.751 55.7194 204.089 53.5268 205.415 53.3188C208.396 53.0736 211.232 54.1032 214.103 55.1338C216.983 56.1675 219.899 57.2012 223.034 56.9456C225.319 56.7552 226.892 54.9196 229.31 56.2151C229.871 61.5015 221.911 61.7054 215.794 60.8083C212.513 60.323 208.257 60.0943 206.621 63.2192C207.487 66.25 207.702 70.0599 205.415 71.6647C214.353 84.8546 223.394 97.9419 230.273 113.184C231.016 113.257 231.592 113.025 232.165 112.794C232.824 112.528 233.48 112.261 234.381 112.459C236.279 112.874 236.217 115.089 237.516 116.079C247.093 116.446 256.2 117.378 264.787 119.217C267.504 119.799 270.365 120.873 272.997 121.147C275.273 121.379 277.978 120.558 280.721 120.181C281.627 120.056 282.57 120.123 283.468 120.189C284.404 120.258 285.29 120.327 286.029 120.181C287.109 119.965 287.732 118.891 288.685 118.494C290.058 117.908 292.339 117.562 294.238 117.042C296.233 116.502 298.435 115.816 300.03 115.837C304.183 115.892 307.196 119.033 311.374 119.46C313.757 122.525 320.242 126.921 321.513 131.771C322.601 135.934 319.947 136.703 319.819 139.973C303.867 143.219 282.737 142.71 262.62 143.108C255.116 143.26 247.571 143.268 240.173 143.597C231.274 143.985 222.933 144.75 214.346 144.56C213.923 145.266 213.777 146.244 213.861 147.455C217.474 148.218 221.356 147.917 224.965 147.698C256.218 145.8 291.135 144.795 324.167 146.247C329.553 146.483 334.904 146.115 340.201 145.748C345.703 145.367 351.146 144.985 356.509 145.28C364.817 145.745 373.224 146.576 381.612 145.764C390.086 144.941 398.843 144.449 406.954 145.037C409.418 145.221 411.87 146.593 414.68 145.764C415.733 144.456 415.31 140.476 415.643 139.25C412.3 138.705 408.614 140.767 405.507 141.178C401.114 141.756 396.286 141.627 391.35 141.497C386.903 141.38 382.37 141.263 377.989 141.664C367.452 142.62 352.709 142.384 340.821 142.384C337.52 142.384 333.942 142.256 330.682 142.146C330.129 142.126 329.521 142.146 328.888 142.167C326.489 142.243 323.754 142.321 322.476 140.216C324.632 138.103 330.402 139.606 333.581 138.525C334.482 137.687 333.588 136.482 334.301 135.387C340.926 133.177 348.206 131.639 355.785 130.316C360.693 129.464 366.192 127.555 372.441 128.871C373.441 130.842 375.56 131.701 375.094 135.145C376.299 135.393 378.065 135.799 379.198 135.387C379.444 122.744 383.067 110.146 384.509 98.7004C383.997 98.2462 382.728 98.5483 382.333 97.9761C379.756 100.949 380.252 106.99 377.989 110.287C374.914 111.632 371.318 110.71 370.265 108.111C370.815 99.7775 373.254 91.8453 375.094 83.975C379.68 64.3554 384.577 45.4424 389.096 25.5661C389.552 23.5566 389.739 21.4996 390.301 19.5315C391.294 16.0475 392.645 12.1673 393.681 7.94865C396.764 6.24444 401.043 7.83069 401.884 9.63113C402.757 11.503 400.856 15.0428 400.196 18.0839C399.42 21.6651 399.137 25.0881 398.506 27.4959C398.78 28.6734 400.689 28.213 400.921 29.4247C401.44 41.7701 397.037 49.2006 395.849 59.8387C396.425 60.9573 398.69 60.3788 398.988 61.7716C396.245 80.965 390.74 98.5348 387.405 117.526C386.324 123.666 385.776 130.084 383.784 136.108C385.763 135.775 389.695 137.043 391.506 137.32C393.929 137.692 397.08 137.553 400.297 137.414C403.66 137.268 407.096 137.123 409.85 137.562C411.181 137.77 412.283 138.372 413.232 138.525C414.171 138.671 415.126 138.645 416.015 138.621C417.623 138.575 419.023 138.53 419.748 139.489C421.511 141.833 419.879 147.573 417.818 148.904C416.031 149.503 414.347 148.184 412.747 147.937C410.246 147.552 408.14 148.363 405.507 148.658C401.08 149.159 396.037 148.256 391.02 147.937C380.358 147.262 369.323 147.733 358.196 148.419C351.864 148.813 345.394 149.069 339.616 148.658C329.227 147.933 319.261 147.802 309.687 148.904C306.493 151.989 302.216 153.981 299.067 157.112C299.677 157.59 300.854 158.994 301.962 159.288C304.09 159.836 310.228 159.96 312.098 159.288C313.207 158.883 313.124 157.459 314.27 156.386C315.947 154.82 318.749 154.418 320.546 153.732C319.878 156.039 316.982 156.119 316.685 158.803C320.251 159.495 325.185 158.831 328.511 159.767C322.184 162.302 314.509 161.657 307.512 162.42C305.288 162.663 302.198 167.858 300.754 169.66C298.758 172.153 296.285 174.626 295.928 177.626C303.833 179.366 308.995 176.189 314.27 173.525C320.013 170.622 323.716 166.92 328.753 163.386C330.997 161.81 333.578 159.517 336.716 159.767C336.976 162.108 334.461 162.853 333.097 163.867C328.906 166.978 324.34 170.632 321.749 175.693C327.416 176.095 333.076 173.137 337.683 170.622C342.387 168.059 346.537 164.408 350.714 161.699C347.645 160.985 344.697 160.147 341.064 160.009C351.147 157.89 364.719 158.227 377.925 158.565C383.674 158.712 389.352 158.859 394.644 158.803C396.64 160.494 395.926 163.306 396.092 166.039C396.23 168.329 396.882 170.706 397.059 173.279C397.602 181.243 397.034 190.55 396.577 198.14C396.434 200.492 396.913 203.37 395.129 204.898C392.621 202.99 392.735 198.376 392.468 194.281C392.192 189.923 392.881 185.157 392.233 181.243C382.125 182.109 369.884 181.077 361.335 179.074C361.972 178.507 363.427 178.749 363.992 178.111C362.232 177.086 360.718 177.232 358.682 177.868C358.726 178.548 359.101 178.898 359.887 178.832C349.539 181.67 337.143 181.592 324.66 181.515C318.65 181.476 312.619 181.439 306.788 181.728C303.445 181.893 300.127 182.715 296.891 182.694C276.662 182.573 253.858 182.566 232.687 183.419C230.938 192.76 231.963 204.285 231.239 215.037C231.007 218.54 231.243 222.345 230.516 225.172C230.225 226.302 229.082 227.237 228.825 228.311C228.028 231.692 229.213 236.531 229.552 239.173C230.265 244.778 230.034 251.117 230.034 257.277C230.034 287.018 229.57 318.583 230.758 348.269C231.263 360.885 230.591 373.113 231.481 384.481C231.617 386.193 232.452 387.772 231.481 389.781C235.725 390.186 241.042 390.039 246.259 389.893C249.974 389.79 253.638 389.685 256.827 389.781C256.571 387.821 253.911 385.271 253.447 382.307C253.093 380.075 253.135 376.577 254.894 376.272C258.05 375.716 256.917 379.825 257.308 382.548C257.693 385.201 259.183 387.072 260.687 388.097C265.689 386.151 265.162 377.013 263.824 371.443C261.906 372.822 262.862 377.075 261.168 378.683C258.179 378.218 259.46 373.473 258.996 370.48C258.757 370.436 258.131 370.764 257.469 371.091C256.739 371.452 255.965 371.812 255.619 371.678C255.116 369.904 256.211 367.286 257.79 366.621C258.378 366.367 259.273 366.383 260.269 366.401C260.869 366.411 261.506 366.421 262.134 366.372C267.324 365.984 273.728 363.683 280.237 364.446C283.077 364.778 285.966 366.205 288.446 365.166C288.512 344.355 288.446 320.239 288.446 298.069C288.446 291.396 288.051 284.427 288.928 278.275C289.114 276.938 289.707 276.075 289.895 274.656C290.269 271.721 289.34 268.901 290.615 266.691C291.299 265.5 294.442 264.391 296.648 263.795C300.134 262.846 304.45 263.048 307.997 262.825C309.549 262.732 311.198 262.237 312.826 262.105C319.048 261.599 325.899 261.764 332.655 261.928C338.861 262.079 344.987 262.23 350.471 261.862C357.503 261.391 365.484 260.657 374.366 260.657C379.57 260.657 391.184 259.397 391.99 262.586C392.4 264.212 391.34 264.907 390.058 265.964C392.282 267.475 390.961 269.483 390.781 271.998C390.633 274.104 391.239 276.592 391.262 278.999C391.34 286.103 391.262 293.426 391.262 300.967C391.267 318.465 392.535 336.353 392.468 352.856C392.441 361.591 393.986 371.568 393.921 380.131C393.91 381.835 393.058 383.505 393.921 385.201C396.376 384.647 395.135 380.83 395.129 378.447C395.066 365.97 394.423 353.091 394.159 339.825C393.646 313.761 393.439 288.005 393.439 261.377C393.439 254.855 393.349 248.184 393.439 241.828C393.581 231.765 392.844 222.644 394.644 214.068C397.124 219.852 396.992 226.614 397.297 233.382C397.61 240.241 397.672 247.515 397.782 254.623C397.997 268.693 398.024 283.407 398.024 297.583C398.024 319.123 397.852 340.717 399.715 361.308C400.183 366.503 400.103 371.402 400.196 377.234C400.214 378.232 399.407 381.184 401.884 380.858C403.165 380.033 402.618 378.149 402.611 376.992C402.559 367.113 402.611 355.884 402.611 345.373C402.611 330.734 401.516 316.152 402.126 301.687C402.411 295.005 402.321 288.099 402.369 281.173C402.501 261.613 401.077 239.964 404.302 220.832C405.909 228.342 405.989 237.574 405.989 247.138C405.989 252.988 406.439 258.973 406.47 264.762C406.532 274.597 405.617 284.499 405.989 294.445C406.362 304.47 405.989 314.592 405.989 324.618C405.989 334.622 406.712 344.542 406.712 354.546C406.712 364.529 406.498 374.567 407.44 384.481C408.804 385.534 411.056 384.557 412.747 384.481C412.483 383.539 411.078 383.49 410.575 382.307C410.023 380.997 410.401 378.308 410.094 375.794C409.356 369.78 409.58 361.987 409.365 355.751C408.753 337.974 408.16 320.412 408.16 302.411C408.16 290.662 408.053 278.379 409.85 269.345C410.835 269.483 410.023 271.423 410.814 271.756C412.463 270.987 413.228 269.345 414.438 268.14C412.83 266.719 410.163 267.305 409.85 265C409.186 260.106 421.161 260.118 421.677 265C421.884 266.938 420.096 268.239 419.748 270.073C419.059 273.644 420.762 277.675 420.228 281.652C421.96 280.859 422.314 278.116 422.643 276.099C426.56 252.385 421.002 224.771 421.434 200.558C422.397 204.34 424.008 207.479 424.334 211.899C425.439 206.416 423.153 200.232 423.367 194.038C429.761 207.465 429.433 225.401 431.092 244.003C431.764 251.547 430.578 259.486 431.573 266.934C431.896 269.331 433.191 271.562 433.504 273.93C436.046 293.229 434.472 315.23 429.883 330.166C427.697 337.281 425.882 343.136 421.191 346.578C421.448 353.52 420.846 362.935 421.191 371.2C421.316 374.137 421.954 377.124 421.434 379.167C420.984 380.969 418.365 382.258 419.266 384.239C421.69 384.716 424.471 384.592 427.337 384.469C429.627 384.37 431.972 384.272 434.23 384.481C435.851 384.627 437.441 385.278 439.056 385.444C442.343 385.77 446.038 385.257 447.986 387.377C446.752 389.518 443.828 389.829 440.988 390.03C431.82 390.654 422.085 390.412 412.505 390.993C403.082 391.569 393.771 392.587 384.509 392.199C374.9 391.79 365.2 392.199 355.543 392.199C346.419 392.199 337.408 393.543 328.268 394.132C300.167 395.926 271.012 395.337 241.621 395.337C231.977 395.337 222.396 394.458 213.375 394.853C210.272 394.991 201.46 396.183 201.311 392.926C201.192 390.312 204.504 390.398 207.123 390.485C207.636 390.502 208.122 390.518 208.55 390.515C212.357 390.467 215.163 389.982 218.447 390.03C218.28 372.69 219.413 354.906 219.413 336.928C219.413 319.526 221.87 302.218 220.38 285.03C219.404 273.731 219.898 259.188 219.898 245.935C219.898 233.909 218.87 221.48 220.137 210.693C220.477 207.818 221.329 204.146 220.619 200.315C220.387 199.061 219.798 198.299 219.652 197.178C219.313 194.513 219.77 191.292 219.898 188.247C220.317 178.277 219.888 167.172 220.862 158.315C219.417 155.765 220.909 154.092 221.828 152.042C220.025 151.287 218.346 151.577 216.697 151.866C214.956 152.172 213.246 152.478 211.45 151.557C209.455 150.535 207.504 143.029 210.722 141.422C212.407 140.578 214.877 140.668 217.353 140.757C219.704 140.843 222.06 140.928 223.758 140.216C223.075 138.539 220.38 136.855 219.652 134.421C218.204 133.779 217.117 132.775 215.551 132.249C214.277 132.165 216.562 131.424 215.551 130.8C213.043 128.002 211.239 124.489 207.827 122.591C207.888 134.037 206.995 144.768 204.931 154.452C204.249 157.654 203.15 160.9 202.759 163.867C202.305 167.342 203.482 170.616 202.759 173.525C202.409 174.924 201.397 175.673 200.829 176.899C198.952 180.938 198.827 185.58 196.481 189.698C198.9 192.438 202.458 193.685 207.103 195.244C209.718 196.13 216.236 198.722 217.241 201.036C218.087 202.99 217.483 209.737 217.483 214.068C217.483 235.64 217.241 256.882 217.241 278.275C217.241 290.582 218.717 300.451 217.241 311.101C216.888 313.651 216.618 316.671 216.036 318.583C215.221 321.251 212.136 323.827 211.928 326.55C211.699 329.688 214.048 331.262 210.479 332.584C210.663 339.886 209.815 347.299 210.479 354.546C210.889 358.966 213.195 363.074 212.177 367.342C209.036 371.242 203.784 367.251 203.725 362.997C202.513 360.871 198.55 357.885 197.449 355.03C195.897 351.012 195.297 345.166 193.105 340.309C192.169 338.244 190.902 336.076 189.723 333.79C188.453 331.316 186.905 328.927 187.313 326.55C187.771 323.876 190.787 322.546 191.899 320.758C190.465 318.881 189.374 317.772 190.209 314.967C191.172 311.718 195.204 311.42 196 309.41C196.673 307.711 195.536 305.418 195.28 303.136C194.594 297.105 196.6 291.642 198.415 287.205C199.284 285.085 200.143 282.715 201.068 280.928C202.353 278.461 204.515 276.536 205.415 274.17C205.744 273.307 205.499 272.369 205.897 271.278C206.43 269.802 207.661 268.468 208.069 266.206C208.437 264.166 208.866 261.537 208.55 259.688C208.09 256.957 203.76 254.824 205.897 250.514C201.626 249.084 201.824 253.255 200.106 255.108C196.022 259.494 186.772 260.435 177.898 258.967C176.46 258.728 175.079 257.436 173.069 257.034C169.806 256.379 165.476 256.552 161.728 256.552C155.881 256.552 150.436 256.155 144.831 256.068C142.355 264.343 147.099 273.501 144.35 280.928C143.667 282.764 141.312 283.72 140.244 285.521C138.367 288.666 139.421 295.441 139.279 300.48C138.541 327.131 139.538 355.127 140.487 380.616C146.819 380.594 154.295 380.733 162.21 380.858C167.686 380.941 173.946 382.403 177.655 381.343C180.482 380.532 180.842 377.698 182.97 376.992C190.244 374.589 195.848 381.204 195.035 387.377C194.393 392.24 189.339 397.457 183.69 396.058C179.634 395.054 178.695 391.327 175.73 387.855C164.395 386.712 151.849 385.506 140.002 385.686C141.821 388.818 143.521 392.047 142.178 395.58C140.844 399.085 136.58 401.711 132.039 400.886C130.442 400.602 127.283 399.19 126.008 397.99C121.768 394.048 124.788 386.443 129.382 384.724C127.716 384.391 126.424 385.922 124.796 386.407C121.349 387.433 116.295 388.084 111.522 388.818C105.588 389.739 99.64 390.717 94.3856 389.781C93.0177 389.746 92.1578 392.199 90.5229 392.684C94.6701 392.995 98.4252 392.936 102.193 392.877C105.224 392.829 108.264 392.781 111.522 392.926C111.911 392.943 112.406 392.918 112.945 392.894C115.139 392.795 118.085 392.695 117.799 395.337C117.424 398.78 105.852 397.603 102.834 397.271C100.658 397.027 98.4211 397.18 96.1395 397.333C94.4529 397.446 92.7404 397.559 91.0082 397.512C87.1559 397.401 83.256 397.464 79.4212 397.271C75.632 397.077 72.1708 396.32 68.3195 396.301C49.3507 396.203 27.3811 396.293 9.91058 397.028C9.30423 397.056 -0.357121 398.517 0.0102114 394.617C0.238889 392.199 6.16172 392.926 8.21982 392.926C17.9019 392.926 27.646 392.081 36.94 391.957C38.0762 391.527 36.0564 390.772 36.94 389.781C37.3446 389.068 38.5811 389.171 39.5962 389.06C40.9993 390.113 38.2552 391.015 38.8688 391.957C53.6324 391.756 68.0701 392.06 82.5596 392.684C81.5548 390.349 79.7782 389.934 79.1791 387.855C77.5194 382.056 84.7729 375.163 90.5229 378.925C92.5603 380.255 92.7362 383.061 94.3856 385.201C97.0666 385.922 99.8097 384.696 102.107 384.239C100.735 383.22 98.4935 384.308 98.2483 382.548C97.8251 379.5 108.127 381.87 107.902 378.205C106.564 378.672 104.289 378.621 101.937 378.569C100.141 378.53 98.3 378.491 96.7996 378.683C95.7194 378.821 94.5408 380.262 93.9044 378.925C94.1755 379.067 94.4415 378.968 94.6557 378.868C94.9113 378.749 95.0903 378.63 95.1099 378.925C97.7557 376.106 102.896 375.765 105.73 373.133Z" fill="#4D94C4"/>
</svg>
