<svg xmlns="http://www.w3.org/2000/svg" width="120" height="120" fill="none" viewBox="0 0 120 120"><path fill="#4D94C4" fill-rule="evenodd" d="M66.844 7.479c-1.38.924-3.3.72-5.048.87-9.974.854-22.34 1.5-33.42.87-1.45-.082-3.852.41-4.353-1.392 1.236-1.444 3.113-.721 4.7-.696 12.036.193 26.565-1.202 38.12.348m52.913.702c.692 2.803-1.145 5.402-2.262 8.008-2.16 5.035-4.901 9.321-7.312 14.447-1.476 3.138-2.286 8.19-5.743 8.877-1.791.356-4.089.087-6.267.174-4.055.162-8.354.036-12.358.174-1.79.062-4.216.44-5.048-1.218 1.308-1.654 3.822-.956 5.917-1.045 3.83-.16 8.085-.36 12.186-.174 2.706.123 4.83.715 6.614-.522 3.413-4.346 5.363-10.948 7.832-16.536 1.655-3.744 3.329-7.604 4.526-11.488-2.009-.792-4.629.411-6.788.174-.681-.075-1.368-.607-2.088-.696-2.084-.26-5.268.48-8.183.696-6.432.478-12.778 0-19.493 0-2.37 0-5.486.494-7.139-1.393.223-.865 1.268-.98 1.915-1.044 3.84-.382 8.232.047 12.533.174 5.391.16 11.701.083 17.407.348 4.885.227 9.772-.687 13.751 1.044M18.278 8.014c-1.004.936-2.692.568-4.004.696-3.752.367-8.207 1.016-12.533 1.045 4.275 9.534 8.868 18.75 12.88 28.546 20.8-.84 45.22-2.05 65.624 0-.7 1.141-2.409.789-3.481.87-9.333.712-20.006.523-29.94.523-8.597 0-17.01.114-25.587.522-2.56.122-5.227.041-7.485 1.044-.203 3.254 1.76 9.83-.349 11.837-1.638-1.257-.815-4.03-.696-5.919.134-2.106.573-4.697.348-6.44-.136-1.055-1.136-2.81-1.74-4.177-3.579-8.098-6.812-15.956-10.096-24.37C.69 10.838-.022 9.489.001 8.015c.93-1.127 2.745-.63 4.177-.696 4.524-.21 10.154-.026 14.1.696m88.417 32.188c.282-.05.301.164.522.174.512 3.174.703 7.135.871 10.966.046 1.06.667 4.75-.871 4.874-2.129.17-.986-7.361-.869-9.922.089-1.958-.067-3.703 0-5.57.06-.229.306-.274.347-.522" clip-rule="evenodd"/><path fill="#4D94C4" fill-rule="evenodd" d="M18.45 41.945c3.347-.613 2.805 4.557-.173 4.178-2.247-.286-2.171-3.748.174-4.178m45.955 6.092v-1.044c-.206.027-.494-.03-.523.174.407.056.17.759.523.87m1.217-1.915c-.216 1.266-.127 1.648 0 2.785-1.78.063-4.798.927-6.092-.174.643-.82.245-1.823.175-2.437 1.16-1.165 4.218-.16 5.917-.174m17.578 1.924c.057-.239.788-1.05 0-1.045.244.5-.474.885 0 1.045m1.22-1.915c.499.843.35 2.087-.174 2.785-1.272.097-3.212.67-4.179 0 .383-.99-.125-2.18.176-2.959 1.207-.416 3.063-.075 4.177.174m-32.738.168c-.082.577-.211 2.275 0 2.785-1.424.258-3.02.345-4.7.348-.574-.586-.744-1.576-.87-2.611 1.017-1.154 3.78-.598 5.57-.523m-17.399.703c.143 1.187-.492 1.597-.696 2.437-1.476-.112-2.643.516-3.83.174-.178-.807-.538-1.434-.695-2.262.384-1.41 4.326-1.068 5.221-.349m21.582 2.782c.63 1.07.975 3.084.174 4.177h-3.307c-.391-.305-.343-1.05-.522-1.566-.514.24-.402 1.107-.523 1.74-1.376.075-2.637.264-4.177.174-1.06-.946-.513-3.224 0-4.526 1.338.403 3.774-.293 4.525.697.49-1.32 2.329-.713 3.83-.697m-.325 8.011c.46.053.449-.363.522-.696-.469.012-.836.398-.522.696m1.218-2.96c.413 1.085.766 2.706.175 3.83-.926.272-2.73.272-3.656 0-.146-.492-.202-1.074-.348-1.566-.455.357-.263 1.36-.522 1.914-1.436-.042-2.479.307-4.004.174-1.242-.858-.596-2.727-.348-4.351 1.211-.364 3.056.052 4.352.174.309.33.127 1.15.174 1.74.715-.329.14-1.949.87-2.262 1.259-.04 2.372.065 3.307.348m-43.357-.181c1.403 10.169 1.06 24.088 1.044 35.16-.004 2.622-.354 6.675 2.959 6.442 1.274-2.365-.895-7.22.174-9.92 1.197 1.447 1.29 4.286 1.74 6.787.339 1.874.306 2.313 0 4.177-.424 2.591.174 4.272-1.566 5.396-.615 3.765 2.22 8.731-.522 10.793-2.164-2.757-.526-10.545-.174-14.623-.738-.548-2.42-.371-3.133-1.218-.372-.439-.35-1.173-.697-2.088-.613-1.62-.757-2.719-.87-5.397-.442-10.492-.258-26.532.696-35.509zm33.26.176c.71.703.618 2.67.348 3.83-1.252.727-3.41.998-4.178-.349.18-1.352-.103-2.772.348-3.481.871-.352 2.579-.182 3.482 0m42.991 7.483c-.397.822-1.9.538-2.784.87-.349-1.418 2.17-1.54 2.784-.87m-18.797 2.613c.499.894.318 2.467.349 3.83-1.004.389-2.53.256-3.482.696-1.349-.392-1.04-2.442-1.046-4.178.936-.822 2.715-.427 4.179-.348M52.555 73.11c.72.306 1.931-.226 2.437-.697-.945.1-2.124-.034-2.437.696m16.71-2.437c.59.86.512 2.39.522 3.83-2.238 1.394-5.998.849-9.226.695-3.392-.161-6.685.209-9.573 0-.5-1.106-.694-2.913 0-4.351 6.232-.227 12.515-.643 18.277-.174m25.42 4.694h.697c.268.949.506 3.26-.697 3.307-.398-.866-.104-2.383 0-3.307M89.639 77.8c.37.662 1.046 2.124.348 2.786-1.099-.177-.915-1.639-1.218-2.61.202-.147.466-.23.87-.176m-58.314 1.404c.96.204 1.132 2.448.522 3.133-.925-.24-1.158-2.422-.522-3.133m51.192.337h.696c-.032 1.228.817 2.386.348 3.481-1.554.137-1.302-2.375-1.044-3.48m-57.463 1.054h.348c.678.412 1.004 2.59.174 2.959-.96-.2-.348-1.974-.522-2.96m-5.372.514h.696c.317.353.55 1.412.174 1.915-.989.033-1.124-1.227-.87-1.915m2.43-50.466c.724-.262 1.478-.494 1.914-1.045-.425-.155-.755-.405-1.392-.348.044.683-.63.647-.523 1.393m29.068-.175c1.575-.746 3.294-1.348 4.352-2.61-2.477-.157-3.43 1.211-4.352 2.61m-36.553-.348c-.072-1.205-.855-1.698-1.567-2.262.408.869.87 1.683 1.566 2.262m2.785-2.61c.097-.426.673-.372.522-1.045-.543-.123-.817.905-.522 1.044m7.485-.349c.804-.182 2.425.453 2.436-.522-.706-.976-2.074-.599-2.436.522m-14.1-3.307c.153.602.366 1.143.87 1.393.173-.466.36-.918.349-1.567-.409.055-.654.275-1.219.174m68.06.522c.352-.522 1.782-.88 1.566-1.392-.354.522-1.782.88-1.566 1.392M49.44 23.68c.773-.279 1.777-.808 2.61-1.393.671-.47 1.903-1.286 1.567-1.74-1.543.894-3.146 1.728-4.177 3.133m0-4.004c.315-.438 1.013-.494 1.218-1.044-.458.188-1.823.372-1.218 1.044m-33.595 4.178c1.278-2.087 3.653-4.005 4.526-5.918-1.763 1.602-4.28 3.379-4.526 5.918m10.966-7.31c-1.899 2.162-3.942 4.18-5.57 6.614 3.244-1.688 6.229-3.635 8.181-6.615zm-10.792-.349c-1.167 1.908-4.73 2.348-4.351 5.222 2.386-1.095 4-2.962 5.396-5.048-.206-.2-.616-.197-1.045-.174m31.332 0c1.008-.5 1.962-1.055 2.61-1.915h-2.61c.121.64.3 1.324 0 1.915m69.104-5.918c.005 2.56-1.449 4.93-2.437 7.31-1.94 4.67-4.035 9.25-6.441 13.752-1.154 2.158-1.766 4.953-4.352 5.744-9.24-1.043-22.257-.697-33.246-.696-10.212 0-20.802-.342-29.939 0-6.923.259-14.456-.039-20.714.348-.922.057-2.295.57-3.133.348-1.59-.42-3.396-4.726-4.525-6.963-1.297-2.567-2.73-5.79-3.308-8.18-.368-1.523-.16-2.297-.696-3.308-1.372-2.585-3.921-4.857-4.178-8.007.569-1.004 2.082-.62 3.134-.696 2.231-.164 4.29.125 6.266.348 4.857.55 9.615-1.75 13.229 0 7.26.427 14.9-.144 23.15-.522 17.863-.818 36.64-.348 55.526-.348 2.101 0 4.255.087 6.268.174 1.863.08 3.789-.112 5.396.696" clip-rule="evenodd"/><path fill="#4D94C4" fill-rule="evenodd" d="M77.103 48.04c-.026-.433.275-.539.349-.87-.236-.055-.333-.248-.696-.174-.124.41-.4 1.104.347 1.044m-3.133.87c.07-1.303-.05-2.104.174-2.959 1.175-.326 3.064.045 4.352.174v2.785c-.205.2-.616.198-1.044.175.669.608 2.177.376 3.308.522.36 1.186.616 2.458.347 3.83-1.33.34-3.92.952-4.7-.175-1.01.502-2.973.77-4.176.522-.554-.81-.44-3.12-.176-4.177 1.032-.46 2.519-.002 3.655 0 .397.648.653 1.437.698 2.437.515-.703-.326-2.762 1.044-2.611-.69-.893-2.66.378-3.482-.523m-16.175-2.78c.718.513.99 2.17.174 2.786-1.303.312-3.299.496-4.526.348-.191-.627-.358-2.188 0-2.785.728-1.2 2.913-.093 4.352-.348m-11.84.522c-.053 1.216-.014 2.021-.174 2.785-1.521-.157-2.877.281-4.004 0-.256-.619-.88-1.783-.348-2.611.87-1.048 3.65-.406 4.526-.174M23.84 49.608c-2.156-3.5 2.235-3.89 4.7-2.437 1.193 2.827-2.812 2.692-4.7 2.437m37.434.006c.377.783.519 1.802.522 2.96.492-.61-.136-2.34.349-2.96 1.119-.492 2.407.227 3.828 0 .4.954.508 2.867.174 4.004-1.3-.003-3.834.997-4.35-.348-.976.82-4.122.86-5.049.174.21-1.55.088-3.055.522-4.004 1.321.073 2.956-.17 4.004.174m27.688-1.57c.73.092.69-.586.87-1.044h-.697c.128.532-.299.512-.173 1.044m1.915-1.74q.104 1.846-.697 2.785c-.802.009-1.701-.078-2.262.174.833.268 1.881.323 2.959.348-.044.682.628.647.522 1.392.425-.387-.177-1.8.87-1.567-1.16-.4-.781-2.09-.523-3.307 1.108-.26 3.496-.386 4.352.174-.025 1.256.292 1.88-.173 2.786-1.175-.13-1.81.28-2.96.174 1.12.272 2.687.098 3.133 1.044.027 1.245-.092 2.344-.349 3.307-3.341.504-4.966.046-8.18.348-.423-.098-.896-.149-.87-.696-.87.871-3.043.438-4.351.87-1.275-.624-.124-2.858-.698-4.351 1.043-.786 2.698-.016 4.18-.174.466.692.849 1.471.695 2.785 1.07-.534-.583-2.784.695-2.96-.87-.405-1.347-1.206-1.217-2.61.584-1.276 3.578-.975 4.874-.523m-45.103 3.658c1.026.803.915 2.72.348 4.004-1.024.21-2.803.668-3.655 0-.617-.876-.298-2.908-.174-3.656.827-1.148 2.08-.096 3.48-.348m-9.046 3.475c.352-.6.484-2.563-.348-2.959-.206.768.068 2.143.348 2.96m3.308-6.962c.814.884.593 3.063-.87 3.133.354.4 1.445.063 2.088.174.632 1.174.302 2.243.348 4.003-3.468.73-5.318.003-9.051.523-.702-.758-.647-2.975-.348-4.178 1.153-.682 3.169-.165 4.525 0-.053-.643-1.087-.305-1.392-.696.208-.973-.555-1.976.174-2.96 1.183-.2 2.89.123 4.526 0" clip-rule="evenodd"/><path fill="#4D94C4" fill-rule="evenodd" d="M73.296 46.124v2.785c-1.186.323-2.975.041-4.179.348.404.41 1.64-.015 2.09.348.12 1.39.466 2.957 0 4.003-1.82-.067-3.15.395-4.352-.348.021-1.661-.347-3.712 1.044-4.003-.308-.214-.704-.34-.87-.697.49-.886-.393-2.107.348-2.784a33 33 0 0 1 5.919.348m-15.322 8.181c1.32.072 2.955-.171 4.003.174.43.731.483 1.838.522 2.959.494-.61-.135-2.34.348-2.96.972-.343 2.83-.196 3.829 0 .377.931.541 2.9.175 4.004-1.074-.184-3.692 1.054-4.352-.348-.98.673-4.088.987-5.048 0 .163-1.288.192-2.71.523-3.83m13.908.172c.145 1.218.412 2.746.173 3.83-1.61.241-3.538.566-4.526-.35V54.65c1.115-.72 2.875-.46 4.353-.174" clip-rule="evenodd"/><path fill="#4D94C4" fill-rule="evenodd" d="M47.708 90.52c.317.596-.023.836 0 1.567 2.454-.377 5.662-.554 8.181-.87.761-.096 2.419.401 2.089-1.045-3.154-.311-6.932.262-10.27.349m-7.136-8.877c1.867-1.034.742-5.06 2.436-6.266H40.92c-.837 1.641-.815 4.215-.349 6.266m-6.267-12.01c-.319 2.892 2.26 1.066 2.437-.349-.867.062-1.378.48-2.437.349m59.531-1.567c-.157-.656-.15-1.474-.349-2.089h-.522c-.217.58.163 1.873.871 2.09m-14.274-.87v-1.219h-.871c.149.548.324 1.07.87 1.219m-43.168 1.566c.738-.304.569-2.46-.174-2.785-.364.727.258 1.779.174 2.785m-8.355-3.307c.406.113.81-1.027.174-.87.071.42-.318.378-.174.87M35 64.239c.125.532-.178.634-.175 1.044 1.742.487 2.234-.442 4.526-.174-.126-.532.3-.512.174-1.044-2.058.208-3.114-.68-4.525.174m44.038.696c-.126-.396-.156-.89-.349-1.219-.975.083-1.179.17-1.913-.173.175 1.042 1.058 1.378 2.262 1.392m-42.472-1.74c.738-.305.568-2.461-.174-2.786-.364.727.258 1.778.174 2.785m57.964-5.745h.87V57.1c-.196-.459-.674.234-.87.348m-57.268.696c.802-.24.535-2.494-.174-2.785-.262.738.248 1.71.174 2.785m-11.488-5.918c.427-.153 1.004-.157 1.044-.696-.516.064-.858.302-1.044.696m56.919 7.137c.692-.121 1.929.303 2.09-.348-.395-.477-1.855.114-2.264-.348-.276-1.05.244-2.75-.173-4.004 1.01-.754 2.787-.106 4.177-.174.546.555.654 1.55.87 2.437.517-.642-.097-1.638 0-2.437 1.027-.63 2.71.037 4.177 0 .15.49.563.714.522 1.393.503-.078-.153-1.316.35-1.393 1.194-.348 3.41-.304 4.176.348.466 1.072-.097 2.237 0 3.481-3.106.805-5.099.15-8.18.523.637.986 3.175.074 2.959 1.914.43-.15-.051-1.211.347-1.392 1.529.097 3.625-.375 4.179.696.22.31.334 1.624 0 1.915a55 55 0 0 1 3.481 4.178c-.087 5.504 2.547 11.438 1.74 17.406-.485 3.59 1.487 8.511 1.044 12.533 1.138.094 1.982-.108 2.959-.174.459-.122.369-.793.871-.87.31-9.045.098-18.892.522-28.025.091-1.938-.341-4.41.696-5.57.855 8.729 1.938 20.584 1.566 29.764-.097 2.427-.885 4.786-1.74 6.615-1.182.277-3.343.277-4.525 0-.174 2.881 1.478 8.247.695 11.663-.108.475-.653 1.659-1.391 1.567-1.471-.186-.759-4.092-.871-6.268-.173-3.368-.904-5.812-.348-9.05-1.421-2.137-.266-6.728-1.044-10.445-.638-3.04.18-8.26-.35-12.01-.307-2.19-1.16-4.44-1.044-6.614-1.205-1.464-2.35-2.988-3.306-4.7-.578.292-1.426.315-2.088.522-.257 1.648.809 1.975 1.566 2.611-.05 3.191 1.963 7.001.347 9.573-1.504-.941-1.699-3.091-2.262-4.873-.56-1.77-1.102-3.717-1.393-5.57-1.341-2.242-2.954-4.373-4.874-6.44-1.257 1.369.051 3.77.349 5.221-.133.854-1.356.618-1.218 1.74.2.497.8.593.869 1.22.34-.18-.404-1.427.522-1.393.637 1.396 1.89 4.163.87 5.57.233.754 1.061.913.872 2.089-2.967 1.558-2.315-4.67-3.308-6.789-.423-.458-1.31.788-1.915.174-.213-.794.61-.55.697-1.044-1.857-2.495-2.053-6.65-4.352-8.703-.913 1.018-1.225 2.51-.871 4.003.67 2.83 2.892 7.34 3.83 10.618.393 1.372.503 2.483 0 3.655-2.5.179-2.517-2.124-3.133-3.829-.426-.51-1.145.823-1.741.174-.144-.898.743-.767 1.044-1.219-.71-2.208-2.558-4.164-3.481-6.266-.37-.843.005-2.336-1.392-2.437-.72.145-.665 1.11-.697 1.567-.22 3.17 1.935 7.082 3.135 9.225-.192 1.235.223 1.866.695 2.437.384 5.36 1.673 9.817 2.786 14.447-1.582-.042-1.588-1.662-2.09-2.784-2.014-.133-2.961-1.333-4.35-2.088-.46-3.08-1.748-5.333-3.83-6.79-.953 1.395.576 4.223.87 6.267.1.705-.177 1.558 0 2.089.662 1.995 5.104 3.35 5.743 5.57.112.398.346 1.05 0 1.393 2.498 2.401 7.848 3.538 9.574 6.96 1.416 2.806.104 7.783-1.391 10.794-.823-1.014.053-3.147.173-5.048.179-2.818-.023-5.1-1.742-6.267-2.215-.494-10.263.669-10.269-1.391-.005-1.887 5.225-.413 7.485-.871-2.299-1.706-5.463-4.052-7.136-6.963-.257.496.166 1.802 0 2.786-.17.003-.136.212-.175.347-1.289 1.31-4.436.996-7.136.87-6.004-.28-13.004-.014-18.8-.173.183-.995-.763-.862-.87-1.566.313-1.662.125-3.822.175-5.745-2.04 3.123-3.955 6.373-5.397 10.095 9.349.31 20.578-.602 29.069 1.044-.915.963-2.583.466-3.829.522-2.117.098-4.82.55-7.659.698-5.203.272-11.021-.018-15.144.173-1.183.055-3.137-.239-4.003 0-1.231.34-5.147 4.583-5.396 6.092-.479 2.908 2.4 6.129.87 8.878-2.462-1.251-1.14-6.287-3.655-7.485.498-5.032 5.175-7.148 7.485-10.618.971-1.458 1.853-3.141 2.959-4.7 1.689-2.38 3.068-4.346 4.177-7.31-.32-1.885-.83-3.579-.696-5.919-1.442 1.69-.577 5.69-2.96 6.441-1.16-.3-1.69-.398-2.61-.696-1.534-8.642 3.473-12.01 3.481-20.018-.951.315-2.008 1.351-2.785 2.611-1.732 2.81-2.381 7.846-4.177 9.4-.82.71-2.228.882-2.96.174-.757-7.147 2.587-11.366 1.567-18.625-2.795 2.195-3.186 6.793-5.396 9.573.27 1.5-.316 8.723-2.089 8.355-1.178-.244-1.115-4.65-.87-6.44.439-3.207 3.318-5.736 3.133-8.53-3.864.894-4.144 5.372-7.136 7.138.466 3.69.904 9.35-1.045 11.662-1.586-.914.072-3.61.348-4.874-.566-1.931-.427-5.306.523-6.788-1.658.953-2.687 2.535-4.178 3.655-.102 2.945.966 4.72 1.218 7.311-.032.489-.302.742-.87.696-.225 2.25 1.449 6.801-.696 7.658-1.085-1.936-.354-6.16.348-8.007-.62-2.209-1.39-5.192-1.044-7.484.193-1.28 1.461-1.81 2.436-3.133 1.329-1.804 1.911-3.406 3.134-5.222.77-.19.865.295 1.392.348-.244-1.347.463-1.742.87-2.437h1.915c-2.372-.023-2.961-3.624-1.218-4.874-.298-.573-1.104-.636-1.567-1.044-.517-1.646.01-3.37 1.045-4.004 2.337-.132 4.137.272 6.44.175.242 1.063.606 2.834.174 4.003-1.377.364-3.061.42-4.7.522 1.585.272 3.388.326 5.222.348.24.224.172.756.174 1.219.913-.132.784-1.306 1.567-1.567 1.652.105 2.87-.22 3.83.348.91-1.06 3.487-.267 4.873-.174.15.581.29 3.027.174 3.83-2.061.917-4.907-.355-6.44.522.356 1.4 3.505-.235 5.57.522-.136.774.232 1.045.174 1.74.907.038.297-1.443.87-1.74 1.158.06 2.592-.154 3.482.174.712.867.835 3.55-.175 4.178-1.067-.023-2.295-.207-2.262.87.215.713 1.758.098 2.262.522.677.8.796 3.226 0 4.004-.788.313-2.081.123-3.133.174-.316.206-.136.907-.348 1.218.241.397 1.212.065 1.74.174.688.59.992 1.562.871 2.96.927-.234.226-2.096.697-2.786 1.31-.518 2.851.138 4.351 0 .393 1.101.55 3.125 0 4.179-1.217-.116-2.05.155-3.133.173-.307.911-.468 1.97-.522 3.133 1.458-.384 5.535-.344 7.31.522-1.344 1.035-4.39.368-6.44.697.083 3.476-.431 5.434.174 8.354 5.92.113 12.358-.288 17.407.697-.88 1.21-4.035.144-5.223 1.045-.117 1.686 2.182 1.044 3.308 1.044 2.85 0 5.835.2 8.356.349.522-.347.59-1.482.347-2.09-.446.387-3.213.442-4.177-.174.23-1.232 3.405-.742 4.177-.349.063-1.715-1.924-2.655-2.61-4.177.134-1.586-.242-2.66-.174-4.177-3.977-.394-9.724-.476-13.926-1.22 1.111-.951 3.363-.603 5.396-.695 2.57-.117 5.386-.538 8.008-.349.582-.37-.282-1.28.173-1.566 4.526-1.935 4.86 4.586 7.834 5.919-.441-2.131.646-7.69-1.393-8.182-.167-.04-1.434.454-1.915.523-.638.09-1.18.278-2.089.174-1.035-.746-.487-2.88-.522-4.178.834-.625 1.825-.022 3.133-.174.462-.988-1.059-1.49-1.74-1.915.02-1.99-.26-3.212.522-4.351-.258-1.33-.628-3.406-.175-4.874 2.126-.6 4.786-.273 4.352 2.263-.119-1.58 1.057-2.36.87-3.481-.914-.102-3.11.756-4.351.348-.522-.84-.46-3.1-.174-4.178.97-.344 2.83-.196 3.829 0 .231.755.548 1.425.522 2.437.396-.65-.023-2.113.522-2.611 1.078-.232 2.493.147 3.83.174.626 1.404.294 3.767 1.218 4.874" clip-rule="evenodd"/><path fill="#4D94C4" fill-rule="evenodd" d="M71.208 59.537c.15 1.284.34 2.71.173 3.83-1.664.218-3.497.529-4.525-.349v-3.307c.97-.833 3.053-.48 4.352-.174m-13.241 1.731c.605-.15.966-.543 1.392-.87-.772-.018-1.6-.092-1.392.87m3.307-1.741c.427.733.57 1.751.522 2.96.402-.643.06-2.029.174-2.96.991-.31 3.002-.249 4.003 0 .36.892.549 2.773.174 3.83-1.308.132-3.72 1.091-4.35-.175-.788.641-3.99.879-5.049 0 .2-1.25.09-2.81.522-3.83 1.083-.192 2.79-.024 4.004.175m-5.229.352c.441 1.19.854 3.183-.174 4.003-1.105-.056-2.468.148-3.307-.174-.182-.398-.11-1.05-.348-1.392-.59.222-.273 1.351-.697 1.74-3.733.942-5.51-.573-4.351-4.177 1.341-.489 2.765.18 4.351 0 .284.412.386 1.006.522 1.566-.393-2.3 2.485-2.203 4.004-1.566m1.745 6.964c.675-.253 1.39-.466 1.916-.87-.867.06-2.166-.309-1.915.87m3.134-1.915c.65.627.58 1.973.697 3.133.402-.642.06-2.028.174-2.959.966-.284 3.037-.284 4.003 0 .305.945.572 2.75.174 3.83-1.369.084-3.917 1.171-4.35-.349-.64.94-3.944.958-5.05.174.145-1.36.177-2.758.348-3.655.975-.755 2.483.069 4.004-.174m-5.042.518c.357 1.055.769 2.617.174 3.656-.7.548-2.708.418-3.655.174-.182-.398-.11-1.05-.349-1.393-.589.223-.273 1.352-.696 1.74-1.454-.12-2.375.295-3.83.175-1.31-.829-.607-2.94-.347-4.526 1.767.206 4.373-.427 4.7 1.219.02-1.999 2.557-1.6 4.003-1.045" clip-rule="evenodd"/></svg>