<svg xmlns="http://www.w3.org/2000/svg" width="120" height="120" fill="none" viewBox="0 0 120 120"><g fill="#E69927" fill-rule="evenodd" clip-path="url(#a)" clip-rule="evenodd"><path d="M96.426.872c-.318 10.373 1.212 28.7.681 40.398-.18 3.931-.99 9.988 3.404 10.667.092.547-.415.493-.226 1.135 2.568 3.937 6.3 6.71 9.304 10.213.051 5.685-3.177 9.644-3.632 15.886-.639 8.785-.307 17.576-4.311 23.149-.15 5.441.263 12.78.226 17.476-2.143-1.943-2.326-7.315-2.268-11.121.037-2.552-1.142-5.418-.68-7.488.288-1.306 1.695-2.066 2.268-3.178 1.361-2.642 2.78-7.63 2.497-11.348-.042-.54-.446-1.398-.455-2.043-.051-3.847 1.703-8.404 2.723-12.482.734-2.935.842-5.65 2.723-7.49-2.458-1.26-2.956-5.134-6.127-4.993-1.569-2.514-3.085-5.084-5.22-7.035-2.194 3.383 2.403 7.326.681 11.801 1.34.292 2.158-2.922 4.085-2.042-1.016 1.48-1.955 3.038-3.63 3.858-.623 4.284 3.05 7.54 3.403 11.121.093.926-.468 1.779-.454 2.724.025 1.63 1.641 3.438.228 4.765-1.973-1.06-2.732-6.08-1.361-7.716-.049-2.1-2.262-3.266-2.952-5.447-1.17-3.697-.6-8.385-1.135-12.255.168-.773-.836-.374-.907-.908.062-1.351.595-1.635.226-2.95-.787.181-.872-.339-1.588-.227-.687.598-.392 2.18-.454 3.404.53.726 1.555-.45 1.816.453.025 1.236-1.23 1.19-2.497 1.135-.665-.32-.826-1.14-.907-2.042-.33 5.083.34 10.979-.91 16.567-1.1 1.34-2.39 3.32-2.722 6.128-.356 3.012 1.412 7.167-.681 9.305-1.124-.692-.942-2.689-1.816-3.631-1.292.332-1.994.047-3.404 0 .344 2.322 3.192 4.247 2.042 6.583-2.799-.681-2.564-4.398-3.63-6.81-1.97-.121-4.384-.409-6.129-.68-2.13-.334-5.137.56-6.127-1.136 5.23-.824 11.116-.988 17.248-.907.544-3.726 2.127-6.29 2.497-10.894.212-2.631 1.726-5.457 1.816-7.716.04-.98-.464-1.953-.455-2.951.033-3.346.958-6.346 2.952-8.624.367-.465 1.673.01 2.042-.454-.671-15.43-1.198-33.827.226-49.022-8.09.195-25.463 3.991-32.227-.908 1.602-.955 3.757-.055 6.356-.227 1.703-.113 3.496.005 5.22-.227C81.669 1.68 89.448-1.529 96.426.872M59.414 4.503c-2.875 2.886-9.547.188-13.844.227-4.42 2.724-13.541.459-18.383.681-.088 7.37.132 16.083-1.135 22.923-1.886-2.64-1.122-7.228-1.362-11.575-.256-4.643-1.145-9.266-1.135-12.937 6.263-2.155 15.556-1.638 23.15-1.815 3.296 2.277 11.456-1.66 12.709 2.496"/><path d="M46.262 14.948c1.841-1.363 4.68-.795 7.262-.908 4.313-.19 8.172-.623 12.256-.68 3.36-.048 13.955-.343 14.07 1.588.134 2.247-5.453 1.589-7.943 1.589-9.104 0-18.31-.177-25.645-1.589m-4.078-.682c-.93 2.07-4.954.412-7.262.454.824-1.597 5.92-1.515 7.262-.454m43.566.448c-.25 1.556-4.508 1.038-5.445.454.842-1.1 4.567-1.463 5.446-.454m-37.442 7.26c1.59-1.25 4.354-1.25 6.81-1.362 5.9-.268 12.879.05 18.835-.227 1.398-.065 11.575-1.313 11.575 1.135 0 1.99-2.884 1.292-4.539 1.362-9.9.417-22.936.246-32.681-.908m-4.337-.448c-1.756 1.564-5.709-.055-8.171 0 .987-1.646 7.223-1.771 8.171 0M79.4 29.24c-11.624 1.787-25.752-.111-38.583.453-1.334.059-6.456 1.171-6.81-.908-.385-2.28 4.17-1.807 6.13-2.042 10.832-1.302 24.853.79 35.176 1.361 1.32.073 3.364-.26 4.087 1.135m5.452-.223c-.67.974-3.168.045-4.313 0 .079-1.858 3.725-.957 4.313 0M25.837 30.6c1.285.321.496 1.948 2.042 1.59-1.382 6.862 1.787 14.186.907 20.652-.101.759.074 1.166-.68 1.589 2.321 1.818 1.548 5.536 1.59 9.078.023 1.98 1.236 4.245 1.587 6.581.21 1.386.012 2.817.229 4.086.574 3.38 2.303 6.717 1.587 9.986 9.789.55 23.157-1.06 32.226.907-1.246 1.237-3.877.592-5.446.681-6.31.359-12.743 2.004-19.972 1.362-4.82 8.494.406 20.284-1.814 32-1.53-.613-.74-1.737-.91-2.949-.26-1.869-.622-4.338-.906-6.81-.397-3.438-1.385-6.413-.229-8.398.194-3.06-1.629-4.975-1.133-7.488.423-2.144 3.076-3.593 2.95-6.128-1.018-.105-3.801-.023-5.22.227-1.607.89-1.2 3.794-3.404 4.085-.007-.222-.277-.176-.455-.226-.927-2.214 1.438-4.955 1.816-7.944.388-3.058-.433-5.76-.454-8.398-.36-.546-1.062-.752-1.362-1.361.134-3.865-1.509-7.617-1.133-11.121.213-1.99 1.528-3.577.453-5.447-.4.66-.441 1.677-1.133 2.043-1.394.105-2.557-.015-2.497-1.362.554-.558.983.168 1.816 0 .11-1.775.064-3.395-1.59-3.404-.99.38-.15 1.858-.226 2.723.168.773-.838.374-.91.908-.06 6.16-.523 13.43-4.084 17.249-.124 1.776.877 4.248-.452 5.22-.863-.924-1.203-3.092-1.136-4.086.234-3.481 3.898-6.76 3.404-11.12-1.299-1.273-2.672-2.472-3.632-4.086 1.934-.757 2.552 1.655 3.858 2.27-.953-4.416 2.329-8.068 1.362-12.256-1.348 1.072-2.474 2.367-4.31 2.95.572-3.217 3.82-5.702 6.126-7.943.925-5.014.11-10.583 1.135-15.66m60.826 5.218c-.748 1.432-2.647.831-4.084.908-2.485.132-4.961.007-7.49 0-10.425-.03-22.053 1.718-31.317-.681.731-1.281 2.499-.62 3.632-.68 9.294-.495 19.703-1.48 29.274-1.363 1.309.016 2.869.266 4.31.227 2.09-.056 5.368-1.184 5.675 1.589m-44.942-.216v1.135c-2.79.296-6.676.385-8.85-.227 1.579-1.435 6.452-1.781 8.85-.908m-1.145 7.035c.436-1.27 2.119-.573 3.178-.681 9.47-.97 23.22-1.374 33.817-.908 2.559.112 7.052-.57 7.488.908.85 2.87-8.342 1.815-10.211 1.815-11.193 0-24.353-.017-34.272-1.135"/><path d="M39 42.173c-.258 1.468-3.969.754-4.312-.454 1.107-.36 3.798-.518 4.313.454m33.566 7.264c-1.745 1.223-4.435 1.43-6.808 1.59-8.245.552-18.477-.568-26.554-.228-1.623.069-3.326.931-4.54-.68-.138-1.885 1.754-1.646 2.952-1.816 8.46-1.201 18.73.437 27.007.908 3.048.173 5.608-.47 7.943.226m11.594-.229c-1.405 1.145-6.976 1.057-8.397 0 1.045-2.17 6.489-.565 8.397 0m-21.555 8.183c1.797-1.183 4.756-.677 7.488-.908 2.63-.222 5.28-.727 7.49-.908 1.877-.153 8.751-.444 9.08 1.362.54 2.983-9.474 1.746-12.938 1.589-4.227-.192-7.961.196-11.12-1.135m-16.583.225c.905-1.398 4.853-1.002 7.717-1.135 2.216-.103 6.646-.892 6.808.908.187 2.084-4.3 1.434-5.9 1.362-3.077-.14-6.352-.584-8.625-1.135m-2.273.001c-1.016 1.039-3.76.778-5.901.68-1.3-.058-3.282.063-3.63-.907.777-1.045 3.807-.595 6.127-.68 1.622-.06 3.5-.758 3.404.907m-27.453-.692c-1.03 2.828-3.28 4.435-4.992 6.581 1.85 3.098 2.767 7.267 3.859 11.802.87 3.62 1.195 6.75.906 9.986-.316 3.561 1.217 8.766 2.724 11.574.473.882 1.772 1.865 2.042 2.952.498 2.005-.667 5.017-.68 7.488-.015 2.594-.176 4.66-.682 7.263-.277 1.428.033 3.639-1.587 4.084-.87-5.003 1.53-11.146.226-17.247-.235-1.104-1.364-2.05-1.816-3.178-2.077-5.176-2.003-12.864-2.495-20.199-.154-2.281-.5-4.719-1.135-6.581-.674-1.975-2.006-3.54-2.271-5.447-.136-.982-.164-3.524 0-4.085.226-.77 4.567-5.065 5.9-4.993m66.729 6.82c-1.901 1.66-5.197 1.458-8.169 1.589-11.79.518-23.785.216-35.405.68-1.453.059-4.105.612-4.313-.907-.242-1.791 3.46-1.803 3.633-1.816 1.73-.13 3.913.223 4.991.227 12.739.051 26.737-1.129 39.263.227m-.898 7.252c-.692 1.337-5.047 1.653-6.129.454.618-1.45 4.332-.546 6.13-.454m-9.098.463c-.946 1.452-3.133.954-4.765 1.135-5.038.56-11.836 1.733-17.022 1.362-1.846-.133-4.084-.253-5.22-1.589.356-2.727 3.923-1.148 6.808-1.135 6.182.03 15.042-.812 20.2.227M44 72.362c-1.052 1.371-6.357 1.496-7.262.227.674-1.643 6.536-2.165 7.263-.227m37.189 6.134c-1.329 1.527-4.97 1.178-7.714 1.362-1.757.117-3.732.721-4.768-.454-.134-.817.083-1.28.68-1.362 3.38-.187 8.454-.14 11.802.454m-16.34.674c-.341 1.187-2.141 1.011-3.175 1.135-5.539.666-12.554.839-19.292 1.135-1.867.082-5.186.814-4.992-1.361.17-1.947 3.406-1.133 4.765-1.135 6.049-.011 15.757-.656 22.694.227M83.26 94.38c1.793.628 2.412 2.43 3.856 3.404-1.061 1.55 2.435 4.274.91 6.81-1.683.018-1.427-1.902-1.59-3.404-.27 2.815 0 7.048 0 10.892.002 2.227.51 4.74-.907 5.901-2.629-.145-2.502-3.136-2.269-6.582.272-4.07 1.996-9.786 1.588-12.936-.215-1.65-1.94-2.357-1.588-4.085"/></g><defs><clipPath id="a"><path fill="#fff" d="M0 0h120v120H0z"/></clipPath></defs></svg>