<svg xmlns="http://www.w3.org/2000/svg" width="120" height="120" fill="none" viewBox="0 0 120 120"><path fill="#31A560" fill-rule="evenodd" d="M79.82.893c-.356 1.271-2.021.76-2.893.827-7.337.56-16.73.773-23.975 1.86-1.737 1.523-.802 5.152-.62 8.68.233 4.558-.046 9.972-.207 13.642-.093 2.114.607 5.94-1.034 6.2-2.712.429-.962-5.412-1.446-7.647-1.575-2.334-1.806-10.225.413-11.988.236-3.863-1.098-7.92.62-10.334C52.365-.237 58.578.24 62.252.066c6.281-.296 13.28.48 17.568.827" clip-rule="evenodd"/><path fill="#31A560" fill-rule="evenodd" d="M73.412 3.997c.138 2.113-7.236 2.076-8.267.827-.102-.86.245-1.27.826-1.447 2.076-.196 5.927-.43 7.441.62m2.899-.62c.55 1.68-1.332 2.09-2.066 1.24-.104-1.238 1.067-1.722 2.066-1.24M71.962 9.58h.62c-.41 2.424-2.24 4.278-3.513 6.407-1.258 2.103-2.41 4.449-3.514 6.82-2.768 5.95-5.803 11.512-5.994 20.049-2.86.032-3.043-2.395-2.893-4.96.318-5.468 3.124-11.134 5.787-15.708 2.709-4.653 6.201-8.8 9.094-12.195.05-.224.41-.14.413-.413m-8.672 2.476c-1.087 2.645-3.277 4.726-4.34 7.44-.446 1.136-.208 2.409-1.24 3.307-3.095-.905-.56-3.919.413-5.374 1.432-2.145 2.84-3.88 4.133-5.373zm16.524 4.541c.889 1.268-1.046 1.924-1.654 2.687-3.614 4.535-6.78 10.691-9.507 16.534-2.777 5.95-5.113 12.442-6.614 19.222 4.299-4.49 7.388-10.323 10.954-15.708 1.09-1.645 2.193-4.125 4.547-4.34.006.2.253.16.413.206.74 2.44-1.359 4.741-2.48 6.614-3.535 5.909-6.66 12.72-8.68 20.462 1.275-.926 2.322-3.097 3.72-5.167.712-1.054 5.252-7.768 6.2-3.1.416 2.046-1.854 5.04-2.893 7.44-1.223 2.825-2.134 5.198-2.894 7.44 1.227-.128 1.803-3.257 4.134-2.48 3.385 1.13-2.278 8.69-2.48 9.921.624 3.947-4.163 2.634-3.514.206-1 .332-2.078.185-2.687-.412-1.105-3.072 1.005-6.222 1.654-8.887-1.19.26-1.612 2.173-3.72 1.86-4.191-.624.048-8.658.413-11.368-1.292.062-2.108 2.368-4.547 1.653-3.687-1.08.35-11.761 1.24-14.468 2.449-7.438 5.718-14.47 10.127-20.048 2.465-3.118 4.958-6.827 8.268-8.267M30.607 67.031h.62c.04 2.648 1.593 8.252-.827 9.507-1.542-1.78-.068-6.876.207-9.507m-.399 10.122c.166.11.335.217.62.209.686 3.66.398 7.36 1.446 10.333.637 1.805 2.174 2.801 2.067 4.754-.075 1.374-1.512 3.016-2.273 4.547-2.272 4.565-4.345 9.094-6.407 13.848-.163.834.99-.311.826.826-.8 2.782-2.732 4.432-4.34 6.407-.766-1.473 1.202-3.371 1.86-4.753.97-5.778 2.843-10.613 5.167-16.327.66-1.62 2.096-3.773 2.067-5.168-.021-1.011-.968-1.848-1.24-2.894-.72-2.766-.202-9.197.206-11.782m22.733 14.89c-.75 2.143-2.087 3.7-3.72 4.962-.048-2.007 1.592-5.132 3.72-4.962m-19.014 7.23c.807.157 1.702.226 1.654 1.239-.753.066-1.345-.031-1.86-.206-.23-.649-.097-.546.206-1.034m13.444 4.75c-1.508 1.109-2.557-.929-3.72-1.446-1.472-.292-2.979.719-3.513-.414 1.945-1.541 7.248-1.095 7.234 1.86m-.207 1.871c1.01.41 1.897 1.907 1.447 3.102-1.272-.094-2.45-2.061-1.447-3.102m8.255 5.166c-1.189 3.289-3.1 5.857-4.547 8.887-1.22-.973.057-3.062.62-4.548.694-1.832 1.378-3.505 2.48-4.753.754-.133 1.101.14 1.447.414" clip-rule="evenodd"/><path fill="#31A560" fill-rule="evenodd" d="M91.599 68.887c2.457-.746 4.147-5.442 1.446-7.233-1.833 1.165-3.17 4.946-1.446 7.233m-.62-7.233c.76-.136 1.029-.762 1.446-1.24-.363-.05-.47-.356-.413-.827.426-.745 1.227-1.115 1.653-1.86-1.108.144-1.318-.61-2.066-.827.309 2.101-.803 2.78-.62 4.754M48.608 60c-.098.9-.727 1.894-.62 2.687.2 1.5 1.954 2.426 2.273 3.514.524-1.928-.397-3.482-.62-5.167-.424-3.207.873-6.445 0-9.92C48.5 53.261 48.925 57.09 48.61 60m44.23-24.181c-.977 2.052.079 5.165 0 7.647 2.894-.95 5.314-7.586 0-7.647m-1.86-24.39c.29.606 1.517.275 1.653 1.034.403 2.353.1 5.412.413 7.854-.077.956-1.283.784-1.446 1.654-.371 1.956.819 2.35 1.24 3.513-.074 3.303.454 7.207-1.034 9.094 7.592-1.164 6.8 8.152 2.687 11.368.505.763 1.836 1.003 2.48 2.273.973 1.918 1.658 6.154-.413 7.028-1.174-2.066.354-7.042-2.273-8.267-1-.125-1.778 1.632-2.894 2.066-.53 1.93.068 4.09.413 5.788 1.035 1.35 2.582.923 4.134 1.653-.564 1.571-1.763 2.509-2.687 3.72 1.928 1.172 2.453 3.747 2.687 6.614.145.971-1.03.624-1.447 1.034-.702.725.718.496.413 1.446-.837 1.368-1.585 2.825-2.686 3.928-.36 4.806.057 10.39-1.654 13.847-2.887 2.886-8.045.6-11.987 1.86-3.294 1.053-5.92 7.288-9.508 8.268-3.432 4.903-8.36 8.311-13.228 11.781.834-2.52 3.28-4.352 5.168-6.408 1.905-2.076 3.833-4.148 5.58-6.201 3.746-1.076 5.313-4.332 7.44-7.026-6.795.126-13.31.309-20.048 0-.359.742-.145 2.058-1.033 2.274-.93-.153-.661-1.967-.413-2.688-3.364-4.359-2.116-14.413-2.274-21.289-.766-.322-1.87-1.027-2.067-2.48-.55.553-.706 1.5-2.067 1.24-1.575-1.932-.115-4.71.414-7.233.895-4.274.67-8.554 3.513-10.54-.11-4.648 2.26-12.924-2.273-15.089-1.214 2.988-1.218 7.298-3.1 9.92-.697.971-2.104 1.43-2.894 2.481-2.064 2.745-2.962 7.326-4.34 10.748-.669 1.66-1.467 3.706-2.274 5.373-.61 1.262-1.692 3.749-3.72 3.307-.438-3.292 2.246-5.723 3.72-8.474 1.433-2.672 3.162-5.6 4.34-8.474.278-.676.395-2.035.827-2.893.797-1.584 3.12-3.868 4.134-6.2.836-1.923 1.124-7.177 2.687-7.648 2.38-.718 4.997 2.219 5.374 3.927.384 1.744.87 5.218.826 6.82-.04 1.53-.747 2.755-.826 3.927-.134 1.982.299 4.094.206 6.2-.1 2.287-.5 4.503-.62 6.821-.185 3.619.452 7.26.62 10.955.22 4.838.005 9.445 0 13.847 3.11 2.84 13.35.931 20.462 1.448 1.313.095 3.491.34 5.374.206.692.606-.49.837 0 1.24 2.843-.15 5.108.402 7.647 0-.908-.882-3.729.145-4.547-.826 1.932-1.658 7.041-.006 8.474-1.654.62-5.134-1.403-10.583.207-14.675-1.517-3.039.263-6.424-.414-9.92-.107-.553-.544-1.087-.62-1.654-.494-3.682.21-8.188 0-12.814-.444-9.776-.62-20.525-.62-29.97 0-4.81 1.117-10.455-1.033-13.434-1.304-1.039-5.216.531-5.787-1.24 2.99-.87 7.6.076 8.68 2.48-.027 2.852.378 5.272.413 8.06" clip-rule="evenodd"/></svg>