<?xml version="1.0" encoding="UTF-8" standalone="no"?>
<svg width="474px" height="100px" viewBox="0 0 474 100" version="1.1" xmlns="http://www.w3.org/2000/svg" xmlns:xlink="http://www.w3.org/1999/xlink" xmlns:sketch="http://www.bohemiancoding.com/sketch/ns">
    <!-- Generator: Sketch 3.5.1 (25234) - http://www.bohemiancoding.com/sketch -->
    <title>Apsis Logo + apsis labs</title>
    <desc>Created with Sketch.</desc>
    <defs></defs>
    <g id="Page-1" stroke="none" stroke-width="1" fill="none" fill-rule="evenodd" sketch:type="MSPage">
        <g id="Apsis-Logo-+-apsis-labs" sketch:type="MSLayerGroup" fill="#2773A7">
            <path d="M50,0 C77.6142247,0 100,22.3857538 100,50 C100,77.6142351 77.6142247,100 50,100 C22.3857615,100 0,77.6142351 0,50 C0,22.3857538 22.3857615,0 50,0 L50,0 Z M50,5 C25.1471997,5 5,25.1471845 5,50 C5,74.8528238 25.1471997,95 50,95 C74.8528142,95 95,74.8528238 95,50 C95,25.1471845 74.8528142,5 50,5 L50,5 Z M50,10 C72.0913721,10 90,27.9086033 90,50 C90,72.0914051 72.0913721,90 50,90 C27.9086057,90 10,72.0914051 10,50 C10,27.9086033 27.9086057,10 50,10 L50,10 Z M63,24 C59.0724985,27.4924611 59.0724985,33.5075389 63,37 C66.4924837,40.9274944 72.5075366,40.9274944 76,37 C79.9274948,33.5075389 79.9274948,27.4924611 76,24 C72.5075366,20.0725056 66.4924837,20.0725056 63,24 L63,24 Z" id="Apsis-Logo" sketch:type="MSShapeGroup"></path>
            <path d="M154.535156,75 L153.509766,67.9453125 L153.181641,67.9453125 C150.939442,70.8164206 148.635754,72.8466737 146.270508,74.0361328 C143.905262,75.2255919 141.109391,75.8203125 137.882812,75.8203125 C133.507791,75.8203125 130.103528,74.69923 127.669922,72.4570312 C125.236316,70.2148325 124.019531,67.1113479 124.019531,63.1464844 C124.019531,58.7988064 125.831037,55.421887 129.454102,53.015625 C133.077167,50.609363 138.320278,49.3378913 145.183594,49.2011719 L153.673828,48.9550781 L153.673828,46.0019531 C153.673828,41.7636507 152.812509,38.5644639 151.089844,36.4042969 C149.367179,34.2441298 146.591816,33.1640625 142.763672,33.1640625 C138.634745,33.1640625 134.355491,34.3124885 129.925781,36.609375 L128.408203,33.0820312 C133.302759,30.7851448 138.142554,29.6367188 142.927734,29.6367188 C147.82229,29.6367188 151.47948,30.9081904 153.899414,33.4511719 C156.319348,35.9941533 157.529297,39.9589574 157.529297,45.3457031 L157.529297,75 L154.535156,75 Z M138.128906,72.1289062 C142.886743,72.1289062 146.639635,70.7685683 149.387695,68.0478516 C152.135756,65.3271348 153.509766,61.5468992 153.509766,56.7070312 L153.509766,52.3183594 L145.716797,52.6464844 C139.455047,52.9472671 134.991224,53.9247964 132.325195,55.5791016 C129.659166,57.2334067 128.326172,59.8105294 128.326172,63.3105469 C128.326172,66.0996233 129.180656,68.2665938 130.889648,69.8115234 C132.598641,71.356453 135.011703,72.1289062 138.128906,72.1289062 L138.128906,72.1289062 Z M190.039062,75.8203125 C183.175747,75.8203125 178.171891,73.2500257 175.027344,68.109375 L174.740234,68.109375 L174.863281,71.5546875 C174.972657,73.5781351 175.027344,75.7929567 175.027344,78.1992188 L175.027344,95.1796875 L170.966797,95.1796875 L170.966797,30.4160156 L174.412109,30.4160156 L175.191406,36.7734375 L175.4375,36.7734375 C178.500015,31.9609134 183.394498,29.5546875 190.121094,29.5546875 C196.136749,29.5546875 200.723617,31.5302537 203.881836,35.4814453 C207.040055,39.4326369 208.619141,45.1816029 208.619141,52.7285156 C208.619141,60.0566773 206.958024,65.7372845 203.635742,69.7705078 C200.31346,73.8037311 195.781279,75.8203125 190.039062,75.8203125 L190.039062,75.8203125 Z M189.957031,72.2109375 C194.52346,72.2109375 198.057605,70.515642 200.55957,67.125 C203.061536,63.734358 204.3125,58.9902649 204.3125,52.8925781 C204.3125,39.7948564 199.582079,33.2460938 190.121094,33.2460938 C184.925755,33.2460938 181.11134,34.6747904 178.677734,37.5322266 C176.244128,40.3896627 175.027344,45.0448896 175.027344,51.4980469 L175.027344,52.8105469 C175.027344,59.783238 176.196277,64.7597507 178.53418,67.7402344 C180.872082,70.720718 184.679661,72.2109375 189.957031,72.2109375 L189.957031,72.2109375 Z M247.609375,63.3925781 C247.609375,67.3847856 246.091812,70.4540908 243.056641,72.6005859 C240.021469,74.747081 235.714872,75.8203125 230.136719,75.8203125 C224.175751,75.8203125 219.44533,74.904306 215.945312,73.0722656 L215.945312,68.6835938 C220.42971,70.9257925 225.160131,72.046875 230.136719,72.046875 C234.539085,72.046875 237.881825,71.315437 240.165039,69.8525391 C242.448254,68.3896411 243.589844,66.4414184 243.589844,64.0078125 C243.589844,61.7656138 242.680673,59.8789139 240.862305,58.3476562 C239.043936,56.8163986 236.056661,55.3125074 231.900391,53.8359375 C227.443337,52.2226482 224.312509,50.8349667 222.507812,49.6728516 C220.703116,48.5107364 219.342778,47.1982495 218.426758,45.7353516 C217.510738,44.2724536 217.052734,42.4882918 217.052734,40.3828125 C217.052734,37.0468583 218.454088,34.4082128 221.256836,32.4667969 C224.059584,30.5253809 227.976537,29.5546875 233.007812,29.5546875 C237.820337,29.5546875 242.386697,30.4570222 246.707031,32.2617188 L245.189453,35.953125 C240.814431,34.1484285 236.753925,33.2460938 233.007812,33.2460938 C229.371076,33.2460938 226.486339,33.8476502 224.353516,35.0507812 C222.220692,36.2539123 221.154297,37.9218643 221.154297,40.0546875 C221.154297,42.3789179 221.981437,44.2382743 223.635742,45.6328125 C225.290047,47.0273507 228.523413,48.5859289 233.335938,50.3085938 C237.355489,51.7578197 240.281241,53.0634708 242.113281,54.2255859 C243.945322,55.3877011 245.319331,56.7070239 246.235352,58.1835938 C247.151372,59.6601636 247.609375,61.3964744 247.609375,63.3925781 L247.609375,63.3925781 Z M262.154297,75 L258.09375,75 L258.09375,30.4160156 L262.154297,30.4160156 L262.154297,75 Z M257.519531,18.0292969 C257.519531,15.4042837 258.380851,14.0917969 260.103516,14.0917969 C260.951176,14.0917969 261.614255,14.4335903 262.092773,15.1171875 C262.571291,15.8007847 262.810547,16.7714781 262.810547,18.0292969 C262.810547,19.2597718 262.571291,20.2304652 262.092773,20.9414062 C261.614255,21.6523473 260.951176,22.0078125 260.103516,22.0078125 C258.380851,22.0078125 257.519531,20.6816539 257.519531,18.0292969 L257.519531,18.0292969 Z M303.728516,63.3925781 C303.728516,67.3847856 302.210953,70.4540908 299.175781,72.6005859 C296.14061,74.747081 291.834012,75.8203125 286.255859,75.8203125 C280.294892,75.8203125 275.564471,74.904306 272.064453,73.0722656 L272.064453,68.6835938 C276.548851,70.9257925 281.279272,72.046875 286.255859,72.046875 C290.658225,72.046875 294.000965,71.315437 296.28418,69.8525391 C298.567394,68.3896411 299.708984,66.4414184 299.708984,64.0078125 C299.708984,61.7656138 298.799814,59.8789139 296.981445,58.3476562 C295.163077,56.8163986 292.175802,55.3125074 288.019531,53.8359375 C283.562478,52.2226482 280.43165,50.8349667 278.626953,49.6728516 C276.822257,48.5107364 275.461919,47.1982495 274.545898,45.7353516 C273.629878,44.2724536 273.171875,42.4882918 273.171875,40.3828125 C273.171875,37.0468583 274.573228,34.4082128 277.375977,32.4667969 C280.178725,30.5253809 284.095678,29.5546875 289.126953,29.5546875 C293.939477,29.5546875 298.505838,30.4570222 302.826172,32.2617188 L301.308594,35.953125 C296.933572,34.1484285 292.873066,33.2460938 289.126953,33.2460938 C285.490216,33.2460938 282.605479,33.8476502 280.472656,35.0507812 C278.339833,36.2539123 277.273438,37.9218643 277.273438,40.0546875 C277.273438,42.3789179 278.100578,44.2382743 279.754883,45.6328125 C281.409188,47.0273507 284.642554,48.5859289 289.455078,50.3085938 C293.474629,51.7578197 296.400381,53.0634708 298.232422,54.2255859 C300.064462,55.3877011 301.438472,56.7070239 302.354492,58.1835938 C303.270512,59.6601636 303.728516,61.3964744 303.728516,63.3925781 L303.728516,63.3925781 Z M339.09375,75 L335.033203,75 L335.033203,11.1796875 L339.09375,11.1796875 L339.09375,75 Z M380.09375,75 L379.068359,67.9453125 L378.740234,67.9453125 C376.498036,70.8164206 374.194348,72.8466737 371.829102,74.0361328 C369.463855,75.2255919 366.667985,75.8203125 363.441406,75.8203125 C359.066384,75.8203125 355.662122,74.69923 353.228516,72.4570312 C350.79491,70.2148325 349.578125,67.1113479 349.578125,63.1464844 C349.578125,58.7988064 351.38963,55.421887 355.012695,53.015625 C358.63576,50.609363 363.878872,49.3378913 370.742188,49.2011719 L379.232422,48.9550781 L379.232422,46.0019531 C379.232422,41.7636507 378.371102,38.5644639 376.648438,36.4042969 C374.925773,34.2441298 372.15041,33.1640625 368.322266,33.1640625 C364.193339,33.1640625 359.914085,34.3124885 355.484375,36.609375 L353.966797,33.0820312 C358.861353,30.7851448 363.701148,29.6367188 368.486328,29.6367188 C373.380884,29.6367188 377.038074,30.9081904 379.458008,33.4511719 C381.877942,35.9941533 383.087891,39.9589574 383.087891,45.3457031 L383.087891,75 L380.09375,75 Z M363.6875,72.1289062 C368.445336,72.1289062 372.198228,70.7685683 374.946289,68.0478516 C377.69435,65.3271348 379.068359,61.5468992 379.068359,56.7070312 L379.068359,52.3183594 L371.275391,52.6464844 C365.013641,52.9472671 360.549818,53.9247964 357.883789,55.5791016 C355.21776,57.2334067 353.884766,59.8105294 353.884766,63.3105469 C353.884766,66.0996233 354.739249,68.2665938 356.448242,69.8115234 C358.157235,71.356453 360.570297,72.1289062 363.6875,72.1289062 L363.6875,72.1289062 Z M415.351562,29.5546875 C421.585969,29.5546875 426.282211,31.5165819 429.44043,35.4404297 C432.598649,39.3642774 434.177734,45.0995716 434.177734,52.6464844 C434.177734,60.0566777 432.516618,65.7714643 429.194336,69.7910156 C425.872054,73.810567 421.203155,75.8203125 415.1875,75.8203125 C412.015609,75.8203125 409.158216,75.1640691 406.615234,73.8515625 C404.072253,72.5390559 402.062507,70.6796995 400.585938,68.2734375 L400.216797,68.2734375 L399.068359,75 L396.525391,75 L396.525391,11.1796875 L400.585938,11.1796875 L400.585938,27.2167969 C400.585938,29.6230589 400.531251,31.8378805 400.421875,33.8613281 L400.298828,37.3476562 L400.585938,37.3476562 C402.281258,34.6679554 404.325183,32.699225 406.717773,31.4414062 C409.110364,30.1835875 411.988264,29.5546875 415.351562,29.5546875 L415.351562,29.5546875 Z M415.269531,33.2460938 C410.019505,33.2460938 406.259777,34.749985 403.990234,37.7578125 C401.720692,40.76564 400.585938,45.728481 400.585938,52.6464844 L400.585938,53.34375 C400.585938,60.0703461 401.768543,64.8964697 404.133789,67.8222656 C406.499035,70.7480615 410.183569,72.2109375 415.1875,72.2109375 C420.054712,72.2109375 423.718738,70.5088061 426.179688,67.1044922 C428.640637,63.7001783 429.871094,58.8535471 429.871094,52.5644531 C429.871094,39.6854825 425.003955,33.2460938 415.269531,33.2460938 L415.269531,33.2460938 Z M473.167969,63.3925781 C473.167969,67.3847856 471.650406,70.4540908 468.615234,72.6005859 C465.580063,74.747081 461.273465,75.8203125 455.695312,75.8203125 C449.734345,75.8203125 445.003924,74.904306 441.503906,73.0722656 L441.503906,68.6835938 C445.988304,70.9257925 450.718725,72.046875 455.695312,72.046875 C460.097678,72.046875 463.440418,71.315437 465.723633,69.8525391 C468.006847,68.3896411 469.148438,66.4414184 469.148438,64.0078125 C469.148438,61.7656138 468.239267,59.8789139 466.420898,58.3476562 C464.60253,56.8163986 461.615255,55.3125074 457.458984,53.8359375 C453.001931,52.2226482 449.871103,50.8349667 448.066406,49.6728516 C446.26171,48.5107364 444.901372,47.1982495 443.985352,45.7353516 C443.069331,44.2724536 442.611328,42.4882918 442.611328,40.3828125 C442.611328,37.0468583 444.012681,34.4082128 446.81543,32.4667969 C449.618178,30.5253809 453.535131,29.5546875 458.566406,29.5546875 C463.37893,29.5546875 467.945291,30.4570222 472.265625,32.2617188 L470.748047,35.953125 C466.373025,34.1484285 462.312519,33.2460938 458.566406,33.2460938 C454.929669,33.2460938 452.044933,33.8476502 449.912109,35.0507812 C447.779286,36.2539123 446.712891,37.9218643 446.712891,40.0546875 C446.712891,42.3789179 447.540031,44.2382743 449.194336,45.6328125 C450.848641,47.0273507 454.082007,48.5859289 458.894531,50.3085938 C462.914083,51.7578197 465.839835,53.0634708 467.671875,54.2255859 C469.503915,55.3877011 470.877925,56.7070239 471.793945,58.1835938 C472.709966,59.6601636 473.167969,61.3964744 473.167969,63.3925781 L473.167969,63.3925781 Z" id="apsis-labs" sketch:type="MSShapeGroup"></path>
        </g>
    </g>
</svg>